<svg width="95" height="16" fill="none" xmlns="http://www.w3.org/2000/svg"><g clip-path="url(#clip0_53_9661)"><path d="M37.263 1.467c0-.81.646-1.467 1.44-1.467.799 0 1.447.656 1.447 1.467 0 .81-.648 1.467-1.446 1.467a1.454 1.454 0 01-1.441-1.467z" fill="#fff"/><path d="M60.044 11.227c0-.811.646-1.468 1.44-1.468.798 0 1.447.657 1.447 1.468 0 .81-.648 1.467-1.446 1.467-.795 0-1.44-.657-1.44-1.467z" fill="#499FDD"/><path d="M13.566 10.593c-1.244 0-2.108-1.001-2.108-2.431 0-1.43.864-2.431 2.108-2.431 1.25 0 2.124 1 2.124 2.43 0 1.454-.855 2.432-2.124 2.432zm0-6.999c-2.63 0-4.54 1.921-4.54 4.568 0 2.646 1.91 4.567 4.54 4.567 2.64 0 4.558-1.921 4.558-4.567 0-2.647-1.917-4.568-4.558-4.568zm20.9 4.796a2.178 2.178 0 00-.344-.491l-.08-.086.084-.081a3.65 3.65 0 00.363-.46l2.322-3.498h-2.818l-1.745 2.737c-.098.146-.298.22-.596.22h-.398V1.558c0-1.035-.636-1.176-1.323-1.176h-1.176l.002 12.212h2.497V8.931h.234c.285 0 .479.033.568.19l1.377 2.636c.385.715.769.837 1.49.837h1.914l-1.426-2.39-.945-1.814M46.59 3.574c-1.27 0-2.08.572-2.535 1.056l-.152.156-.053-.212c-.134-.518-.583-.803-1.26-.803h-1.12l.008 8.82h2.48V8.526c0-.398.05-.742.154-1.057.277-.953 1.047-1.545 2.01-1.545.774 0 1.076.414 1.076 1.485v3.841c0 .914.417 1.341 1.319 1.341h1.18l-.004-5.61c0-2.228-1.072-3.407-3.102-3.407m-7.854.201H37.56l.008 6.82v1.998h1.254l.045.002.584-.002h.582v-.003h.004l.005-7.476c0-.902-.425-1.34-1.305-1.34m-15.429 6.819c-1.243 0-2.109-1.001-2.109-2.431 0-1.43.866-2.431 2.11-2.431 1.247 0 2.124 1 2.124 2.43 0 1.454-.856 2.432-2.125 2.432zm0-6.999c-2.633 0-4.543 1.921-4.543 4.568 0 2.646 1.91 4.567 4.543 4.567 2.638 0 4.559-1.921 4.559-4.567 0-2.647-1.92-4.568-4.559-4.568z" fill="#fff"/><path d="M76.474 10.593c-1.243 0-2.11-1.001-2.11-2.431 0-1.43.867-2.431 2.11-2.431 1.248 0 2.125 1 2.125 2.43 0 1.454-.856 2.432-2.125 2.432zm0-6.999c-2.633 0-4.542 1.921-4.542 4.568 0 2.646 1.91 4.567 4.542 4.567 2.638 0 4.558-1.921 4.558-4.567 0-2.647-1.92-4.568-4.558-4.568z" fill="#499FDD"/><path d="M54.923 10.205c-1.356 0-1.839-1.2-1.839-2.323 0-.495.124-2.109 1.709-2.109.787 0 1.837.229 1.837 2.192 0 1.852-.929 2.24-1.707 2.24zm2.995-6.454c-.471 0-.833.19-1.015.538l-.068.135-.115-.102c-.4-.35-1.118-.767-2.284-.767-2.32 0-3.88 1.765-3.88 4.393 0 2.625 1.615 4.459 3.927 4.459.79 0 1.413-.187 1.908-.567l.191-.145v.245c0 1.178-.751 1.828-2.114 1.828a4.953 4.953 0 01-1.668-.312c-.526-.16-.834-.028-1.048.507l-.197.494-.278.721.172.093c.872.47 2.008.75 3.034.75 2.112 0 4.578-1.097 4.578-4.18l.01-8.09h-1.153M4.329 10.492l-2.02-.002V8.043c0-.523.2-.795.643-.857h1.377c.982 0 1.617.628 1.618 1.644 0 1.043-.62 1.661-1.618 1.662zm-2.02-6.6v-.645c0-.563.236-.831.752-.866h1.033c.886 0 1.417.538 1.417 1.437 0 .686-.363 1.486-1.384 1.486H2.31V3.89zm4.598 2.441l-.365-.208.319-.276c.37-.323.992-1.049.992-2.303 0-1.92-1.47-3.159-3.742-3.159H1.22A1.275 1.275 0 000 1.655V12.55h4.162c2.527 0 4.158-1.395 4.158-3.554 0-1.163-.527-2.157-1.413-2.663" fill="#fff"/><path d="M92.112 3.603a3.401 3.401 0 00-2.662 1.308l-.18.23-.141-.258c-.46-.849-1.25-1.28-2.35-1.28-1.153 0-1.926.652-2.285 1.04l-.235.258-.09-.34c-.132-.488-.56-.757-1.21-.757h-1.043l-.01 8.786h2.368V8.71c0-.34.042-.676.126-1.027.226-.937.848-1.945 1.892-1.845.644.063.959.568.959 1.542v5.209h2.385V8.71c0-.424.04-.742.134-1.061.192-.895.84-1.812 1.848-1.812.73 0 1 .419 1 1.543v3.924c0 .888.39 1.285 1.265 1.285h1.115L95 6.98c0-2.24-.973-3.377-2.888-3.377M70.56 9.54c-.007.008-1.026 1.097-2.368 1.097-1.223 0-2.458-.76-2.458-2.458 0-1.465.958-2.49 2.329-2.49.445 0 .951.162 1.03.434l.012.046c.182.616.735.65.844.65h1.298V5.67c0-1.516-1.903-2.066-3.184-2.066-2.74 0-4.727 1.933-4.727 4.595 0 2.66 1.966 4.59 4.677 4.59 2.351 0 3.63-1.566 3.642-1.582l.068-.085-1.028-1.728-.135.146" fill="#499FDD"/></g><defs><clipPath id="clip0_53_9661"><path fill="#fff" d="M0 0h95v16H0z"/></clipPath></defs></svg>