<svg width="36" height="36" fill="none" xmlns="http://www.w3.org/2000/svg"><g clip-path="url(#clip0_53_9691)"><path d="M18 36.002c9.941 0 18-8.058 18-18 0-9.94-8.059-18-18-18s-18 8.06-18 18c0 9.942 8.059 18 18 18z" fill="#1977F3"/><path d="M25.007 23.207l.797-5.204h-4.992v-3.377c0-1.423.696-2.813 2.934-2.813h2.27v-4.43s-2.06-.351-4.03-.351c-4.11 0-6.798 2.49-6.798 7.004v3.967h-4.572v5.204h4.572v12.578a18.07 18.07 0 002.812.218c.957 0 1.896-.076 2.812-.218V23.207h4.195z" fill="#F2F2F2"/></g><defs><clipPath id="clip0_53_9691"><path fill="#fff" d="M0 0h36v36H0z"/></clipPath></defs></svg>