<svg width="36" height="36" fill="none" xmlns="http://www.w3.org/2000/svg"><g clip-path="url(#clip0_53_9678)"><path d="M36 18.413c0-1.223-.101-2.454-.317-3.657H18.36v6.931h9.92a8.323 8.323 0 01-3.671 5.47v4.498h5.917C34.003 28.519 36 23.89 36 18.413z" fill="#4285F4"/><path d="M18.361 36c4.953 0 9.13-1.594 12.173-4.345l-5.918-4.498c-1.646 1.098-3.772 1.72-6.248 1.72-4.791 0-8.853-3.168-10.311-7.428H1.95v4.637C5.068 32.164 11.417 36 18.361 36z" fill="#34A853"/><path d="M8.05 21.45a10.58 10.58 0 010-6.893V9.921h-6.1a17.696 17.696 0 000 16.165l6.1-4.637z" fill="#FBBC04"/><path d="M18.361 7.123c2.618-.04 5.149.926 7.045 2.699l5.243-5.14C27.329 1.627 22.923-.053 18.36 0 11.417 0 5.068 3.836 1.951 9.92l6.1 4.637c1.45-4.266 5.519-7.434 10.31-7.434z" fill="#EA4335"/></g><defs><clipPath id="clip0_53_9678"><path fill="#fff" d="M0 0h36v36H0z"/></clipPath></defs></svg>