<svg width="80" height="16" fill="none" xmlns="http://www.w3.org/2000/svg"><path d="M8 2l1.41 4.058 4.296.088-3.423 2.596 1.244 4.112L8 10.4l-3.527 2.454 1.244-4.112-3.423-2.596 4.295-.088L8 2zm16 0l1.41 4.058 4.296.088-3.424 2.596 1.245 4.112L24 10.4l-3.527 2.454 1.245-4.112-3.424-2.596 4.295-.088L24 2zm16 0l1.41 4.058 4.296.088-3.424 2.596 1.245 4.112L40 10.4l-3.527 2.454 1.245-4.112-3.424-2.596 4.295-.088L40 2zm16 0l1.41 4.058 4.296.088-3.424 2.596 1.245 4.112L56 10.4l-3.527 2.454 1.245-4.112-3.424-2.596 4.295-.088L56 2z" fill="#292D32" stroke="#292D32" stroke-linecap="round" stroke-linejoin="round"/><path d="M72 2l1.41 4.058 4.296.088-3.424 2.596 1.245 4.112L72 10.4l-3.527 2.454 1.245-4.112-3.424-2.596 4.295-.088L72 2z" stroke="#292D32" stroke-linecap="round" stroke-linejoin="round"/><path d="M71.5 10.139l-2.132 1.483.828-2.736a.5.5 0 00-.177-.543l-2.277-1.727 2.858-.058a.5.5 0 00.462-.335L71.5 4.96v5.178z" fill="#292D32" stroke="#292D32" stroke-linecap="round" stroke-linejoin="round"/></svg>