<svg width="80" height="16" fill="none" xmlns="http://www.w3.org/2000/svg"><path d="M8 2l1.41 4.058 4.296.088-3.423 2.596 1.244 4.112L8 10.4l-3.527 2.454 1.244-4.112-3.423-2.596 4.295-.088L8 2zm16 0l1.41 4.058 4.296.088-3.424 2.596 1.245 4.112L24 10.4l-3.527 2.454 1.245-4.112-3.424-2.596 4.295-.088L24 2zm16 0l1.41 4.058 4.296.088-3.424 2.596 1.245 4.112L40 10.4l-3.527 2.454 1.245-4.112-3.424-2.596 4.295-.088L40 2zm16 0l1.41 4.058 4.296.088-3.424 2.596 1.245 4.112L56 10.4l-3.527 2.454 1.245-4.112-3.424-2.596 4.295-.088L56 2zm16 0l1.41 4.058 4.296.088-3.424 2.596 1.245 4.112L72 10.4l-3.527 2.454 1.245-4.112-3.424-2.596 4.295-.088L72 2z" fill="#292D32" stroke="#292D32" stroke-linecap="round" stroke-linejoin="round"/></svg>