<svg width="46" height="25" fill="none" xmlns="http://www.w3.org/2000/svg"><path d="M0 10.286C0 4.606 4.64 0 10.364 0h25.272C41.36 0 46 4.605 46 10.286c0 5.68-4.64 10.285-10.364 10.285H18.614L13.704 25v-4.429h-3.34C4.64 20.571 0 15.966 0 10.286z" fill="#704EA6"/><path d="M14.468 6.147h1.68L13.48 14h-1.816L9 6.147h1.681l1.477 4.673c.083.276.167.598.253.967.09.365.145.62.166.763.04-.33.174-.906.403-1.73l1.488-4.673zm2.476.296c0-.534.297-.8.891-.8.595 0 .892.266.892.8 0 .254-.075.453-.226.596-.146.14-.368.21-.666.21-.594 0-.891-.269-.891-.806zM18.652 14h-1.638V7.995h1.638V14zm5.065-6.118c.709 0 1.264.278 1.665.833.4.551.601 1.309.601 2.272 0 .992-.207 1.76-.623 2.304-.411.544-.974.816-1.686.816-.706 0-1.259-.256-1.66-.768h-.113l-.274.661h-1.251V5.643h1.638v1.944c0 .247-.021.643-.064 1.187h.064c.383-.594.95-.892 1.703-.892zm-.527 1.31c-.404 0-.7.126-.886.377-.186.247-.283.657-.29 1.23v.177c0 .645.095 1.106.285 1.386.193.28.498.419.913.419.337 0 .603-.154.8-.462.2-.312.301-.763.301-1.354 0-.59-.1-1.033-.3-1.326a.942.942 0 00-.823-.446zm6.634-.144c-.348 0-.62.11-.817.333-.197.218-.31.53-.338.934h2.299c-.007-.404-.113-.716-.317-.934-.204-.222-.48-.333-.827-.333zm.23 5.06c-.966 0-1.722-.267-2.266-.8-.544-.534-.816-1.29-.816-2.268 0-1.006.25-1.783.752-2.33.505-.552 1.201-.828 2.089-.828.849 0 1.51.242 1.982.725.473.484.709 1.152.709 2.004v.795H28.63c.018.465.156.829.414 1.09.258.261.62.392 1.085.392.361 0 .704-.037 1.026-.113a5.135 5.135 0 001.01-.36v1.268a3.764 3.764 0 01-.919.317 5.652 5.652 0 01-1.192.107zm7.134-6.226c.221 0 .406.016.553.049l-.124 1.536a1.877 1.877 0 00-.483-.054c-.523 0-.931.134-1.225.403-.29.268-.435.644-.435 1.128V14h-1.638V7.995h1.24l.242 1.01h.08a2.25 2.25 0 01.753-.811 1.862 1.862 0 011.036-.312z" fill="#fff"/></svg>