<svg width="186" height="38" fill="none" xmlns="http://www.w3.org/2000/svg"><path fill-rule="evenodd" clip-rule="evenodd" d="M184.5 1.5H1.5v35h183v-35zM0 0v38h186V0H0z" fill="#fff"/><path d="M116.243 27.386h-5.254c-.061-1.722-.183-3.325-.244-5.226-2.077 1.307-1.771 3.445-2.565 5.167h-6.475c.305-1.782.427-3.326.855-4.81.183-.594 1.038-1.129 1.71-1.366.733-.297 1.588-.238 2.871-.357-.794-.534-1.222-.89-1.71-1.069-2.627-1.247-2.627-1.187-2.444-4.038.122-1.187.367-2.316.611-3.682h13.256c.122 5.107.488 10.155-.611 15.381zm-5.926-12.114c-1.771 2.85-1.771 2.85.489 3.74-.183-1.365-.366-2.553-.489-3.74zM90.282 27.327h-5.62V11.946h6.17c.794 1.603-.611 4.394 2.81 4.513v-4.513h6.841c-.306 5.167-.55 10.155-.855 15.321H93.64c0-2.019-.06-4.097 0-6.116.061-1.604-.488-2.435-2.504-2.494-.183 2.85-.55 5.76-.855 8.67zm68.468-7.364c.428-6.176 5.62-10.095 11.668-8.67 1.221.297 1.954.831 2.504 1.9 2.26 4.454.855 10.333-3.176 13.362-1.894 1.425-4.032 1.781-6.292 1.484-1.405-.178-2.566-.772-2.993-2.137a169.9 169.9 0 01-1.711-5.939zm6.598-5.642c-1.772 4.514-.978 8.493 2.076 11.224 2.261-3.563 1.466-8.195-2.076-11.224zm-12.095 3.801c4.764 3.563 4.826 3.8 2.871 9.205h-12.461c-1.344-4.632-1.1-9.383-.856-14.075.061-.89.428-1.543 1.466-1.543h12.523c-.245 2.969-1.894 4.691-3.543 6.413zm-3.177-3.979c-.183 1.129-.305 2.079-.488 3.029.183.119.366.238.488.356.978-.95 1.894-1.9 3.36-3.325-1.527-.06-2.26-.06-3.36-.06zm0 6.533c-.244 0-.488.06-.733.06-.122 1.424-.183 2.79-.305 4.453 1.039-.119 1.772-.238 2.81-.356a352.106 352.106 0 01-1.772-4.157zm-10.14.474c.061 1.129.123 2.495.123 2.495 0 .772-.978 1.9-1.894 2.494-4.826 3.147-10.384 1.01-11.789-4.513-1.528-6.058 2.748-10.749 9.101-10.57 1.527.059 2.993.415 4.887.653l-.916 3.919-3.177.297a25.798 25.798 0 01-.244-2.02h-2.993a232.296 232.296 0 00-.733 3.92c2.016-.356 3.909-.712 5.864-1.069-.367 2.97-.367 2.85-2.444 3.088-.794.06-2.076.357-2.199.95-.427 1.426.795 3.029 1.894 3.98.305.296.977.296 1.283-.238.794-1.485 2.077-2.198 3.237-3.385zm-81.328 6.177V11.946h6.352v8.076c2.383-1.781 2.81-2.85 3.055-8.135h6.597c-.306 5.226-.55 10.214-.855 15.38h-6.109v-5.404c-.122-.059-.244-.178-.366-.237-.733 1.069-1.589 2.138-2.077 3.325-.978 2.138-2.566 2.91-4.826 2.494-.489-.059-.977-.059-1.771-.118zM44.68 11.709h3.91c4.153.118 3.848-.891 5.07 4.038.55 2.375.794 4.87 1.16 7.304.122.95-.244 2.02 1.283 2.316.183.06.366.831.366 1.247-.06.772-.244 1.544-.427 2.316-.428 1.96-.428 1.96-2.871 1.841-.367-.95-.428-2.316-1.1-2.791-.733-.594-2.076-.475-3.176-.534-1.222-.06-2.443 0-3.665 0-3.176.059-3.237.059-3.97 3.266-1.222.534-2.2.415-2.383-1.129-.183-1.722-1.527-3.622.672-4.988-.733-3.8 2.321-5.523 4.398-7.78 1.222-1.306 1.894-2.85.306-4.572.183-.178.305-.356.427-.534zm4.032 13.302c-.611-2.732-1.222-5.285-1.772-7.84-1.405 2.555-1.954 5.049-1.405 7.84h3.177zM12 11.768c5.131-1.485 7.086 1.96 9.468 5.582.183-2.078.305-3.622.489-5.404h6.78c-.183 1.722-.366 3.207-.61 5.285 2.382-3.563 4.52-6.829 9.284-5.523-1.038 2.851-1.038 2.792-3.787 2.851-.489 0-1.16.356-1.466.772-.672.95-1.222 2.02-2.016 3.385 2.138.475 5.803 1.128 6.17 1.306.794.535 1.466 3.623.916 7.245h-6.353c-.855-2.019-2.138-6.235-3.237-6.235-.123 1.9-.245 4.216-.367 6.295h-5.314c-.122-1.96-.306-3.979-.489-6.295-2.138 1.782-2.26 4.098-2.87 6.295h-6.17c-.49-3.385.122-5.345.61-6.651.123-.416 4.337-1.544 6.109-1.9-.855-1.663-1.466-2.97-2.077-4.276-1.283 0-2.504.356-3.299-.12-.794-.415-1.16-1.662-1.771-2.612z" fill="#fff"/></svg>