<svg width="24" height="24" viewBox="0 0 24 24" fill="none" xmlns="http://www.w3.org/2000/svg">
<path fill-rule="evenodd" clip-rule="evenodd" d="M6.25 0.25H17.8056V13.75H20.25V12H21.75V21.75L2.25 21.75V12H3.75V13.75L6.25 13.75V0.25ZM7.75 13.75H11.2778V5.75H7.75V13.75ZM7.75 4.25H11.2778V1.75H7.75V4.25ZM12.7778 1.75V4.25H16.3056V1.75H12.7778ZM16.3056 5.75H12.7778V13.75H16.3056V5.75ZM3.75 15.25V20.25L20.25 20.25V15.25L3.75 15.25ZM5.25 19V16.5H6.75V19H5.25ZM8.25 19V16.5H9.75V19H8.25ZM11.25 19V16.5H12.75V19H11.25ZM14.25 19V16.5H15.75V19H14.25ZM17.25 19V16.5H18.75V19H17.25Z" fill="black"/>
</svg>
