<svg width="100" height="100" viewBox="0 0 100 100" fill="none" xmlns="http://www.w3.org/2000/svg">
<path fill-rule="evenodd" clip-rule="evenodd" d="M47.8297 19.1864L48.7474 16.7368L50.1521 17.2631L49.2344 19.7126C49.047 20.2128 49.1981 20.7767 49.6105 21.1162L50.7003 22.0134C51.4868 22.6608 51.8509 23.6899 51.6467 24.6878L51.045 27.6279L49.5755 27.3272L50.1771 24.3871C50.27 23.9335 50.1044 23.4657 49.747 23.1714L48.6571 22.2742C47.75 21.5274 47.4175 20.2867 47.8297 19.1864ZM55.3521 19.1864L56.2698 16.7368L57.6745 17.2631L56.7568 19.7126C56.5694 20.2128 56.7205 20.7767 57.1329 21.1162L58.2227 22.0134C59.0091 22.6608 59.3733 23.6899 59.1691 24.6878L58.5674 27.6279L57.0979 27.3272L57.6995 24.3871C57.7924 23.9335 57.6268 23.4657 57.2694 23.1714L56.1795 22.2742C55.2723 21.5274 54.9399 20.2867 55.3521 19.1864ZM40.3074 19.1864L41.225 16.7368L42.6297 17.2631L41.712 19.7126C41.5246 20.2128 41.6757 20.7767 42.0881 21.1162L43.1779 22.0134C43.9644 22.6608 44.3285 23.6899 44.1243 24.6878L43.5227 27.6279L42.0531 27.3272L42.6548 24.3871C42.7476 23.9335 42.5821 23.4657 42.2246 23.1714L41.1347 22.2742C40.2276 21.5274 39.8951 20.2867 40.3074 19.1864ZM23.25 34.2499H46.75V36.2499H84.75V41.7499H82.75V74.25H85.75V80.7499H14.25V74.25H17.25V41.7499H15.25V36.2499H23.25V34.2499ZM23.25 37.7499H16.75V40.2499H23.25V37.7499ZM23.25 41.7499H18.75V74.25H27.25V70.25H27.6029V52.75H23.25V41.7499ZM29.1029 52.75V70.25H38.25V60.25H38.4265V52.75H29.1029ZM39.9265 52.75V60.25H45.4853V52.75H39.9265ZM46.9853 41.7499V60.25H53.0147V41.7499H46.9853ZM54.5147 41.7499V60.25H60.0735V41.7499H54.5147ZM61.5735 41.7499V60.25H61.75V70.25H70.8971V41.7499H61.5735ZM72.3971 41.7499V70.25H72.75V74.25H81.25V41.7499H72.3971ZM72.75 75.75V79.25H84.25V75.75H72.75ZM71.25 79.25V71.75H28.75V79.25H71.25ZM27.25 79.25V75.75H15.75V79.25H27.25ZM60.25 70.25V61.75H39.75V70.25H60.25ZM46.75 40.2499H83.25V37.7499H46.75V40.2499ZM45.25 51.25V35.7499H24.75V51.25H45.25Z" fill="black"/>
</svg>
