<svg width="24" height="24" viewBox="0 0 24 24" fill="none" xmlns="http://www.w3.org/2000/svg">
<path fill-rule="evenodd" clip-rule="evenodd" d="M1.03955 10.2501H22.9607L21.8639 14.6372C21.1127 17.6421 18.4128 19.7501 15.3155 19.7501H15.0001V18.2501H15.3155C17.7245 18.2501 19.8244 16.6105 20.4087 14.2734L21.0396 11.7501H2.96072L3.59154 14.2734C4.17583 16.6105 6.27574 18.2501 8.68479 18.2501H9.00013V19.7501H8.68479C5.58743 19.7501 2.88755 17.642 2.13633 14.6372L1.03955 10.2501Z" fill="black"/>
<path fill-rule="evenodd" clip-rule="evenodd" d="M13.8687 13.4747C14.1107 13.7212 14.153 14.1011 13.9712 14.3948C13.9398 14.4454 13.879 14.6006 13.9698 14.9369C14.0606 15.2734 14.2916 15.7335 14.7489 16.2963L14.7545 16.3033L14.76 16.3103C15.7489 17.5883 15.7501 18.8969 15.7501 19.2001C15.7501 21.2086 14.0216 22.7501 12.0001 22.7501C9.97864 22.7501 8.25013 21.2086 8.25013 19.2001C8.25013 18.5395 8.31999 18.004 8.50616 17.4358C8.68565 16.8879 8.96573 16.335 9.34066 15.6428C9.53795 15.2786 9.99313 15.1433 10.3573 15.3406C10.6479 15.498 10.7928 15.8195 10.7393 16.128C10.7618 16.0571 10.7864 15.9823 10.8132 15.9058C11.0855 15.129 11.5971 14.1583 12.9507 13.3551C13.2478 13.1788 13.6268 13.2282 13.8687 13.4747ZM10.6831 16.3101C10.6758 16.326 10.668 16.3417 10.6596 16.3573C10.6483 16.3782 10.6384 16.4104 10.639 16.4547C10.645 16.4352 10.6513 16.4146 10.658 16.3927C10.663 16.3762 10.6683 16.359 10.6736 16.3412C10.6767 16.3311 10.6799 16.3207 10.6831 16.3101ZM9.92434 17.9252C9.80316 18.3029 9.75013 18.6711 9.75013 19.2001C9.75013 20.2843 10.7079 21.2501 12.0001 21.2501C13.2924 21.2501 14.2501 20.2843 14.2501 19.2001V19.199C14.2501 18.9915 14.2501 18.1069 13.5787 17.2348C13.1272 16.6779 12.804 16.1365 12.616 15.6236C12.4261 15.8955 12.3134 16.1605 12.2288 16.402C12.1843 16.5288 12.148 16.6484 12.1097 16.7747C12.1041 16.7929 12.0986 16.8112 12.0929 16.8297C12.0514 16.966 12.0014 17.1279 11.9387 17.2768C11.8091 17.5844 11.5467 18.0157 10.9696 18.1222C10.5637 18.1971 10.2085 18.1045 9.92434 17.9252Z" fill="black"/>
<path fill-rule="evenodd" clip-rule="evenodd" d="M18.763 22.7116L15.763 21.7116L16.2373 20.2885L19.2373 21.2885L18.763 22.7116Z" fill="black"/>
<path fill-rule="evenodd" clip-rule="evenodd" d="M5.2373 22.7116L8.2373 21.7116L7.76296 20.2885L4.76296 21.2885L5.2373 22.7116Z" fill="black"/>
<path fill-rule="evenodd" clip-rule="evenodd" d="M10.1769 1.76262L11.4698 0.469727L12.5305 1.53039L11.2376 2.82328C11.1399 2.92091 11.1399 3.0792 11.2376 3.17683L11.8234 3.76262C12.5068 4.44604 12.5068 5.55408 11.8234 6.23749L10.5305 7.53039L9.4698 6.46973L10.7627 5.17683C10.8603 5.0792 10.8603 4.92091 10.7627 4.82328L10.1769 4.23749C9.49349 3.55408 9.49349 2.44604 10.1769 1.76262Z" fill="black"/>
<path fill-rule="evenodd" clip-rule="evenodd" d="M6.17691 1.76262L7.4698 0.469727L8.53046 1.53039L7.23757 2.82328C7.13994 2.92091 7.13994 3.0792 7.23757 3.17683L7.82336 3.76262C8.50677 4.44604 8.50677 5.55408 7.82336 6.23749L6.53046 7.53039L5.4698 6.46973L6.7627 5.17683C6.86033 5.0792 6.86033 4.92091 6.7627 4.82328L6.17691 4.23749C5.49349 3.55408 5.49349 2.44604 6.17691 1.76262Z" fill="black"/>
<path fill-rule="evenodd" clip-rule="evenodd" d="M19.5001 4.75006C19.0859 4.75006 18.7501 5.08584 18.7501 5.50006C18.7501 5.91427 19.0859 6.25006 19.5001 6.25006C19.9143 6.25006 20.2501 5.91427 20.2501 5.50006C20.2501 5.08584 19.9143 4.75006 19.5001 4.75006ZM17.2501 5.50006C17.2501 4.25742 18.2575 3.25006 19.5001 3.25006C20.7428 3.25006 21.7501 4.25742 21.7501 5.50006C21.7501 6.7427 20.7428 7.75006 19.5001 7.75006C18.2575 7.75006 17.2501 6.7427 17.2501 5.50006Z" fill="black"/>
<path fill-rule="evenodd" clip-rule="evenodd" d="M18.5001 9.75006C18.0859 9.75006 17.7501 10.0858 17.7501 10.5001H16.2501C16.2501 9.25742 17.2575 8.25006 18.5001 8.25006C19.7428 8.25006 20.7501 9.25742 20.7501 10.5001H19.2501C19.2501 10.0858 18.9143 9.75006 18.5001 9.75006Z" fill="black"/>
<path fill-rule="evenodd" clip-rule="evenodd" d="M15.5001 7.75006C15.6382 7.75006 15.7501 7.63813 15.7501 7.50006C15.7501 7.36199 15.6382 7.25006 15.5001 7.25006C15.3621 7.25006 15.2501 7.36199 15.2501 7.50006C15.2501 7.63813 15.3621 7.75006 15.5001 7.75006ZM14.2501 7.50006C14.2501 6.8097 14.8098 6.25006 15.5001 6.25006C16.1905 6.25006 16.7501 6.8097 16.7501 7.50006C16.7501 8.19041 16.1905 8.75006 15.5001 8.75006C14.8098 8.75006 14.2501 8.19041 14.2501 7.50006Z" fill="black"/>
</svg>
