<svg width="24" height="24" viewBox="0 0 24 24" fill="none" xmlns="http://www.w3.org/2000/svg">
<path fill-rule="evenodd" clip-rule="evenodd" d="M7.30577 3.25C6.06313 3.25 5.05577 4.25736 5.05577 5.5V9.75H6.25021V15.25H6.75021V14H8.25021V18H6.75021V16.75H6.25021V21.75H2.36133V9.75H3.55577V5.5C3.55577 3.42893 5.2347 1.75 7.30577 1.75H12.0002C13.519 1.75 14.7502 2.98122 14.7502 4.5V5.75H16.3232C17.0388 5.75 17.6823 6.18566 17.948 6.85007L19.108 9.75H8.89244L10.0524 6.85007C10.3182 6.18566 10.9617 5.75 11.6772 5.75H13.2502V4.5C13.2502 3.80964 12.6906 3.25 12.0002 3.25H7.30577ZM3.86133 11.25V20.25H4.75021V11.25H3.86133ZM11.6772 7.25C11.575 7.25 11.4831 7.31224 11.4451 7.40715L11.108 8.25H16.8924L16.5553 7.40715C16.5173 7.31224 16.4254 7.25 16.3232 7.25H11.6772ZM10.2502 13V11H11.7502V13H10.2502ZM13.2502 13V11H14.7502V13H13.2502ZM16.2502 13V11H17.7502V13H16.2502ZM10.2502 16V14H11.7502V16H10.2502ZM13.2502 16V14H14.7502V16H13.2502ZM16.2502 16V14H17.7502V16H16.2502Z" fill="black"/>
</svg>
