<svg width="24" height="24" viewBox="0 0 24 24" fill="none" xmlns="http://www.w3.org/2000/svg">
<path fill-rule="evenodd" clip-rule="evenodd" d="M8.12868 3.06117C7.93796 2.84272 7.66391 2.72856 7.39614 2.75367C6.93271 2.79713 6.51825 3.25267 6.56811 3.85023C6.59622 4.18718 6.76162 4.44939 6.98293 4.60512C7.29081 4.03267 7.67765 3.51223 8.12868 3.06117ZM9.30596 2.13342C8.82376 1.54156 8.0824 1.18274 7.2561 1.26022C5.89533 1.38783 4.9618 2.63867 5.0733 3.97496C5.1476 4.86538 5.67302 5.63522 6.41818 6.01449C6.25613 6.60144 6.16948 7.22064 6.16948 7.85884C6.16948 9.31667 6.62161 10.6754 7.39185 11.777C6.32763 12.6552 5.11828 13.747 4.56077 15.2078C4.17276 16.2244 4.12715 17.3347 4.54321 18.1642C4.75858 18.5936 5.10847 18.9609 5.60077 19.1465C5.78668 19.2165 5.97994 19.2558 6.17767 19.2672C6.22817 20.1187 6.51041 20.9068 6.96829 21.5136C7.4757 22.186 8.23263 22.6698 9.13008 22.6698C9.63649 22.6698 10.0982 22.5157 10.4955 22.2607L10.4922 22.2683C11.0952 22.5271 11.7553 22.6698 12.4459 22.6698C13.5988 22.6698 14.6586 22.2734 15.513 21.6109C15.7615 22.0175 16.1144 22.3588 16.5804 22.5634C17.3696 22.9099 18.2069 22.7435 18.8792 22.3214C19.5496 21.9006 20.1052 21.2045 20.4363 20.3569C20.7677 19.5087 20.8346 18.6114 20.6463 17.8323C20.5523 17.4432 20.3886 17.0663 20.1501 16.7442C20.2619 16.5524 20.3824 16.3003 20.4318 15.9888C20.4848 15.6551 20.449 15.3014 20.3064 14.9277C19.7727 13.5294 18.6418 12.4693 17.6126 11.6109C18.3142 10.5401 18.7225 9.24422 18.7225 7.85884C18.7225 7.24182 18.6415 6.64256 18.4896 6.07304C19.3 5.71887 19.8801 4.91396 19.9584 3.97496C20.0699 2.63867 19.1364 1.38783 17.7756 1.26022C16.9225 1.18023 16.16 1.56529 15.6797 2.19171C14.7394 1.59507 13.6351 1.2501 12.446 1.2501C11.2961 1.2501 10.2256 1.57266 9.30596 2.13342ZM16.841 3.14023C17.2753 3.58977 17.6473 4.10489 17.9431 4.66927C18.216 4.52823 18.4312 4.23897 18.4636 3.85023C18.5135 3.25267 18.099 2.79713 17.6356 2.75367C17.3372 2.72569 17.031 2.87067 16.841 3.14023ZM16.653 12.7642C16.4518 12.956 16.2387 13.1343 16.0148 13.2977C16.724 14.0089 17.2383 14.9278 17.4738 15.9569C17.9281 15.7915 18.4232 15.7464 18.9106 15.8805C18.9326 15.8311 18.9445 15.7905 18.9504 15.7536C18.9591 15.699 18.9614 15.6105 18.9049 15.4626C18.5164 14.4446 17.6581 13.6051 16.653 12.7642ZM16.1069 16.9366C16.0248 15.7497 15.453 14.7192 14.6212 14.0615C13.9457 14.3239 13.2135 14.4676 12.446 14.4676C11.6797 14.4676 10.9486 14.3243 10.274 14.0628C9.99501 14.303 9.69031 14.7015 9.41208 15.1986C9.38948 15.239 9.36727 15.2796 9.34546 15.3204C10.1486 15.3907 10.8256 15.8494 11.2919 16.4673C11.799 17.1393 12.0907 18.0338 12.0907 18.9904C12.0907 19.7454 11.909 20.4618 11.5831 21.0605C11.8596 21.132 12.1484 21.1698 12.4459 21.1698C13.456 21.1698 14.3788 20.7319 15.0499 20.0075C15.0233 19.4183 15.1254 18.7946 15.3595 18.1954C15.5448 17.7211 15.8003 17.2943 16.1069 16.9366ZM7.44277 15.9602C7.60508 15.4684 7.83336 14.948 8.10317 14.4659C8.32749 14.0652 8.59664 13.6619 8.90275 13.3163C8.72378 13.187 8.55162 13.0483 8.38687 12.9008C7.30811 13.7903 6.37279 14.6667 5.96218 15.7426C5.66989 16.5084 5.71551 17.1558 5.88402 17.4918C5.96094 17.6451 6.04948 17.7126 6.12979 17.7429C6.17331 17.7593 6.23963 17.7741 6.33451 17.7699C6.47011 17.2851 6.68577 16.8417 6.96829 16.4673C7.10823 16.2818 7.26715 16.1107 7.44277 15.9602ZM12.446 2.7501C9.84864 2.7501 7.66948 4.99551 7.66948 7.85884C7.66948 10.7222 9.84864 12.9676 12.446 12.9676C15.0433 12.9676 17.2225 10.7222 17.2225 7.85884C17.2225 4.99551 15.0433 2.7501 12.446 2.7501ZM8.16562 17.3708C7.87266 17.759 7.66948 18.3292 7.66948 18.9904C7.66948 19.6517 7.87266 20.2218 8.16562 20.61C8.45829 20.9979 8.80665 21.1698 9.13008 21.1698C9.45351 21.1698 9.80187 20.9979 10.0945 20.61C10.3875 20.2218 10.5907 19.6517 10.5907 18.9904C10.5907 18.3292 10.3875 17.759 10.0945 17.3708C9.80187 16.983 9.45351 16.8111 9.13008 16.8111C8.80665 16.8111 8.45829 16.983 8.16562 17.3708ZM17.7142 17.5012C17.3509 17.7292 16.9867 18.1526 16.7567 18.7412C16.5269 19.3292 16.4977 19.9131 16.6075 20.3676C16.7185 20.8265 16.9478 21.0865 17.1834 21.19C17.4103 21.2896 17.7204 21.2778 18.0817 21.051C18.4449 20.823 18.8092 20.3997 19.0392 19.811C19.2689 19.223 19.2982 18.6392 19.1883 18.1847C19.0774 17.7257 18.848 17.4657 18.6124 17.3623C18.3855 17.2626 18.0755 17.2744 17.7142 17.5012Z" fill="black"/>
<path d="M11.3047 7.87633C11.3047 8.29054 10.9689 8.62633 10.5547 8.62633C10.1405 8.62633 9.80473 8.29054 9.80473 7.87633C9.80473 7.46212 10.1405 7.12633 10.5547 7.12633C10.9689 7.12633 11.3047 7.46212 11.3047 7.87633Z" fill="black"/>
<path d="M14.8047 7.87633C14.8047 8.29054 14.4689 8.62633 14.0547 8.62633C13.6405 8.62633 13.3047 8.29054 13.3047 7.87633C13.3047 7.46212 13.6405 7.12633 14.0547 7.12633C14.4689 7.12633 14.8047 7.46212 14.8047 7.87633Z" fill="black"/>
<path d="M13.0976 9.12633H11.5118C11.0664 9.12633 10.8433 9.6649 11.1583 9.97988L11.9512 10.7728C12.1464 10.968 12.463 10.968 12.6583 10.7728L13.4512 9.97988C13.7662 9.6649 13.5431 9.12633 13.0976 9.12633Z" fill="black"/>
</svg>
