<svg width="24" height="24" viewBox="0 0 24 24" fill="none" xmlns="http://www.w3.org/2000/svg">
<path fill-rule="evenodd" clip-rule="evenodd" d="M7.81818 3.75C7.68011 3.75 7.56818 3.86193 7.56818 4L7.56818 8.55H17.4318L17.4318 4C17.4318 3.86193 17.3199 3.75 17.1818 3.75H7.81818ZM17.6583 10.05H7.34169L6.07448 13.5H18.9255L17.6583 10.05ZM19.25 15H5.75V18.9H19.25L19.25 15ZM19.25 20.4H5.75V21H4.25V14.1166L6.06818 9.16662L6.06818 4C6.06818 3.0335 6.85168 2.25 7.81818 2.25H17.1818C18.1483 2.25 18.9318 3.0335 18.9318 4L18.9318 9.16662L20.75 14.1166L20.75 21H19.25V20.4Z" fill="black"/>
<path fill-rule="evenodd" clip-rule="evenodd" d="M9.25 7C9.25 6.0335 10.0335 5.25 11 5.25H14C14.9665 5.25 15.75 6.0335 15.75 7V8C15.75 8.9665 14.9665 9.75 14 9.75H11C10.0335 9.75 9.25 8.9665 9.25 8V7ZM11 6.75C10.8619 6.75 10.75 6.86193 10.75 7V8C10.75 8.13807 10.8619 8.25 11 8.25H14C14.1381 8.25 14.25 8.13807 14.25 8V7C14.25 6.86193 14.1381 6.75 14 6.75H11Z" fill="black"/>
</svg>
