<svg width="24" height="24" viewBox="0 0 24 24" fill="none" xmlns="http://www.w3.org/2000/svg">
<path fill-rule="evenodd" clip-rule="evenodd" d="M4.81818 3.75C4.68011 3.75 4.56818 3.86193 4.56818 4L4.56818 8.55H19.4318V4C19.4318 3.86193 19.3199 3.75 19.1818 3.75H4.81818ZM19.6583 10.05H4.34169L3.07448 13.5H20.9255L19.6583 10.05ZM21.25 15H2.75V18.9H21.25L21.25 15ZM21.25 20.4H2.75V21H1.25V14.1166L3.06818 9.16662L3.06818 4C3.06818 3.0335 3.85168 2.25 4.81818 2.25H19.1818C20.1483 2.25 20.9318 3.0335 20.9318 4V9.16661L22.75 14.1166L22.75 21H21.25V20.4Z" fill="black"/>
<path fill-rule="evenodd" clip-rule="evenodd" d="M6.25 7C6.25 6.0335 7.0335 5.25 8 5.25H11C11.9665 5.25 12.75 6.0335 12.75 7V8C12.75 8.9665 11.9665 9.75 11 9.75H8C7.0335 9.75 6.25 8.9665 6.25 8V7ZM8 6.75C7.86193 6.75 7.75 6.86193 7.75 7V8C7.75 8.13807 7.86193 8.25 8 8.25H11C11.1381 8.25 11.25 8.13807 11.25 8V7C11.25 6.86193 11.1381 6.75 11 6.75H8Z" fill="black"/>
<path fill-rule="evenodd" clip-rule="evenodd" d="M11.25 7C11.25 6.0335 12.0335 5.25 13 5.25H16C16.9665 5.25 17.75 6.0335 17.75 7V8C17.75 8.9665 16.9665 9.75 16 9.75H13C12.0335 9.75 11.25 8.9665 11.25 8V7ZM13 6.75C12.8619 6.75 12.75 6.86193 12.75 7V8C12.75 8.13807 12.8619 8.25 13 8.25H16C16.1381 8.25 16.25 8.13807 16.25 8V7C16.25 6.86193 16.1381 6.75 16 6.75H13Z" fill="black"/>
</svg>
