<svg width="24" height="24" viewBox="0 0 24 24" fill="none" xmlns="http://www.w3.org/2000/svg">
<path fill-rule="evenodd" clip-rule="evenodd" d="M6 13.75C4.75736 13.75 3.75 14.7574 3.75 16C3.75 17.2426 4.75736 18.25 6 18.25C7.24264 18.25 8.25 17.2426 8.25 16C8.25 14.7574 7.24264 13.75 6 13.75ZM2.25 16C2.25 13.9289 3.92893 12.25 6 12.25C8.07107 12.25 9.75 13.9289 9.75 16C9.75 18.0711 8.07107 19.75 6 19.75C3.92893 19.75 2.25 18.0711 2.25 16Z" fill="black"/>
<path fill-rule="evenodd" clip-rule="evenodd" d="M14 5.25H16.6149L17.8339 11.3454L10.792 16.0401L8.48644 12.5817L6.66459 11.6708L7.33541 10.3292L9.1323 11.2276L10.25 11.0879V9.20724L8.76283 8.71151L9.23717 7.28849L12.2372 8.28849L12 9.75H11.75V10.9004L16.1063 10.3559L15.3851 6.75H14V5.25ZM13.9405 12.1383L10.2972 12.5937L11.208 13.9599L13.9405 12.1383Z" fill="black"/>
<path fill-rule="evenodd" clip-rule="evenodd" d="M18 13.75C16.7574 13.75 15.75 14.7574 15.75 16C15.75 17.2426 16.7574 18.25 18 18.25C19.2426 18.25 20.25 17.2426 20.25 16C20.25 14.7574 19.2426 13.75 18 13.75ZM14.25 16C14.25 13.9289 15.9289 12.25 18 12.25C20.0711 12.25 21.75 13.9289 21.75 16C21.75 18.0711 20.0711 19.75 18 19.75C15.9289 19.75 14.25 18.0711 14.25 16Z" fill="black"/>
</svg>
