<svg width="24" height="24" viewBox="0 0 24 24" fill="none" xmlns="http://www.w3.org/2000/svg">
<path fill-rule="evenodd" clip-rule="evenodd" d="M2.25 2.25H21.75V18C21.75 20.0711 20.0711 21.75 18 21.75H6C3.92893 21.75 2.25 20.0711 2.25 18V2.25ZM3.75 3.75V18C3.75 19.2426 4.75736 20.25 6 20.25H18C19.2426 20.25 20.25 19.2426 20.25 18V3.75H3.75Z" fill="black"/>
<path fill-rule="evenodd" clip-rule="evenodd" d="M21 7.75H3V6.25H21V7.75Z" fill="black"/>
<path fill-rule="evenodd" clip-rule="evenodd" d="M7.25 5L7.25 1L8.75 1L8.75 5L7.25 5Z" fill="black"/>
<path fill-rule="evenodd" clip-rule="evenodd" d="M15.25 5L15.25 1L16.75 1L16.75 5L15.25 5Z" fill="black"/>
<path d="M15.5 16.4989C15.24 16.4989 14.98 16.3889 14.79 16.2089C14.7 16.1189 14.63 16.0089 14.58 15.8789C14.53 15.7589 14.5 15.6289 14.5 15.4989C14.5 15.3689 14.53 15.2389 14.58 15.1189C14.63 14.9889 14.7 14.8789 14.79 14.7889C15.02 14.5589 15.37 14.4489 15.69 14.5189C15.76 14.5289 15.82 14.5489 15.88 14.5789C15.94 14.5989 16 14.629 16.06 14.669C16.11 14.6989 16.16 14.7489 16.21 14.7889C16.39 14.9789 16.5 15.2389 16.5 15.4989C16.5 15.7589 16.39 16.0189 16.21 16.2089C16.02 16.3889 15.76 16.4989 15.5 16.4989Z" fill="black"/>
<path d="M12 16.499C11.74 16.499 11.48 16.389 11.29 16.209C11.11 16.019 11 15.759 11 15.499C11 15.369 11.03 15.239 11.08 15.119C11.13 14.989 11.2 14.879 11.29 14.789C11.66 14.419 12.34 14.419 12.71 14.789C12.8 14.879 12.87 14.989 12.92 15.119C12.97 15.239 13 15.369 13 15.499C13 15.759 12.89 16.019 12.71 16.209C12.52 16.389 12.26 16.499 12 16.499Z" fill="black"/>
<path d="M8.5 16.499C8.37 16.499 8.24 16.469 8.12 16.419C8 16.369 7.89 16.299 7.79 16.209C7.61 16.019 7.5 15.759 7.5 15.499C7.5 15.369 7.53 15.239 7.58 15.119C7.63 14.989 7.7 14.879 7.79 14.789C8.16 14.419 8.84 14.419 9.21 14.789C9.39 14.979 9.5 15.239 9.5 15.499C9.5 15.759 9.39 16.019 9.21 16.209C9.02 16.389 8.76 16.499 8.5 16.499Z" fill="black"/>
<path d="M15.5 12.9989C15.37 12.9989 15.24 12.9689 15.12 12.9189C14.99 12.8689 14.89 12.7989 14.79 12.7089C14.75 12.6589 14.71 12.6089 14.67 12.5589C14.63 12.4989 14.6 12.4389 14.58 12.3789C14.55 12.3189 14.53 12.2589 14.52 12.1989C14.51 12.1289 14.5 12.0589 14.5 11.9989C14.5 11.7389 14.61 11.4789 14.79 11.2889C14.89 11.1989 14.99 11.1289 15.12 11.0789C15.49 10.9189 15.93 11.0089 16.21 11.2889C16.39 11.4789 16.5 11.7389 16.5 11.9989C16.5 12.0589 16.49 12.1289 16.48 12.1989C16.47 12.2589 16.45 12.3189 16.42 12.3789C16.4 12.4389 16.37 12.4989 16.33 12.5589C16.3 12.6089 16.25 12.6589 16.21 12.7089C16.02 12.8889 15.76 12.9989 15.5 12.9989Z" fill="black"/>
<path d="M12 12.9989C11.87 12.9989 11.74 12.9689 11.62 12.9189C11.49 12.8689 11.39 12.7989 11.29 12.7089C11.11 12.5189 11 12.2689 11 11.9989C11 11.8689 11.03 11.7389 11.08 11.6189C11.13 11.4989 11.2 11.3889 11.29 11.2889C11.39 11.1989 11.49 11.1289 11.62 11.0789C11.98 10.9189 12.43 11.0089 12.71 11.2889C12.89 11.4789 13 11.7389 13 11.9989C13 12.0589 12.99 12.1289 12.98 12.1989C12.97 12.2589 12.95 12.3189 12.92 12.3789C12.9 12.4389 12.87 12.4989 12.83 12.5589C12.8 12.6089 12.75 12.6589 12.71 12.7089C12.52 12.8889 12.26 12.9989 12 12.9989Z" fill="black"/>
<path d="M8.5 12.9991C8.37 12.9991 8.24 12.9691 8.12 12.9191C7.99 12.8691 7.89 12.7991 7.79 12.7091C7.61 12.5191 7.5 12.2691 7.5 11.9991C7.5 11.8691 7.53 11.7391 7.58 11.6191C7.63 11.4991 7.7 11.3891 7.79 11.2891C7.89 11.1991 7.99 11.1291 8.12 11.0791C8.48 10.9291 8.93 11.0091 9.21 11.2891C9.39 11.4791 9.5 11.7391 9.5 11.9991C9.5 12.0591 9.49 12.1291 9.48 12.1991C9.47 12.2591 9.45 12.3191 9.42 12.3791C9.4 12.4391 9.37 12.4991 9.33 12.5591C9.3 12.6091 9.25 12.6591 9.21 12.7091C9.02 12.8891 8.76 12.9991 8.5 12.9991Z" fill="black"/>
</svg>
