<svg width="24" height="24" viewBox="0 0 24 24" fill="none" xmlns="http://www.w3.org/2000/svg">
<path fill-rule="evenodd" clip-rule="evenodd" d="M5 18.2499L9.5 18.2499V19.7499H5V18.2499ZM10.3236 3.7499L5 3.7499V2.2499L10.3236 2.2499C11.6258 2.2499 12.8348 2.92548 13.5173 4.03453L16.041 8.13554C16.3585 8.65137 16.8137 9.06824 17.3555 9.33911L20.5485 10.9356C21.2379 11.2803 21.7511 11.8986 21.9628 12.6398L22.6285 14.9697C23.313 17.3652 21.5142 19.7499 19.0228 19.7499H17.5V18.2499H19.0228C20.5177 18.2499 21.5969 16.8191 21.1862 15.3818L20.5206 13.0519C20.4243 12.715 20.1911 12.434 19.8777 12.2773L16.6847 10.6807C15.8929 10.2849 15.2275 9.6756 14.7635 8.92168L12.2398 4.82068C11.8303 4.15524 11.105 3.7499 10.3236 3.7499Z" fill="black"/>
<path fill-rule="evenodd" clip-rule="evenodd" d="M12.5876 8.02917C13.3629 9.19214 12.5292 10.7499 11.1315 10.7499L3 10.7499L3 9.24989L11.1315 9.24989C11.3312 9.24989 11.4503 9.02736 11.3395 8.86122L9.67283 6.36122C9.62646 6.29167 9.5484 6.24989 9.46482 6.24989L6 6.24989V4.74989L9.46482 4.74989C10.0499 4.74989 10.5963 5.04232 10.9209 5.52917L12.5876 8.02917Z" fill="black"/>
<path fill-rule="evenodd" clip-rule="evenodd" d="M2 12.2499L8.5 12.2499V13.7499L2 13.7499L2 12.2499Z" fill="black"/>
<path fill-rule="evenodd" clip-rule="evenodd" d="M7.73224 0.499793L7.73217 3.23886L6.23217 3.23882L6.23224 0.499756L7.73224 0.499793Z" fill="black"/>
<path fill-rule="evenodd" clip-rule="evenodd" d="M1 15.2499L7.5 15.2499V16.7499H1L1 15.2499Z" fill="black"/>
<path fill-rule="evenodd" clip-rule="evenodd" d="M13.5 15.7499C11.9812 15.7499 10.75 16.9811 10.75 18.4999C10.75 20.0187 11.9812 21.2499 13.5 21.2499C15.0188 21.2499 16.25 20.0187 16.25 18.4999C16.25 16.9811 15.0188 15.7499 13.5 15.7499ZM9.25 18.4999C9.25 16.1527 11.1528 14.2499 13.5 14.2499C15.8472 14.2499 17.75 16.1527 17.75 18.4999C17.75 20.8471 15.8472 22.7499 13.5 22.7499C11.1528 22.7499 9.25 20.8471 9.25 18.4999Z" fill="black"/>
<path fill-rule="evenodd" clip-rule="evenodd" d="M13.5 19.2499C13.0858 19.2499 12.75 18.9141 12.75 18.4999C12.75 18.0857 13.0858 17.7499 13.5 17.7499C13.9142 17.7499 14.25 18.0857 14.25 18.4999C14.25 18.9141 13.9142 19.2499 13.5 19.2499ZM11.25 18.4999C11.25 19.7425 12.2574 20.7499 13.5 20.7499C14.7426 20.7499 15.75 19.7425 15.75 18.4999C15.75 17.2573 14.7426 16.2499 13.5 16.2499C12.2574 16.2499 11.25 17.2573 11.25 18.4999Z" fill="black"/>
<path fill-rule="evenodd" clip-rule="evenodd" d="M17.25 12.4913V10.9999H18.75V12.4913C18.75 13.0494 19.12 13.5399 19.6566 13.6932L21.706 14.2788L21.294 15.721L19.2445 15.1355C18.0639 14.7982 17.25 13.7191 17.25 12.4913Z" fill="black"/>
</svg>
