<svg width="100" height="100" viewBox="0 0 100 100" fill="none" xmlns="http://www.w3.org/2000/svg">
<path fill-rule="evenodd" clip-rule="evenodd" d="M24.2262 58.75C23.0439 58.75 21.9549 59.3921 21.3825 60.4266L18.0659 66.421C17.3318 67.7479 15.935 68.5714 14.4185 68.5714C12.9447 68.5714 11.75 69.7662 11.75 71.2399V79C11.75 80.7949 13.2051 82.25 15 82.25H16.434V83.75H15C12.3766 83.75 10.25 81.6234 10.25 79V71.2399C10.25 68.9377 12.1163 67.0714 14.4185 67.0714C15.3893 67.0714 16.2835 66.5442 16.7534 65.6948L20.07 59.7004C20.9065 58.1884 22.4982 57.25 24.2262 57.25H49.7475C50.9348 57.25 52.0791 57.6947 52.9548 58.4964L64.309 68.8905L73.7511 69.9986C75.8875 70.2494 77.8024 71.127 79.3294 72.4286H79.3774V72.4697C81.8313 74.587 83.2683 77.8055 82.9872 81.2695C82.8735 82.6708 81.7032 83.75 80.2973 83.75H74.4906V82.25H80.2973C80.9218 82.25 81.4416 81.7706 81.4921 81.1482C81.531 80.6697 81.5316 80.1967 81.4964 79.7321H78.4717V78.2321H81.2534C81.1522 77.8286 81.0235 77.4349 80.8692 77.0536H78.9192C78.0944 77.0536 77.3321 76.6143 76.9185 75.9007C76.3028 74.8384 76.6395 73.5915 77.4914 72.9188C76.3518 72.1637 75.0234 71.6583 73.5763 71.4884L63.9373 70.3571H46.1651V82.25H61.3585V83.75H30.0189V82.25H44.6651V70.3571H26.2736C22.6868 70.3571 20.3941 66.5342 22.0833 63.3701L22.3407 62.888C23.1665 61.3411 24.7774 60.375 26.531 60.375H52.7855L51.942 59.6028C51.3428 59.0542 50.5599 58.75 49.7475 58.75H24.2262ZM54.4241 61.875H46.1651V65.5893H44.6651V61.875H29.4104V68.8571H62.0511L54.4241 61.875ZM27.9104 68.8571V61.875H26.531C25.3312 61.875 24.229 62.536 23.6639 63.5944L23.4065 64.0765C22.2508 66.2414 23.8195 68.8571 26.2736 68.8571H27.9104ZM78.7668 73.9424C78.2325 74.0415 77.9286 74.6523 78.2163 75.1485C78.3616 75.3992 78.6294 75.5536 78.9192 75.5536H80.0911C79.7134 74.9674 79.2688 74.4265 78.7668 73.9424Z" fill="black"/>
<path fill-rule="evenodd" clip-rule="evenodd" d="M68 74.75C64.5482 74.75 61.75 77.5482 61.75 81C61.75 84.4518 64.5482 87.25 68 87.25C71.4518 87.25 74.25 84.4518 74.25 81C74.25 77.5482 71.4518 74.75 68 74.75ZM60.25 81C60.25 76.7198 63.7198 73.25 68 73.25C72.2802 73.25 75.75 76.7198 75.75 81C75.75 85.2802 72.2802 88.75 68 88.75C63.7198 88.75 60.25 85.2802 60.25 81Z" fill="black"/>
<path fill-rule="evenodd" clip-rule="evenodd" d="M23 74.75C19.5482 74.75 16.75 77.5482 16.75 81C16.75 84.4518 19.5482 87.25 23 87.25C26.4518 87.25 29.25 84.4518 29.25 81C29.25 77.5482 26.4518 74.75 23 74.75ZM15.25 81C15.25 76.7198 18.7198 73.25 23 73.25C27.2802 73.25 30.75 76.7198 30.75 81C30.75 85.2802 27.2802 88.75 23 88.75C18.7198 88.75 15.25 85.2802 15.25 81Z" fill="black"/>
<path fill-rule="evenodd" clip-rule="evenodd" d="M23 87.25H89V88.75H23V87.25Z" fill="black"/>
<path fill-rule="evenodd" clip-rule="evenodd" d="M26 36.9298L30.535 41.5458L29.465 42.597L26.75 39.8336V41.7647L30.535 45.6172L29.465 46.6685L26.75 43.905V45.8361L30.535 49.6887L29.465 50.7399L26.75 47.9764V58H25.25V52.0479L22.535 54.8113L21.465 53.7601L25.25 49.9075V47.9764L22.535 50.7399L21.465 49.6887L25.25 45.8361V43.905L22.535 46.6685L21.465 45.6172L25.25 41.7647V39.8336L22.535 42.597L21.465 41.5458L26 36.9298Z" fill="black"/>
<path fill-rule="evenodd" clip-rule="evenodd" d="M73 53.8696L76.5611 57.8856L75.4388 58.8808L73.75 56.9762V58.0985L76.5611 61.2687L75.4388 62.2639L73.75 60.3594V61.4817L76.5611 64.6519L75.4388 65.6471L73.75 63.7426V71H72.25V63.7426L70.5612 65.6471L69.4388 64.6519L72.25 61.4817V60.3594L70.5611 62.2639L69.4388 61.2687L72.25 58.0985V56.9762L70.5611 58.8808L69.4388 57.8856L73 53.8696Z" fill="black"/>
<path fill-rule="evenodd" clip-rule="evenodd" d="M37 43.9043L40.5468 47.6818L39.4532 48.7086L37.75 46.8945V47.8983L40.5468 50.8771L39.4532 51.9038L37.75 50.0897V51.0935L40.5468 54.0723L39.4532 55.099L37.75 53.2849V58H36.25V53.2849L34.5468 55.099L33.4532 54.0723L36.25 51.0935V50.0897L34.5468 51.9038L33.4532 50.8771L36.25 47.8983V46.8945L34.5468 48.7086L33.4532 47.6818L37 43.9043Z" fill="black"/>
<path fill-rule="evenodd" clip-rule="evenodd" d="M48.9106 28.5111L55.9785 42.9714L52.4492 41.5887C51.6953 41.2934 50.8486 41.357 50.1472 41.7614L48.0537 42.9684C47.587 43.2374 46.9975 43.1517 46.6258 42.7591L43.4419 39.3972L48.9106 28.5111ZM42.7286 40.8254L39.6713 46.9641L38.3286 46.2954L41.8642 39.1964L47.8153 27.35C48.2723 26.4402 49.5715 26.4475 50.0185 27.362L58.1771 44.0539L69.6842 69.6928L68.3158 70.307L56.9391 44.9588L51.902 42.9854C51.5728 42.8564 51.2031 42.884 50.8964 43.0609L48.8029 44.2679C47.7343 44.8839 46.3847 44.6861 45.5366 43.7906L42.7286 40.8254Z" fill="black"/>
<path fill-rule="evenodd" clip-rule="evenodd" d="M23 78.75C21.7574 78.75 20.75 79.7574 20.75 81C20.75 82.2426 21.7574 83.25 23 83.25C24.2426 83.25 25.25 82.2426 25.25 81C25.25 79.7574 24.2426 78.75 23 78.75ZM19.25 81C19.25 78.9289 20.9289 77.25 23 77.25C25.0711 77.25 26.75 78.9289 26.75 81C26.75 83.0711 25.0711 84.75 23 84.75C20.9289 84.75 19.25 83.0711 19.25 81Z" fill="black"/>
<path fill-rule="evenodd" clip-rule="evenodd" d="M68 78.6C66.6745 78.6 65.6 79.6745 65.6 81C65.6 82.3255 66.6745 83.4 68 83.4C69.3255 83.4 70.4 82.3255 70.4 81C70.4 79.6745 69.3255 78.6 68 78.6ZM64 81C64 78.7909 65.7909 77 68 77C70.2091 77 72 78.7909 72 81C72 83.2091 70.2091 85 68 85C65.7909 85 64 83.2091 64 81Z" fill="black"/>
</svg>
