<svg width="24" height="24" viewBox="0 0 24 24" fill="none" xmlns="http://www.w3.org/2000/svg">
<path fill-rule="evenodd" clip-rule="evenodd" d="M10.618 3.75C10.5233 3.75 10.4368 3.8035 10.3944 3.8882L10.2135 4.25H13.7865L13.6056 3.8882C13.5632 3.8035 13.4767 3.75 13.382 3.75H10.618ZM15.4635 4.25L14.9472 3.21738C14.6508 2.6245 14.0448 2.25 13.382 2.25H10.618C9.95518 2.25 9.34922 2.6245 9.05279 3.21738L8.53647 4.25H8.43168C6.08721 4.25 4.0934 5.96053 3.73691 8.27773L3.34447 10.8286C2.14219 11.1226 1.25 12.2071 1.25 13.5V17.0714C1.25 17.9985 2.00152 18.75 2.92857 18.75H3.25V20.5C3.25 21.4665 4.0335 22.25 5 22.25H6C6.9665 22.25 7.75 21.4665 7.75 20.5V18.75H16.25V20.5C16.25 21.4665 17.0335 22.25 18 22.25H19C19.9665 22.25 20.75 21.4665 20.75 20.5V18.75H21.0714C21.9985 18.75 22.75 17.9985 22.75 17.0714V13.5C22.75 12.2071 21.8578 11.1226 20.6555 10.8286L20.2631 8.27773C19.9066 5.96053 17.9128 4.25 15.5683 4.25H15.4635ZM19.1258 10.75L18.7805 8.50581C18.5366 6.92036 17.1724 5.75 15.5683 5.75H8.43168C6.82757 5.75 5.46338 6.92036 5.21947 8.50582L4.87421 10.75H19.1258ZM4 12.25C3.30964 12.25 2.75 12.8096 2.75 13.5V17.0714C2.75 17.1701 2.82995 17.25 2.92857 17.25H8.75V15.25H15.25V17.25H21.0714C21.1701 17.25 21.25 17.1701 21.25 17.0714V13.5C21.25 12.8096 20.6904 12.25 20 12.25H4ZM13.75 17.25V16.75H10.25V17.25H13.75ZM19.25 18.75H17.75V20.5C17.75 20.6381 17.8619 20.75 18 20.75H19C19.1381 20.75 19.25 20.6381 19.25 20.5V18.75ZM6.25 18.75H4.75V20.5C4.75 20.6381 4.86193 20.75 5 20.75H6C6.13807 20.75 6.25 20.6381 6.25 20.5V18.75ZM9 13.25H15V14.75H9V13.25Z" fill="black"/>
<path fill-rule="evenodd" clip-rule="evenodd" d="M5 14.75C4.86193 14.75 4.75 14.8619 4.75 15C4.75 15.1381 4.86193 15.25 5 15.25C5.13807 15.25 5.25 15.1381 5.25 15C5.25 14.8619 5.13807 14.75 5 14.75ZM3.25 15C3.25 14.0335 4.0335 13.25 5 13.25C5.9665 13.25 6.75 14.0335 6.75 15C6.75 15.9665 5.9665 16.75 5 16.75C4.0335 16.75 3.25 15.9665 3.25 15Z" fill="black"/>
<path fill-rule="evenodd" clip-rule="evenodd" d="M19 14.75C18.8619 14.75 18.75 14.8619 18.75 15C18.75 15.1381 18.8619 15.25 19 15.25C19.1381 15.25 19.25 15.1381 19.25 15C19.25 14.8619 19.1381 14.75 19 14.75ZM17.25 15C17.25 14.0335 18.0335 13.25 19 13.25C19.9665 13.25 20.75 14.0335 20.75 15C20.75 15.9665 19.9665 16.75 19 16.75C18.0335 16.75 17.25 15.9665 17.25 15Z" fill="black"/>
<path fill-rule="evenodd" clip-rule="evenodd" d="M11.4801 9.57617L8.48014 12.0762L7.51986 10.9238L10.5199 8.42383L11.4801 9.57617Z" fill="black"/>
<path fill-rule="evenodd" clip-rule="evenodd" d="M16.4801 9.57617L13.4801 12.0762L12.5199 10.9238L15.5199 8.42383L16.4801 9.57617Z" fill="black"/>
</svg>
