<svg width="100" height="100" viewBox="0 0 100 100" fill="none" xmlns="http://www.w3.org/2000/svg">
<path fill-rule="evenodd" clip-rule="evenodd" d="M29.3551 22.2425C29.3063 22.2805 29.2596 22.3227 29.2157 22.3692L14.2093 38.2465C13.4713 39.0274 14.0264 40.31 15.0988 40.31H17.0393V84.25H13.9999V85.75H85.9999V84.25H83.8965C83.9039 84.1855 83.9078 84.1199 83.9078 84.0533V83.1067C83.9078 81.1234 82.299 79.5167 80.3157 79.5167H79.6446V69.0385L85.4419 75.4935L86.5579 74.4912L79.6446 66.7936V61.1271L85.4419 67.5821L86.5579 66.5798L79.6446 58.8822V53.2156L85.4419 59.6707L86.5579 58.6684L79.6446 50.9707V45.3042L85.4419 51.7592L86.5579 50.757L78.8946 42.2242L71.2314 50.757L72.3473 51.7592L78.1446 45.3042V50.9707L71.2314 58.6684L72.3473 59.6707L78.1446 53.2156V58.8822L71.2314 66.5798L72.3473 67.5821L78.1446 61.1271V79.5167H74.0195L64.4867 68.8608V50.6665L68.3858 55.0687L69.5087 54.0742L64.4867 48.4042V44.7836L68.3858 49.1859L69.5087 48.1913L64.4867 42.5213V38.9008L68.3858 43.303L69.5087 42.3084L64.4867 36.6385V33.0179L68.3858 37.4201L69.5087 36.4256L63.7367 29.9088L57.9647 36.4256L59.0876 37.4201L62.9867 33.0179V36.6385L57.9647 42.3084L59.0876 43.303L62.9867 38.9008V42.5213L57.9647 48.1913L59.0876 49.1859L62.9867 44.7837V48.2689L57.9647 53.9389L59.0876 54.9335L62.9867 50.5313V67.1841L46.4867 48.7402V42.5967H43.1709V40.31H45.1115C46.1839 40.31 46.739 39.0274 46.0009 38.2465L30.9946 22.3692C30.9507 22.3227 30.904 22.2805 30.8551 22.2425V20.43H37.2104C37.8857 20.43 38.4341 19.8828 38.4341 19.2067V16.3667C38.4341 15.6905 37.8857 15.1433 37.2104 15.1433H30.8551V14H29.3551V22.2425ZM30.8551 16.6433V18.93H36.9341V16.6433H30.8551ZM41.6709 40.31H18.5393V61.53H41.6709V40.31ZM41.6709 63.03H37.4867V84.25H41.6709V63.03ZM43.1709 84.25H44.9867V58.77H43.1709V84.25ZM43.1709 57.27H44.9867V44.0967H43.1709V57.27ZM46.4867 84.25H57.7762V69.8428L46.4867 57.1516V84.25ZM46.4867 54.8947L72.5997 84.25H82.2104C82.3199 84.25 82.4078 84.1614 82.4078 84.0533V83.1067C82.4078 81.9529 81.4716 81.0167 80.3157 81.0167H73.6841C73.4707 81.0167 73.2674 80.9258 73.1251 80.7667L46.4867 50.9899V54.8947ZM70.5921 84.25L59.2762 71.5291V84.25H70.5921ZM35.9867 84.25V82.4367H24.2236V84.25H35.9867ZM22.7236 84.25V63.03H18.5393V84.25H22.7236ZM24.2236 63.03V64.37H35.9867V63.03H24.2236ZM35.9867 65.87H24.2236V67.6833H35.9867V65.87ZM35.9867 69.1833H24.2236V70.9967H35.9867V69.1833ZM35.9867 72.4967H24.2236V74.31H35.9867V72.4967ZM35.9867 75.81H24.2236V77.6233H35.9867V75.81ZM35.9867 79.1233H24.2236V80.9367H35.9867V79.1233ZM44.4696 38.81L30.1051 23.6119L15.7407 38.81H44.4696ZM30.1051 44.0967C26.3331 44.0967 23.2762 47.1521 23.2762 50.92C23.2762 54.6879 26.3331 57.7433 30.1051 57.7433C33.8772 57.7433 36.9341 54.6879 36.9341 50.92C36.9341 47.1521 33.8772 44.0967 30.1051 44.0967ZM21.7762 50.92C21.7762 46.3226 25.5057 42.5967 30.1051 42.5967C34.7046 42.5967 38.4341 46.3226 38.4341 50.92C38.4341 55.5174 34.7046 59.2433 30.1051 59.2433C25.5057 59.2433 21.7762 55.5174 21.7762 50.92Z" fill="black"/>
</svg>
