<svg width="24" height="24" viewBox="0 0 24 24" fill="none" xmlns="http://www.w3.org/2000/svg">
<path fill-rule="evenodd" clip-rule="evenodd" d="M2.75 11.2501H13.8213L12.8296 22.1585C12.7477 23.0599 11.9919 23.7501 11.0868 23.7501H5.91321C5.00811 23.7501 4.25235 23.0599 4.1704 22.1585L3.81509 18.2501H2.75V11.2501ZM5.27872 17.782L5.66424 22.0227C5.67595 22.1515 5.78391 22.2501 5.91321 22.2501H11.0868C11.2161 22.2501 11.3241 22.1515 11.3358 22.0227L12.1787 12.7501H8.68864L6.60318 16.4576L5.27872 17.782ZM6.96761 12.7501H4.25V16.6894L5.39682 15.5426L6.96761 12.7501Z" fill="black"/>
<path fill-rule="evenodd" clip-rule="evenodd" d="M16.9743 22.2501L10.2853 1.22751L11.7147 0.772705L18.5484 22.2501H21.5V23.7501H14V22.2501H16.9743Z" fill="black"/>
<path fill-rule="evenodd" clip-rule="evenodd" d="M7.5 5.75011C7.08579 5.75011 6.75 6.08589 6.75 6.50011C6.75 6.91432 7.08579 7.25011 7.5 7.25011C7.91421 7.25011 8.25 6.91432 8.25 6.50011C8.25 6.08589 7.91421 5.75011 7.5 5.75011ZM5.25 6.50011C5.25 5.25747 6.25736 4.25011 7.5 4.25011C8.74264 4.25011 9.75 5.25747 9.75 6.50011C9.75 7.74275 8.74264 8.75011 7.5 8.75011C6.25736 8.75011 5.25 7.74275 5.25 6.50011Z" fill="black"/>
<path fill-rule="evenodd" clip-rule="evenodd" d="M6.5 10.7501C6.08579 10.7501 5.75 11.0859 5.75 11.5001H4.25C4.25 10.2575 5.25736 9.25011 6.5 9.25011C7.74264 9.25011 8.75 10.2575 8.75 11.5001H7.25C7.25 11.0859 6.91421 10.7501 6.5 10.7501Z" fill="black"/>
<path fill-rule="evenodd" clip-rule="evenodd" d="M3.5 8.75011C3.63807 8.75011 3.75 8.63818 3.75 8.50011C3.75 8.36204 3.63807 8.25011 3.5 8.25011C3.36193 8.25011 3.25 8.36204 3.25 8.50011C3.25 8.63818 3.36193 8.75011 3.5 8.75011ZM2.25 8.50011C2.25 7.80975 2.80964 7.25011 3.5 7.25011C4.19036 7.25011 4.75 7.80975 4.75 8.50011C4.75 9.19046 4.19036 9.75011 3.5 9.75011C2.80964 9.75011 2.25 9.19046 2.25 8.50011Z" fill="black"/>
</svg>
