<svg width="24" height="24" viewBox="0 0 24 24" fill="none" xmlns="http://www.w3.org/2000/svg">
<path d="M19.4279 5.68878L5.68895 19.4277C5.37601 19.7407 4.86347 19.7472 4.55835 19.4421C4.25323 19.1369 4.25971 18.6244 4.57266 18.3115L18.3116 4.57249C18.6246 4.25955 19.1371 4.25306 19.4422 4.55818C19.7473 4.8633 19.7409 5.37584 19.4279 5.68878Z" fill="black"/>
<path d="M4.57249 5.68878L18.3115 19.4277C18.6244 19.7407 19.1369 19.7472 19.4421 19.4421C19.7472 19.1369 19.7407 18.6244 19.4277 18.3115L5.68878 4.57249C5.37584 4.25955 4.8633 4.25306 4.55818 4.55818C4.25306 4.8633 4.25955 5.37584 4.57249 5.68878Z" fill="black"/>
</svg>
