<svg width="24" height="26" viewBox="0 0 24 26" fill="none" xmlns="http://www.w3.org/2000/svg">
<path d="M16.7 21.23H7.3C6.56 21.23 5.81 20.7 5.56 20.01L1.42 8.41998C0.910004 6.95998 1.28 6.28998 1.68 5.98998C2.08 5.68998 2.83 5.50998 4.09 6.40998L7.99 9.19998C8.11 9.26998 8.22 9.29998 8.3 9.27998C8.39 9.24998 8.46 9.16998 8.51 9.02998L10.27 4.33998C10.8 2.93998 11.58 2.72998 12 2.72998C12.42 2.72998 13.2 2.93998 13.73 4.33998L15.49 9.02998C15.54 9.15998 15.61 9.24998 15.7 9.27998C15.79 9.30998 15.9 9.27998 16.01 9.18998L19.67 6.57998C21.01 5.61998 21.79 5.80998 22.22 6.11998C22.64 6.43998 23.03 7.14998 22.48 8.69998L18.44 20.01C18.19 20.7 17.44 21.23 16.7 21.23ZM2.68 7.30998C2.7 7.44998 2.74 7.64998 2.84 7.90998L6.98 19.5C7.02 19.6 7.2 19.73 7.3 19.73H16.7C16.81 19.73 16.99 19.6 17.02 19.5L21.06 8.19998C21.2 7.81998 21.24 7.55998 21.25 7.40998C21.1 7.45998 20.87 7.56998 20.54 7.80998L16.88 10.42C16.38 10.77 15.79 10.88 15.26 10.72C14.73 10.56 14.3 10.14 14.08 9.56998L12.32 4.87998C12.19 4.52998 12.07 4.35998 12 4.27998C11.93 4.35998 11.81 4.52998 11.68 4.86998L9.92 9.55998C9.71 10.13 9.28 10.55 8.74 10.71C8.21 10.87 7.61 10.76 7.12 10.41L3.22 7.61998C2.99 7.45998 2.81 7.35998 2.68 7.30998Z" fill="#8CC6BF"/>
<path d="M17.5 24.25H6.5C6.09 24.25 5.75 23.91 5.75 23.5C5.75 23.09 6.09 22.75 6.5 22.75H17.5C17.91 22.75 18.25 23.09 18.25 23.5C18.25 23.91 17.91 24.25 17.5 24.25Z" fill="#8CC6BF"/>
<path d="M14.5 16.25H9.5C9.09 16.25 8.75 15.91 8.75 15.5C8.75 15.09 9.09 14.75 9.5 14.75H14.5C14.91 14.75 15.25 15.09 15.25 15.5C15.25 15.91 14.91 16.25 14.5 16.25Z" fill="#8CC6BF"/>
</svg>
