<svg width="24" height="25" viewBox="0 0 24 25" fill="none" xmlns="http://www.w3.org/2000/svg">
<path d="M16.6999 21.23H7.29994C6.55994 21.23 5.80994 20.7 5.55994 20.01L1.41993 8.41998C0.909935 6.95998 1.27993 6.28998 1.67993 5.98998C2.07993 5.68998 2.82994 5.50998 4.08994 6.40998L7.98993 9.19998C8.10993 9.26998 8.21994 9.29998 8.29994 9.27998C8.38994 9.24998 8.45994 9.16998 8.50994 9.02998L10.2699 4.33998C10.7999 2.93998 11.5799 2.72998 11.9999 2.72998C12.4199 2.72998 13.1999 2.93998 13.7299 4.33998L15.4899 9.02998C15.5399 9.15998 15.6099 9.24998 15.6999 9.27998C15.7899 9.30998 15.8999 9.27998 16.0099 9.18998L19.6699 6.57998C21.0099 5.61998 21.7899 5.80998 22.2199 6.11998C22.6399 6.43998 23.0299 7.14998 22.4799 8.69998L18.4399 20.01C18.1899 20.7 17.4399 21.23 16.6999 21.23ZM2.67994 7.30998C2.69994 7.44998 2.73993 7.64998 2.83993 7.90998L6.97994 19.5C7.01994 19.6 7.19994 19.73 7.29994 19.73H16.6999C16.8099 19.73 16.9899 19.6 17.0199 19.5L21.0599 8.19998C21.1999 7.81998 21.2399 7.55998 21.2499 7.40998C21.0999 7.45998 20.8699 7.56998 20.5399 7.80998L16.8799 10.42C16.3799 10.77 15.7899 10.88 15.2599 10.72C14.7299 10.56 14.2999 10.14 14.0799 9.56998L12.3199 4.87998C12.1899 4.52998 12.0699 4.35998 11.9999 4.27998C11.9299 4.35998 11.8099 4.52998 11.6799 4.86998L9.91994 9.55998C9.70994 10.13 9.27993 10.55 8.73993 10.71C8.20994 10.87 7.60993 10.76 7.11994 10.41L3.21994 7.61998C2.98994 7.45998 2.80994 7.35998 2.67994 7.30998Z" fill="black"/>
<path d="M17.4999 24.25H6.49994C6.08994 24.25 5.74994 23.91 5.74994 23.5C5.74994 23.09 6.08994 22.75 6.49994 22.75H17.4999C17.9099 22.75 18.2499 23.09 18.2499 23.5C18.2499 23.91 17.9099 24.25 17.4999 24.25Z" fill="black"/>
<path d="M14.4999 16.25H9.49994C9.08994 16.25 8.74994 15.91 8.74994 15.5C8.74994 15.09 9.08994 14.75 9.49994 14.75H14.4999C14.9099 14.75 15.2499 15.09 15.2499 15.5C15.2499 15.91 14.9099 16.25 14.4999 16.25Z" fill="black"/>
</svg>
