<svg width="24" height="24" viewBox="0 0 24 24" fill="none" xmlns="http://www.w3.org/2000/svg">
<path fill-rule="evenodd" clip-rule="evenodd" d="M5.18408 2.25H14.8159L14.7143 3.45471C18.7824 4.64246 21.75 8.42879 21.75 12.9091C21.75 17.3117 18.8848 21.043 14.9268 22.2987L14.4732 20.8689C17.818 19.8078 20.25 16.6477 20.25 12.9091C20.25 9.21167 17.8716 6.08119 14.5852 4.98567L14.3995 7.18763C16.7852 8.19826 18.3616 10.6678 18.1397 13.406C17.8636 16.8144 14.9013 19.3686 11.5088 19.0937C11.2505 19.0728 10.9973 19.0361 10.75 18.9846V21.155C11.1576 21.2176 11.575 21.25 12 21.25H13.1111V22.75H6.88889V21.291C6.74077 21.1988 6.59528 21.1027 6.45258 21.0029C3.91299 19.2266 2.25 16.2627 2.25 12.9091C2.25 10.0518 3.45757 7.47656 5.38579 5.67876L5.48197 5.78191L5.18408 2.25ZM5.63543 7.60153C4.45758 9.04339 3.75 10.8918 3.75 12.9091C3.75 15.7564 5.16014 18.2684 7.31232 19.7737C7.90649 20.1893 8.55698 20.528 9.25 20.7756V18.46C7.07319 17.3602 5.66985 15.0053 5.8799 12.4128C5.90856 12.059 5.96623 11.714 6.05051 11.3801C5.96369 11.0996 5.90569 10.8059 5.88008 10.5022L5.63543 7.60153ZM7.37839 13.3519C7.50118 14.7138 8.20443 15.9223 9.25 16.7014V14.2212C8.55004 14.0927 7.90945 13.7876 7.37839 13.3519ZM10.75 14.2212V17.4409C11.0326 17.5205 11.3267 17.574 11.6299 17.5986C14.1826 17.8054 16.4342 15.8818 16.6446 13.2849C16.7989 11.3808 15.8104 9.65427 14.2644 8.78924L14.1199 10.5022C13.9608 12.3884 12.5522 13.8904 10.75 14.2212ZM13.1841 3.75H6.81592L7.37477 10.3761C7.48984 11.7405 8.63081 12.7893 10 12.7893C11.3692 12.7893 12.5102 11.7405 12.6252 10.3761L13.1841 3.75Z" fill="black"/>
</svg>
