<svg width="24" height="24" viewBox="0 0 24 24" fill="none" xmlns="http://www.w3.org/2000/svg">
<path d="M10 13.5393V13.5393C11.759 13.5393 13.2247 12.1919 13.3726 10.4391L14 3H6L6.62742 10.4391C6.77525 12.1919 8.24103 13.5393 10 13.5393V13.5393ZM10 13.5393V22M10 22H6.88889M10 22H13.1111" stroke="black" stroke-width="1.5"/>
<path d="M12 22C10.0989 22 8.33543 21.4046 6.88245 20.3883C4.53656 18.7475 3 16.0095 3 12.9091C3 10.2671 4.11575 7.88832 5.89725 6.22732M13.8 4C17.908 4.84231 21 8.51096 21 12.9091C21 16.9797 18.3514 20.4254 14.7 21.5838" stroke="black" stroke-width="1.5"/>
<path d="M6.79126 11.511C6.70975 11.821 6.65425 12.1425 6.62745 12.4733C6.38418 15.476 8.59673 18.1053 11.5693 18.3461C14.5419 18.587 17.1489 16.3481 17.3922 13.3455C17.5895 10.9099 16.1709 8.71986 14.0416 7.85105" stroke="black" stroke-width="1.5"/>
</svg>
