<svg width="100" height="100" viewBox="0 0 100 100" fill="none" xmlns="http://www.w3.org/2000/svg">
<path fill-rule="evenodd" clip-rule="evenodd" d="M13.25 14.25H43.1303V16.0954H45.8768V18.1841C47.1301 18.0235 48.4075 17.9408 49.7042 17.9408C66.3036 17.9408 79.75 31.5014 79.75 48.2169C79.75 57.7692 75.3589 66.2899 68.5003 71.8384L70.8456 80.6604C71.2257 82.09 70.3855 83.567 68.9552 83.9533C67.5226 84.3402 66.0578 83.4818 65.6772 82.0501L63.7934 74.9645C59.5909 77.2168 54.7946 78.4929 49.7042 78.4929C48.4077 78.4929 47.1302 78.4102 45.8768 78.2495V80.3383H43.1303V82.1837H34.0297L33.6122 83.7542C33.2315 85.186 31.7668 86.0443 30.3342 85.6575C28.9039 85.2712 28.0637 83.7941 28.4437 82.3645L28.4918 82.1837H13.25V14.25ZM28.8906 80.6837L31.1837 72.0586C24.1673 66.5168 19.6585 57.8965 19.6585 48.2169C19.6585 34.3182 28.9548 22.6007 41.6303 19.0462V15.75H14.75V80.6837H28.8906ZM43.1303 18.6675C43.5426 18.5748 43.9582 18.4906 44.3768 18.4152V17.5954H43.1303V18.6675ZM31.6057 70.4711L32.7885 66.0221L30.6581 68.1525L29.5974 67.0919L32.4259 64.2634L33.0817 64.9193L33.3083 64.0672C29.3905 59.9537 26.9824 54.3674 26.9824 48.2169C26.9824 35.5781 37.1498 25.3223 49.7042 25.3223C62.2587 25.3223 72.4261 35.5781 72.4261 48.2169C72.4261 54.2269 70.1267 59.6983 66.3662 63.7831L66.3563 63.774L66.6098 64.7278L67.0741 64.2635L69.9025 67.0919L68.8419 68.1525L67.0417 66.3524L68.0759 70.2422C74.2972 64.9633 78.25 57.0563 78.25 48.2169C78.25 32.3187 65.4641 19.4408 49.7042 19.4408C33.9444 19.4408 21.1585 32.3187 21.1585 48.2169C21.1585 57.185 25.2272 65.1933 31.6057 70.4711ZM65.897 62.0464C69.0341 58.3171 70.9261 53.4908 70.9261 48.2169C70.9261 36.3954 61.4192 26.8223 49.7042 26.8223C37.9893 26.8223 28.4824 36.3954 28.4824 48.2169C28.4824 53.632 30.4771 58.5755 33.7664 62.3439L34.5331 59.4599C34.8262 58.3574 35.7622 57.5949 36.8312 57.4792L37.6025 54.5781C35.5603 53.8568 34.3918 51.6626 34.9583 49.5319L38.5012 36.2056L39.9508 36.591L36.7106 48.7789L38.9812 49.3921L41.9986 38.0427L43.4482 38.4281L40.4294 49.7831L42.7 50.3964L45.9388 38.2141L47.3884 38.5995L43.8455 51.9259C43.279 54.0568 41.1776 55.3702 39.0507 54.9687L38.3121 57.7472C39.4301 58.3064 40.0348 59.5963 39.7016 60.8496L38.2679 66.2423C41.5683 68.3751 45.4922 69.6114 49.7042 69.6114C53.7914 69.6114 57.607 68.4473 60.845 66.4299C58.9437 66.2941 57.2821 64.8847 56.918 62.8897L53.4416 43.842C52.9745 41.2824 53.7519 38.651 55.5351 36.7648L56.3274 35.9268C57.2279 34.9742 58.8099 35.3893 59.1443 36.647L65.897 62.0464ZM61.2966 66.4379L61.6866 67.0399L61.5228 66.4239C61.4472 66.4306 61.3718 66.4353 61.2966 66.4379ZM62.9879 66.0963L67.1269 81.6647C67.2965 82.3029 67.9428 82.673 68.5641 82.5052C69.1877 82.3368 69.5663 81.6862 69.396 81.0458L66.495 70.1341L66.2999 70.2874L63.8293 67.1416L65.009 66.2151L65.6804 67.0701L65.2585 65.4831L62.9879 66.0963ZM64.8731 64.0334L57.6946 37.0324C57.6591 36.8987 57.5028 36.8669 57.4174 36.9573L56.6251 37.7953C55.1715 39.3329 54.5355 41.4811 54.9173 43.5727L58.3936 62.6204C58.6912 64.2508 60.3006 65.2682 61.8755 64.8429L64.8731 64.0334ZM61.8307 67.5817C58.3215 69.8173 54.1619 71.1114 49.7042 71.1114C45.367 71.1114 41.3122 69.8863 37.8641 67.7611L36.3034 73.6316C40.2987 75.777 44.8597 76.9929 49.7042 76.9929C54.667 76.9929 59.3323 75.7169 63.3968 73.4727L61.8307 67.5817ZM35.9078 75.1194L34.4285 80.6837H41.6303V77.3871C39.6312 76.8264 37.7159 76.0627 35.9078 75.1194ZM43.1303 77.7659V78.8383H44.3768V78.0183C43.9582 77.9429 43.5426 77.8586 43.1303 77.7659ZM42.2971 51.8413L36.3433 50.2334C36.1509 51.5723 36.9799 52.8687 38.2985 53.2248L39.1249 53.448C40.4431 53.804 41.8021 53.0989 42.2971 51.8413ZM50.5 20.25V24.25H49V20.25H50.5ZM53.8069 20.538L53.3295 24.5094L51.8402 24.3303L52.3176 20.3589L53.8069 20.538ZM33.2 25.7127L35.6706 28.8585L34.4909 29.785L32.0203 26.6392L33.2 25.7127ZM69.9025 28.9081L67.0741 31.7365L66.0134 30.6759L68.8419 27.8474L69.9025 28.9081ZM30.6581 27.8475L33.4865 30.6759L32.4259 31.7365L29.5975 28.9081L30.6581 27.8475ZM72.0373 31.4501L68.8915 33.9207L67.965 32.741L71.1108 30.2704L72.0373 31.4501ZM26.0802 45.9098L22.1088 45.4323L22.2879 43.9431L26.2593 44.4205L26.0802 45.9098ZM22 47.25H26V48.75H22V47.25ZM73.5 47.25H77.5V48.75H73.5V47.25ZM77.212 52.057L73.2406 51.5795L73.4197 50.0903L77.3911 50.5677L77.212 52.057ZM37.42 59.0048C36.7988 58.837 36.1525 59.2071 35.9828 59.8453L29.8934 82.75C29.7231 83.3904 30.1017 84.041 30.7253 84.2094C31.3465 84.3771 31.9929 84.0071 32.1625 83.3688L38.2519 60.4642C38.4222 59.8238 38.0436 59.1732 37.42 59.0048ZM31.5349 63.259L28.3891 65.7296L27.4626 64.5499L30.6084 62.0793L31.5349 63.259ZM47.6597 71.6698L47.1823 75.6412L45.693 75.4621L46.1704 71.4907L47.6597 71.6698ZM50.5 71.75L50.5 75.75H49L49 71.75H50.5Z" fill="black"/>
</svg>
