<svg width="24" height="24" viewBox="0 0 24 24" fill="none" xmlns="http://www.w3.org/2000/svg">
<path fill-rule="evenodd" clip-rule="evenodd" d="M22 3.75H2V2.25H22V3.75ZM2 4.97727H22V6.47727H21.6389V21.75H16.8056V10.2955H7.19444V21.75H2.36111V6.47727H2V4.97727ZM3.86111 6.47727V20.25H5.69444V8.79545H18.3056V20.25H20.1389V6.47727H3.86111Z" fill="black"/>
<path fill-rule="evenodd" clip-rule="evenodd" d="M13.8686 12.4747C14.1106 12.7212 14.1528 13.1011 13.971 13.3948C13.9397 13.4454 13.8789 13.6005 13.9697 13.9368C14.0605 14.2734 14.2915 14.7335 14.7488 15.2963L14.7544 15.3032L14.7598 15.3102C15.7488 16.5883 15.75 17.8968 15.75 18.2C15.75 20.2085 14.0215 21.75 12 21.75C9.97851 21.75 8.25 20.2085 8.25 18.2C8.25 17.5394 8.31986 17.004 8.50603 16.4357C8.68552 15.8879 8.9656 15.335 9.34053 14.6428C9.53781 14.2786 9.993 14.1432 10.3572 14.3405C10.6478 14.4979 10.7926 14.8194 10.7392 15.1279C10.7617 15.0571 10.7862 14.9823 10.813 14.9058C11.0853 14.1289 11.5969 13.1583 12.9506 12.355C13.2476 12.1787 13.6267 12.2281 13.8686 12.4747ZM10.6829 15.3101C10.6757 15.3259 10.6679 15.3417 10.6595 15.3572C10.6481 15.3782 10.6383 15.4104 10.6388 15.4547C10.6449 15.4352 10.6512 15.4145 10.6579 15.3927C10.6629 15.3761 10.6681 15.3589 10.6735 15.3412C10.6766 15.331 10.6797 15.3206 10.6829 15.3101ZM9.92421 16.9251C9.80302 17.3028 9.75 17.6711 9.75 18.2C9.75 19.2843 10.7078 20.25 12 20.25C13.2922 20.25 14.25 19.2843 14.25 18.2V18.1989C14.25 17.9915 14.25 17.1069 13.5786 16.2348C13.1271 15.6778 12.8039 15.1364 12.6158 14.6236C12.4259 14.8955 12.3132 15.1605 12.2286 15.4019C12.1842 15.5288 12.1479 15.6484 12.1095 15.7746C12.104 15.7928 12.0984 15.8112 12.0928 15.8297C12.0513 15.966 12.0013 16.1278 11.9386 16.2768C11.809 16.5843 11.5465 17.0156 10.9695 17.1222C10.5636 17.1971 10.2084 17.1044 9.92421 16.9251Z" fill="black"/>
</svg>
