<svg width="24" height="24" viewBox="0 0 24 24" fill="none" xmlns="http://www.w3.org/2000/svg">
<path fill-rule="evenodd" clip-rule="evenodd" d="M14.641 9.78342C13.3661 9.088 11.8636 8.75 11.0001 8.75C10.7067 8.75 10.2716 8.89818 9.71918 9.22821C9.18661 9.5464 8.62985 9.98159 8.115 10.4336C7.60309 10.883 7.14882 11.3347 6.82168 11.6752C6.68748 11.8149 6.57537 11.9351 6.49023 12.0279V12.4532C6.57555 12.5467 6.68814 12.6681 6.82306 12.8093C7.15024 13.1517 7.60454 13.6058 8.11649 14.0577C8.63139 14.5122 9.18817 14.9497 9.7207 15.2696C10.2732 15.6014 10.7077 15.75 11.0001 15.75C11.9099 15.75 13.4265 15.5164 14.6898 14.9422C15.9763 14.3575 16.7502 13.5499 16.7502 12.5C16.7502 11.4197 15.9374 10.4905 14.641 9.78342ZM5.64643 10.7339C5.67641 10.7024 5.70762 10.6697 5.74001 10.636C6.08659 10.2753 6.5723 9.79195 7.12536 9.30639C7.67548 8.8234 8.30869 8.32359 8.94985 7.94053C9.57118 7.56931 10.2936 7.25 11.0001 7.25C12.1366 7.25 13.8842 7.662 15.3593 8.46658C16.813 9.25948 18.2502 10.5803 18.2502 12.5C18.2502 14.4501 16.774 15.6425 15.3105 16.3078C13.8237 16.9836 12.0903 17.25 11.0001 17.25C10.2925 17.25 9.56953 16.9286 8.94834 16.5554C8.30713 16.1703 7.67394 15.6678 7.12387 15.1823C6.57084 14.6942 6.08518 14.2083 5.73862 13.8457C5.70693 13.8125 5.67637 13.7803 5.64699 13.7492L1.99023 16.504L1.99023 8.004L5.64643 10.7339ZM4.99023 12.116L3.49023 10.996L3.49023 13.496L4.99023 12.366V12.116Z" fill="black"/>
<path fill-rule="evenodd" clip-rule="evenodd" d="M13.0002 11.25H14.0002V12.75H13.0002V11.25Z" fill="black"/>
<path fill-rule="evenodd" clip-rule="evenodd" d="M12.1433 16.8859L10.6433 19.3859L9.35706 18.6141L10.8571 16.1141L12.1433 16.8859Z" fill="black"/>
<path fill-rule="evenodd" clip-rule="evenodd" d="M11.4424 4.71157L12.6924 7.71153L11.3078 8.28846L10.0578 5.2885L11.4424 4.71157Z" fill="black"/>
<path fill-rule="evenodd" clip-rule="evenodd" d="M9.65561 5.66114L10.6691 7.6611L9.33107 8.33914L8.3176 6.33917L9.65561 5.66114Z" fill="black"/>
<path fill-rule="evenodd" clip-rule="evenodd" d="M21.7502 1V18.9118C21.7502 20.8757 20.4354 22.75 18.5002 22.75C16.9598 22.75 15.8125 21.5625 15.4085 20.0876L14.3586 20.6588L13.6417 19.3412L16.7502 17.6498V18.9118C16.7502 20.359 17.674 21.25 18.5002 21.25C19.3264 21.25 20.2502 20.359 20.2502 18.9118V1H21.7502Z" fill="black"/>
</svg>
