<svg width="24" height="24" viewBox="0 0 24 24" fill="none" xmlns="http://www.w3.org/2000/svg">
<g clip-path="url(#clip0_93_6181)">
<path fill-rule="evenodd" clip-rule="evenodd" d="M18.3228 -0.127686L22.837 4.94174L21.7167 5.93928L19.0728 2.97014V5.15498L22.837 9.38216L21.7167 10.3797L19.0728 7.41055V9.59539L22.837 13.8226L21.7167 14.8201L19.0728 11.851V20.8135C19.912 20.7208 20.8849 20.5504 22.1089 20.2692L22.4448 21.731C19.1615 22.4856 17.511 22.4917 15.5354 22.2994C15.1653 22.2633 14.786 22.2207 14.3829 22.1755C12.6968 21.9862 10.5936 21.7501 6.99982 21.7501V20.2501C10.6837 20.2501 12.871 20.4959 14.5614 20.6859C14.9575 20.7305 15.3264 20.7719 15.6807 20.8064C16.3227 20.8689 16.9241 20.91 17.5728 20.9049V16.2914L14.9289 19.2605L13.8087 18.263L17.5728 14.0358V11.851L14.9289 14.8201L13.8087 13.8226L17.5728 9.59539V7.41055L14.9289 10.3797L13.8087 9.38216L17.5728 5.15498V2.97014L14.9289 5.93928L13.8087 4.94174L18.3228 -0.127686Z" fill="black"/>
<path fill-rule="evenodd" clip-rule="evenodd" d="M1.99983 14.7501H12.9994L13.7498 14.7501V15.5001C13.7498 18.9519 10.9516 21.7501 7.49982 21.7501C4.04804 21.7501 1.24982 18.9519 1.24982 15.5001V14.7501L1.99983 14.7501ZM12.1909 16.2501H2.8087C3.16829 18.5171 5.13167 20.2501 7.49982 20.2501C9.86797 20.2501 11.8314 18.5171 12.1909 16.2501Z" fill="black"/>
<path fill-rule="evenodd" clip-rule="evenodd" d="M10.2498 14.0001C10.2498 12.108 8.92767 10.7501 7.49982 10.7501C6.07198 10.7501 4.74982 12.108 4.74982 14.0001H3.24982C3.24982 11.474 5.06167 9.2501 7.49982 9.2501C9.93797 9.2501 11.7498 11.474 11.7498 14.0001H10.2498Z" fill="black"/>
<path fill-rule="evenodd" clip-rule="evenodd" d="M11.9998 0.439439L14.0302 2.46977L12.9695 3.53043L11.9998 2.56076L9.11608 5.4445L6.70027 3.99501L1.60463 10.9436L0.39502 10.0566L6.29937 2.00519L8.88356 3.5557L11.9998 0.439439Z" fill="black"/>
</g>
<defs>
<clipPath id="clip0_93_6181">
<rect width="24" height="24" fill="white"/>
</clipPath>
</defs>
</svg>
