<svg width="24" height="24" viewBox="0 0 24 24" fill="none" xmlns="http://www.w3.org/2000/svg">
<path fill-rule="evenodd" clip-rule="evenodd" d="M12 4.14575L23.3591 10.3416L22.6409 11.6585L12 5.85438L1.35914 11.6585L0.640861 10.3416L12 4.14575Z" fill="black"/>
<path fill-rule="evenodd" clip-rule="evenodd" d="M0.5 20.2501H23V21.7501H0.5V20.2501Z" fill="black"/>
<path fill-rule="evenodd" clip-rule="evenodd" d="M3.25 21.0001V11.0001H4.75V21.0001H3.25Z" fill="black"/>
<path fill-rule="evenodd" clip-rule="evenodd" d="M7.25 17.7501H4V16.2501H20V17.7501H16.75V21.0001H15.25V17.7501H12.75V21.0001H11.25V17.7501H8.75V21.0001H7.25V17.7501Z" fill="black"/>
<path fill-rule="evenodd" clip-rule="evenodd" d="M11.25 7.75007V7.00007H12.75V7.75007H18V9.25007H5.5V7.75007H11.25Z" fill="black"/>
<path fill-rule="evenodd" clip-rule="evenodd" d="M19.25 21.0001V11.0001H20.75V21.0001H19.25Z" fill="black"/>
</svg>
