<svg width="24" height="24" viewBox="0 0 24 24" fill="none" xmlns="http://www.w3.org/2000/svg">
<path fill-rule="evenodd" clip-rule="evenodd" d="M3.02393 3.25H20.9763L20.3126 5.73922C19.5246 8.69406 16.8486 10.75 13.7905 10.75H10.2098C7.15171 10.75 4.47567 8.69406 3.68772 5.73922L3.02393 3.25ZM4.97634 4.75L5.13707 5.35273C5.74993 7.65093 7.83129 9.25 10.2098 9.25H13.7905C16.169 9.25 18.2503 7.65094 18.8632 5.35273L19.0239 4.75H4.97634Z" fill="black"/>
<path fill-rule="evenodd" clip-rule="evenodd" d="M13.8687 13.4747C14.1107 13.7212 14.153 14.1011 13.9712 14.3948C13.9398 14.4454 13.879 14.6005 13.9698 14.9368C14.0606 15.2734 14.2916 15.7335 14.7489 16.2963L14.7545 16.3032L14.76 16.3102C15.7489 17.5883 15.7501 18.8968 15.7501 19.2C15.7501 21.2085 14.0216 22.75 12.0001 22.75C9.97864 22.75 8.25013 21.2085 8.25013 19.2C8.25013 18.5394 8.31999 18.004 8.50616 17.4357C8.68565 16.8879 8.96574 16.335 9.34067 15.6428C9.53795 15.2786 9.99313 15.1432 10.3573 15.3405C10.6479 15.4979 10.7928 15.8194 10.7394 16.1279C10.7618 16.0571 10.7864 15.9823 10.8132 15.9058C11.0855 15.1289 11.5971 14.1583 12.9507 13.355C13.2478 13.1787 13.6268 13.2281 13.8687 13.4747ZM10.6831 16.3101C10.6758 16.3259 10.668 16.3417 10.6596 16.3572C10.6483 16.3782 10.6384 16.4104 10.639 16.4547C10.645 16.4352 10.6513 16.4145 10.658 16.3927C10.663 16.3761 10.6683 16.3589 10.6736 16.3412C10.6767 16.331 10.6799 16.3206 10.6831 16.3101ZM9.92434 17.9251C9.80316 18.3028 9.75013 18.6711 9.75013 19.2C9.75013 20.2843 10.7079 21.25 12.0001 21.25C13.2924 21.25 14.2501 20.2843 14.2501 19.2V19.1989C14.2501 18.9915 14.2501 18.1069 13.5787 17.2348C13.1272 16.6778 12.804 16.1364 12.616 15.6236C12.4261 15.8955 12.3134 16.1605 12.2288 16.4019C12.1843 16.5288 12.148 16.6484 12.1097 16.7746C12.1041 16.7928 12.0986 16.8112 12.0929 16.8297C12.0514 16.966 12.0014 17.1278 11.9387 17.2768C11.8091 17.5843 11.5467 18.0156 10.9696 18.1222C10.5637 18.1971 10.2085 18.1044 9.92434 17.9251Z" fill="black"/>
<path fill-rule="evenodd" clip-rule="evenodd" d="M5.69244 22.2885L10.6924 10.2885L9.30783 9.71154L4.30783 21.7115L5.69244 22.2885Z" fill="black"/>
<path fill-rule="evenodd" clip-rule="evenodd" d="M18.3078 22.2885L13.3078 10.2885L14.6924 9.71154L19.6924 21.7115L18.3078 22.2885Z" fill="black"/>
</svg>
