<svg width="24" height="24" viewBox="0 0 24 24" fill="none" xmlns="http://www.w3.org/2000/svg">
<path fill-rule="evenodd" clip-rule="evenodd" d="M22 6.74991H19V5.24991L22 5.24991V6.74991ZM22 9.24991H19V7.74991H22V9.24991ZM22 11.7499H19V10.2499H22V11.7499ZM16.25 4.80157L14.75 4.90157V12.0212L16.25 12.1712V4.80157ZM13.25 11.8712V5.00157L5.04325 5.54869C3.75277 5.63472 2.75 6.70656 2.75 7.99991C2.75 9.40836 3.72034 10.6312 5.09195 10.9512L5.87304 11.1335L13.25 11.8712ZM4.94952 12.4583L4.7511 12.412C2.70061 11.9335 1.25 10.1055 1.25 7.99991C1.25 5.91687 2.86504 4.19057 4.94347 4.05201L17.75 3.19824L17.75 13.8286L10.1211 13.0658L9.94435 14.0967L11.107 14.9404L9.39539 17.2989L8.88168 20.2956C8.73765 21.1357 8.00925 21.7499 7.15684 21.7499H6.08556C5.06253 21.7499 4.25764 20.8762 4.34145 19.8566L4.94952 12.4583ZM8.62485 12.9161L6.43495 12.6971L5.8364 19.9794C5.82443 20.1251 5.93942 20.2499 6.08556 20.2499H7.15684C7.27862 20.2499 7.38267 20.1622 7.40325 20.0422L8.62485 12.9161Z" fill="black"/>
<path fill-rule="evenodd" clip-rule="evenodd" d="M4.98546 8.29908C5.01661 8.41533 5.11689 8.48917 5.22083 8.49382L5.15373 9.99232C4.40674 9.95887 3.73966 9.44527 3.53657 8.68731C3.28682 7.75524 3.83098 6.78623 4.77139 6.53425C5.71181 6.28227 6.66756 6.84937 6.91731 7.78145C6.94468 7.8836 6.96261 7.98666 6.97143 8.08955L5.47691 8.21765C5.47559 8.20226 5.47287 8.18626 5.46842 8.16967C5.4294 8.02404 5.28614 7.94924 5.15962 7.98314C5.0331 8.01704 4.94644 8.15345 4.98546 8.29908Z" fill="black"/>
</svg>
