<svg width="24" height="24" viewBox="0 0 24 24" fill="none" xmlns="http://www.w3.org/2000/svg">
<path fill-rule="evenodd" clip-rule="evenodd" d="M7.52941 5.25H19.7811L22.9304 19.75H0.677723L1.35629 18.6151L2 19C1.35629 18.6151 1.35629 18.6151 1.35629 18.6151L1.35779 18.6126L1.36058 18.608L1.36999 18.5925C1.37796 18.5794 1.38932 18.561 1.40399 18.5374C1.43332 18.4904 1.47591 18.4231 1.53116 18.3385C1.6416 18.1693 1.80292 17.9303 2.01028 17.6447C2.42403 17.0749 3.02593 16.3127 3.77745 15.5476C5.25029 14.0482 7.43622 12.3963 10 12.3963H17.9996L18 13.8963H10C8.06378 13.8963 6.2497 15.1713 4.84755 16.5987C4.27532 17.1813 3.79468 17.7658 3.42862 18.25H21.0696L18.5719 6.75H7.52941V5.25Z" fill="black"/>
<path fill-rule="evenodd" clip-rule="evenodd" d="M11.794 9.25H18V10.75H12.5589L10.6071 13.4404L9.39293 12.5596L11.794 9.25Z" fill="black"/>
<path fill-rule="evenodd" clip-rule="evenodd" d="M17 16.25H19V17.75H17V16.25Z" fill="black"/>
<path fill-rule="evenodd" clip-rule="evenodd" d="M0.5 20.25H23V21.75H0.5V20.25Z" fill="black"/>
<path fill-rule="evenodd" clip-rule="evenodd" d="M14 16.25H16V17.75H14V16.25Z" fill="black"/>
</svg>
