<svg width="24" height="24" viewBox="0 0 24 24" fill="none" xmlns="http://www.w3.org/2000/svg">
<path d="M17.0979 22C16.0447 22 14.9357 21.7488 13.7894 21.2651C12.671 20.7907 11.5433 20.1395 10.4436 19.3488C9.35322 18.5488 8.30009 17.6558 7.30289 16.6791C6.315 15.6837 5.42032 14.6326 4.62815 13.5535C3.82665 12.4372 3.1836 11.3209 2.72693 10.2419C2.24231 9.08837 2 7.97209 2 6.92093C2 6.19535 2.13048 5.50698 2.38211 4.86512C2.64306 4.20465 3.06244 3.5907 3.63094 3.06047C4.34856 2.35349 5.16869 2 6.04473 2C6.4082 2 6.78099 2.08372 7.09786 2.23256C7.46132 2.4 7.76887 2.65116 7.99254 2.98605L10.1547 6.02791C10.3504 6.29767 10.4995 6.55814 10.602 6.8186C10.7232 7.09767 10.7884 7.37674 10.7884 7.64651C10.7884 8 10.6859 8.34419 10.4902 8.66977C10.3504 8.92093 10.1361 9.1907 9.8658 9.46047L9.23206 10.1209C9.24138 10.1488 9.2507 10.1674 9.26002 10.186C9.37185 10.3814 9.59553 10.7163 10.0242 11.2186C10.4809 11.7395 10.9096 12.214 11.3383 12.6512C11.8882 13.1907 12.3448 13.6186 12.7735 13.9721C13.3048 14.4186 13.6496 14.6419 13.8546 14.7442L13.836 14.7907L14.5163 14.1209C14.8052 13.8326 15.0848 13.6186 15.3551 13.4791C15.8677 13.1628 16.52 13.107 17.1724 13.3767C17.4147 13.4791 17.6757 13.6186 17.9553 13.814L21.0494 16.0093C21.3942 16.2419 21.6459 16.5395 21.795 16.893C21.9348 17.2465 22 17.5721 22 17.8977C22 18.3442 21.8975 18.7907 21.7018 19.2093C21.5061 19.6279 21.2637 19.9907 20.9562 20.3256C20.425 20.9116 19.8472 21.3302 19.1761 21.6C18.5331 21.8605 17.8341 22 17.0979 22ZM6.04473 3.39535C5.53215 3.39535 5.05685 3.6186 4.60019 4.06512C4.17148 4.46512 3.87325 4.90233 3.68686 5.37674C3.49115 5.86047 3.39795 6.37209 3.39795 6.92093C3.39795 7.78605 3.60298 8.72558 4.01305 9.69302C4.43243 10.6791 5.01957 11.7023 5.76514 12.7256C6.51072 13.7488 7.35881 14.7442 8.29077 15.6837C9.22274 16.6047 10.2293 17.4605 11.2637 18.214C12.2703 18.9488 13.3048 19.5442 14.3299 19.9721C15.9236 20.6512 17.4147 20.8093 18.6449 20.2977C19.1202 20.1023 19.5396 19.8047 19.9217 19.3767C20.1361 19.1442 20.3038 18.893 20.4436 18.5954C20.5555 18.3628 20.6114 18.1209 20.6114 17.8791C20.6114 17.7302 20.5834 17.5814 20.5089 17.414C20.4809 17.3581 20.425 17.2558 20.2479 17.1349L17.1538 14.9395C16.9674 14.8093 16.7996 14.7163 16.6412 14.6512C16.4362 14.5674 16.3523 14.4837 16.0354 14.6791C15.849 14.7721 15.6813 14.9116 15.4949 15.0977L14.7866 15.7953C14.4231 16.1488 13.8639 16.2326 13.4352 16.0744L13.1836 15.9628C12.8015 15.7581 12.3541 15.4419 11.8602 15.0233C11.4129 14.6419 10.9282 14.1953 10.3411 13.6186C9.88444 13.1535 9.42777 12.6605 8.95247 12.1116C8.51445 11.6 8.19758 11.1628 8.00186 10.8L7.89003 10.5209C7.83411 10.307 7.81547 10.186 7.81547 10.0558C7.81547 9.72093 7.93663 9.42326 8.16962 9.1907L8.86859 8.46512C9.05499 8.27907 9.19478 8.10233 9.28798 7.94419C9.36253 7.82326 9.39049 7.72093 9.39049 7.62791C9.39049 7.55349 9.36254 7.44186 9.31594 7.33023C9.2507 7.1814 9.14818 7.01395 9.01771 6.83721L6.85555 3.78605C6.76235 3.65581 6.65051 3.56279 6.51072 3.49767C6.3616 3.43256 6.20317 3.39535 6.04473 3.39535ZM13.836 14.8L13.6869 15.4326L13.9385 14.7814C13.8919 14.7721 13.8546 14.7814 13.836 14.8Z" fill="#838E9B"/>
</svg>
