<svg width="36" height="36" viewBox="0 0 36 36" fill="none" xmlns="http://www.w3.org/2000/svg">
<path fill-rule="evenodd" clip-rule="evenodd" d="M28 1.5H8C4.41015 1.5 1.5 4.41015 1.5 8V28C1.5 31.5899 4.41015 34.5 8 34.5H28C31.5899 34.5 34.5 31.5899 34.5 28V8C34.5 4.41015 31.5899 1.5 28 1.5ZM8 0C3.58172 0 0 3.58172 0 8V28C0 32.4183 3.58172 36 8 36H28C32.4183 36 36 32.4183 36 28V8C36 3.58172 32.4183 0 28 0H8Z" fill="#838E9B"/>
<path d="M19.5872 13.292H21V11H18.8807C18.8807 11 17.5321 11 16.6972 12.115C16.6972 12.115 16.1193 12.6726 16.1193 14.4071V16.1416H14V18.6195H16.1193V25H18.4954V18.5575H20.5505L20.8716 16.0796H18.4954V14.3451C18.5596 14.1593 18.6239 13.292 19.5872 13.292Z" fill="#838E9B"/>
</svg>
