<svg width="36" height="36" viewBox="0 0 36 36" fill="none" xmlns="http://www.w3.org/2000/svg">
<path d="M21.5845 10H14.4153C11.9807 10 10 11.9808 10 14.4154V21.5846C10 24.0193 11.9807 26 14.4153 26H21.5845C24.0193 26 26 24.0192 26 21.5846V14.4154C26.0001 11.9808 24.0193 10 21.5845 10ZM24.5805 21.5846C24.5805 23.2365 23.2365 24.5804 21.5846 24.5804H14.4153C12.7635 24.5805 11.4196 23.2365 11.4196 21.5846V14.4154C11.4196 12.7636 12.7635 11.4196 14.4153 11.4196H21.5845C23.2364 11.4196 24.5804 12.7636 24.5804 14.4154L24.5805 21.5846Z" fill="#838E9B"/>
<path d="M17.9997 13.8778C15.7264 13.8778 13.877 15.7273 13.877 18.0006C13.877 20.2739 15.7264 22.1232 17.9997 22.1232C20.2731 22.1232 22.1225 20.2739 22.1225 18.0006C22.1225 15.7273 20.2731 13.8778 17.9997 13.8778ZM17.9997 20.7035C16.5093 20.7035 15.2966 19.491 15.2966 18.0005C15.2966 16.5099 16.5092 15.2973 17.9997 15.2973C19.4903 15.2973 20.7029 16.5099 20.7029 18.0005C20.7029 19.491 19.4902 20.7035 17.9997 20.7035Z" fill="#838E9B"/>
<path d="M22.2958 12.6737C22.0223 12.6737 21.7536 12.7844 21.5604 12.9784C21.3663 13.1715 21.2548 13.4403 21.2548 13.7147C21.2548 13.9883 21.3664 14.257 21.5604 14.451C21.7535 14.6441 22.0223 14.7558 22.2958 14.7558C22.5703 14.7558 22.8381 14.6441 23.0321 14.451C23.2261 14.257 23.3368 13.9883 23.3368 13.7147C23.3368 13.4403 23.2261 13.1715 23.0321 12.9784C22.839 12.7844 22.5703 12.6737 22.2958 12.6737Z" fill="#838E9B"/>
<path fill-rule="evenodd" clip-rule="evenodd" d="M28 1.5H8C4.41015 1.5 1.5 4.41015 1.5 8V28C1.5 31.5899 4.41015 34.5 8 34.5H28C31.5899 34.5 34.5 31.5899 34.5 28V8C34.5 4.41015 31.5899 1.5 28 1.5ZM8 0C3.58172 0 0 3.58172 0 8V28C0 32.4183 3.58172 36 8 36H28C32.4183 36 36 32.4183 36 28V8C36 3.58172 32.4183 0 28 0H8Z" fill="#838E9B"/>
</svg>
