<svg width="24" height="24" viewBox="0 0 24 24" fill="none" xmlns="http://www.w3.org/2000/svg">
<path fill-rule="evenodd" clip-rule="evenodd" d="M7.08839 6.09689C7.62263 4.42476 9.18562 3.25 10.99 3.25H12.609C14.4284 3.25 16.013 4.41757 16.5815 6.09689H17.9077C19.3786 6.09689 20.1933 7.80131 19.2696 8.94593L17.5181 11.1162L19.1244 19.75H4.90093L6.80444 7.59689H5.8384C5.71712 7.59689 5.61334 7.68392 5.59222 7.80334L4.7383 12.6306L3.26123 12.3694L4.11515 7.54206C4.26302 6.70614 4.98949 6.09689 5.8384 6.09689H7.08839ZM8.32272 7.59689L6.65416 18.25H17.3196L15.9789 11.044L15.3718 7.59689H8.32272ZM14.9427 6.09689H8.71359C9.15868 5.28649 10.0192 4.75 10.99 4.75H12.609C13.5944 4.75 14.4725 5.28312 14.9427 6.09689ZM16.8949 7.59689L17.17 9.15903L18.1023 8.0039C18.2342 7.84038 18.1178 7.59689 17.9077 7.59689H16.8949Z" fill="black"/>
<path fill-rule="evenodd" clip-rule="evenodd" d="M18.9998 21.75H4.99976V20.25H18.9998V21.75Z" fill="black"/>
</svg>
