<svg width="100" height="100" viewBox="0 0 100 100" fill="none" xmlns="http://www.w3.org/2000/svg">
<path fill-rule="evenodd" clip-rule="evenodd" d="M32.4453 21.9073V15H33.9453V21.9073H32.4453ZM28.4684 23.3735L25.0087 17.3916L26.3071 16.6406L29.7669 22.6225L28.4684 23.3735ZM41.3818 17.3916L37.675 23.8007L36.3765 23.0497L40.0834 16.6406L41.3818 17.3916ZM46.4005 19.4975C46.8743 18.5795 48.1968 18.6055 48.634 19.5417L56.2225 35.7953L61.4926 25.073C61.9454 24.1516 63.2572 24.1445 63.7201 25.0608L85.6772 68.5267C86.4373 68.0596 87.1477 67.6044 87.8016 67.1722V60.2936L86.1646 62.2778L85.0075 61.3232L87.8016 57.9365V56.6989L86.1646 58.6832L85.0075 57.7286L87.8016 54.3418V53.1043L86.1646 55.0886L85.0075 54.134L88.5516 49.8381L92.0956 54.134L90.9386 55.0886L89.3016 53.1043V54.3418L92.0956 57.7286L90.9386 58.6832L89.3016 56.6989V57.9365L92.0956 61.3232L90.9386 62.2778L89.3016 60.2936V66.1546C90.1716 65.5488 90.887 65.0227 91.421 64.619C91.7807 64.347 92.0579 64.1306 92.2442 63.983C92.3374 63.9091 92.4079 63.8525 92.4546 63.8147L92.5067 63.7723L92.5192 63.7621L92.522 63.7598L92.9999 64.3379C93.4772 64.9164 93.4766 64.9169 93.4766 64.9169L93.4712 64.9213L93.456 64.9338L93.3981 64.9808C93.3475 65.0218 93.273 65.0816 93.1757 65.1587C92.9811 65.3129 92.695 65.5362 92.3257 65.8154C91.5872 66.3738 90.5155 67.1564 89.1767 68.0579C86.5011 69.8595 82.7486 72.1427 78.4499 74.0591C69.905 77.8685 58.939 80.34 50.0577 74.2578C41.8135 68.6119 31.2367 69.7776 22.5592 72.4731C18.2418 73.8142 14.447 75.5183 11.7301 76.8886C10.3726 77.5733 9.28645 78.1735 8.54132 78.6014C8.16881 78.8154 7.88169 78.9862 7.68867 79.1029C7.59216 79.1613 7.51919 79.2061 7.47084 79.2361L7.41693 79.2696L7.40409 79.2776L7.40124 79.2794L6.99986 78.6459C6.59893 78.012 6.59961 78.0116 6.59961 78.0116L6.60527 78.008L6.62119 77.9981L6.68141 77.9606C6.73403 77.928 6.81141 77.8805 6.91246 77.8194C7.11456 77.6972 7.41139 77.5206 7.79424 77.3007C8.09598 77.1274 8.45125 76.9271 8.85576 76.7053L17.4414 57.5912L21.3186 49.3248C21.7662 48.3706 23.1243 48.3706 23.5719 49.3248L23.9319 50.0924L31.1234 36.1902C28.7236 35.3337 27.0085 33.0332 27.0085 30.3325C27.0085 26.9038 29.7747 24.1176 33.1953 24.1176C36.6158 24.1176 39.382 26.9038 39.382 30.3325C39.382 31.4909 39.066 32.5769 38.5155 33.5063L38.9415 33.9512L46.4005 19.4975ZM37.4246 32.3671C37.7178 31.7516 37.882 31.062 37.882 30.3325C37.882 27.7249 35.78 25.6176 33.1953 25.6176C30.6105 25.6176 28.5085 27.7249 28.5085 30.3325C28.5085 32.4574 29.9052 34.2515 31.821 34.8417L33.8176 30.982C34.2099 30.2236 35.232 30.0773 35.8219 30.6933L37.4246 32.3671ZM24.735 51.8046L32.7404 68.8732C33.2994 68.8253 33.8603 68.7891 34.4223 68.7655V58.9076L31.8002 62.1327L30.6363 61.1864L34.4223 56.5298V54.0443L31.8002 57.2694L30.6363 56.3231L34.4223 51.6665V49.181L31.8002 52.4061L30.6363 51.4598L35.1723 45.8807L39.7082 51.4598L38.5444 52.4061L35.9223 49.181V51.6665L39.7082 56.3231L38.5444 57.2694L35.9223 54.0443V56.5298L39.7082 61.1864L38.5444 62.1327L35.9223 58.9076V68.7332C37.255 68.7325 38.5897 68.808 39.9151 68.9738L55.3735 37.5226L47.4949 20.6477L39.3111 36.5059L34.9856 31.9888L24.735 51.8046ZM41.4697 69.2115C44.7578 69.8083 47.961 71.0039 50.9052 73.0202C59.101 78.6329 69.3942 76.4539 77.8392 72.689C80.2223 71.6266 82.4373 70.4468 84.388 69.3014L68.9892 38.8181L66.0703 41.8833C65.2037 42.7933 63.8267 42.9933 62.7365 42.3683L60.5802 41.132C60.2578 40.9471 59.8686 40.9181 59.5221 41.0531L54.312 43.0829L41.4697 69.2115ZM55.2906 41.0918L58.9775 39.6554C59.7466 39.3558 60.6103 39.4202 61.3263 39.8307L63.4826 41.067C63.9738 41.3486 64.5942 41.2582 64.984 40.8488L68.2712 37.3969L62.6125 26.1949L55.2906 41.0918ZM31.1614 69.039L26.463 59.0216L25.6837 59.5474C24.5933 60.2832 23.132 60.1363 22.2102 59.1977L21.3526 58.3243C21.0201 57.9857 20.5211 57.8688 20.0718 58.0251L18.6722 58.5119L11.009 75.5723C11.0242 75.5647 11.0394 75.557 11.0547 75.5493C13.8223 74.1535 17.6959 72.4131 22.1143 71.0406C24.9375 70.1636 28.0051 69.4303 31.1614 69.039ZM19.5555 56.6166L19.579 56.6084C20.5757 56.2617 21.6835 56.5205 22.4228 57.2733L23.2805 58.1467C23.6952 58.569 24.3535 58.6354 24.8448 58.304L25.8184 57.647L22.4453 50.4552L19.5555 56.6166ZM25.7582 26.6275L19.7657 23.1738L20.5147 21.8742L26.5072 25.3279L25.7582 26.6275ZM25.0401 30.7981H18.1205V29.2981H25.0401V30.7981ZM26.5072 34.7682L20.5147 38.2219L19.7657 36.9223L25.7582 33.4686L26.5072 34.7682ZM28.3269 78.8883C34.1537 77.3798 42.1639 77.3949 50.9052 83.3812L50.0577 84.6188C41.7219 78.9102 34.1695 78.9252 28.7029 80.3405C25.9591 81.0508 23.7322 82.117 22.1928 83.0051C21.4237 83.4487 20.8283 83.8467 20.4279 84.1315C20.2277 84.2738 20.0765 84.3878 19.977 84.4648C19.9272 84.5033 19.8903 84.5326 19.8667 84.5515L19.8413 84.5721L19.8361 84.5763C19.8361 84.5763 19.836 84.5764 19.3562 84C18.8763 83.4236 18.8771 83.423 18.8771 83.423L18.8782 83.422L18.8814 83.4194L18.8916 83.411L18.9273 83.3821C18.9579 83.3575 19.002 83.3225 19.0593 83.2782C19.1738 83.1897 19.3411 83.0637 19.5585 82.9091C19.993 82.6001 20.6285 82.1758 21.4433 81.7057C23.0715 80.7664 25.4241 79.6399 28.3269 78.8883Z" fill="black"/>
<path fill-rule="evenodd" clip-rule="evenodd" d="M66.8043 54.8227L71.3184 59.8921L70.1982 60.8896L67.5543 57.9205V60.1053L71.3184 64.3325L70.1982 65.33L67.5543 62.3609V64.5457L71.3184 68.7729L70.1982 69.7704L67.5543 66.8013V76.5H66.0543V66.8013L63.4104 69.7704L62.2901 68.7729L66.0543 64.5457V62.3609L63.4104 65.33L62.2901 64.3325L66.0543 60.1053V57.9205L63.4104 60.8896L62.2901 59.8921L66.8043 54.8227ZM55.9307 58.7189L59.4748 63.0148L58.3177 63.9694L56.6807 61.9851V63.2226L59.4748 66.6094L58.3177 67.564L56.6807 65.5797V66.8173L59.4748 70.204L58.3177 71.1586L56.6807 69.1744V76.5H55.1807V69.1744L53.5437 71.1586L52.3867 70.204L55.1807 66.8173V65.5797L53.5437 67.564L52.3867 66.6094L55.1807 63.2226V61.9851L53.5437 63.9694L52.3867 63.0148L55.9307 58.7189Z" fill="black"/>
</svg>
