<svg width="24" height="24" viewBox="0 0 24 24" fill="none" xmlns="http://www.w3.org/2000/svg">
<path fill-rule="evenodd" clip-rule="evenodd" d="M4.25 2.25H19.75V21.75H4.25V2.25ZM5.75 3.75V20.25H18.25V3.75H5.75Z" fill="black"/>
<path fill-rule="evenodd" clip-rule="evenodd" d="M19 6.75H5V5.25H19V6.75Z" fill="black"/>
<path fill-rule="evenodd" clip-rule="evenodd" d="M8.25 14V12H9.75V14H8.25Z" fill="black"/>
<path fill-rule="evenodd" clip-rule="evenodd" d="M12 9.75C10.2051 9.75 8.75 11.2051 8.75 13C8.75 14.7949 10.2051 16.25 12 16.25C13.7949 16.25 15.25 14.7949 15.25 13C15.25 11.2051 13.7949 9.75 12 9.75ZM7.25 13C7.25 10.3766 9.37665 8.25 12 8.25C14.6234 8.25 16.75 10.3766 16.75 13C16.75 15.6234 14.6234 17.75 12 17.75C9.37665 17.75 7.25 15.6234 7.25 13Z" fill="black"/>
</svg>
