<svg width="24" height="24" viewBox="0 0 24 24" fill="none" xmlns="http://www.w3.org/2000/svg">
<path d="M22.1538 5.75H1.84615C1.38359 5.75 1 5.41 1 5C1 4.59 1.38359 4.25 1.84615 4.25H22.1538C22.6164 4.25 23 4.59 23 5C23 5.41 22.6164 5.75 22.1538 5.75Z" fill="black"/>
<path d="M22.1538 12.75H1.84615C1.38359 12.75 1 12.41 1 12C1 11.59 1.38359 11.25 1.84615 11.25H22.1538C22.6164 11.25 23 11.59 23 12C23 12.41 22.6164 12.75 22.1538 12.75Z" fill="black"/>
<path d="M22.1538 19.75H1.84615C1.38359 19.75 1 19.41 1 19C1 18.59 1.38359 18.25 1.84615 18.25H22.1538C22.6164 18.25 23 18.59 23 19C23 19.41 22.6164 19.75 22.1538 19.75Z" fill="black"/>
</svg>
