<svg width="24" height="24" viewBox="0 0 24 24" fill="none" xmlns="http://www.w3.org/2000/svg">
<path fill-rule="evenodd" clip-rule="evenodd" d="M5.25 3.25H13.876C15.6071 3.25 16.8513 4.30372 17.6241 5.69034C18.39 7.0646 18.75 8.84373 18.75 10.5774C18.75 12.3112 18.39 14.0903 17.6241 15.4646C16.8513 16.8512 15.6071 17.9049 13.876 17.9049H9.15V22.75H5.25V3.25ZM6.75 4.75V21.25H7.65V16.4049H13.876C14.8942 16.4049 15.712 15.8142 16.3139 14.7343C16.9226 13.642 17.25 12.1325 17.25 10.5774C17.25 9.02243 16.9226 7.51284 16.3139 6.42057C15.712 5.34065 14.8942 4.75 13.876 4.75H6.75ZM7.65 5.44248H13.1256C14.3483 5.44248 15.1731 6.2721 15.6518 7.22652C16.1313 8.1824 16.35 9.40242 16.35 10.5774C16.35 11.7525 16.1313 12.9725 15.6518 13.9284C15.1731 14.8828 14.3483 15.7124 13.1256 15.7124H7.65V5.44248ZM9.15 6.94248V14.2124H13.1256C13.5525 14.2124 13.9649 13.9458 14.311 13.2558C14.6563 12.5674 14.85 11.5949 14.85 10.5774C14.85 9.55999 14.6563 8.58752 14.311 7.89904C13.9649 7.2091 13.5525 6.94248 13.1256 6.94248H9.15Z" fill="black"/>
</svg>
