<svg width="24" height="24" viewBox="0 0 24 24" fill="none" xmlns="http://www.w3.org/2000/svg">
<path fill-rule="evenodd" clip-rule="evenodd" d="M0.5 20.2501H23V21.7501H0.5V20.2501Z" fill="black"/>
<path fill-rule="evenodd" clip-rule="evenodd" d="M3.25 21.0001V7.68945L8 2.93945L12.75 7.68945V21.0001H11.25V8.31077L8 5.06077L4.75 8.31077V21.0001H3.25Z" fill="black"/>
<path fill-rule="evenodd" clip-rule="evenodd" d="M14.5843 13.7501H12V12.2501H15.4157L20.636 20.6026L19.364 21.3976L14.5843 13.7501Z" fill="black"/>
<path fill-rule="evenodd" clip-rule="evenodd" d="M8 8.75011C7.30964 8.75011 6.75 9.30976 6.75 10.0001C6.75 10.6905 7.30964 11.2501 8 11.2501C8.69036 11.2501 9.25 10.6905 9.25 10.0001C9.25 9.30976 8.69036 8.75011 8 8.75011ZM5.25 10.0001C5.25 8.48133 6.48122 7.25011 8 7.25011C9.51878 7.25011 10.75 8.48133 10.75 10.0001C10.75 11.5189 9.51878 12.7501 8 12.7501C6.48122 12.7501 5.25 11.5189 5.25 10.0001Z" fill="black"/>
<path fill-rule="evenodd" clip-rule="evenodd" d="M5.25 14.2501H10.75V20.5001H9.25V15.7501H6.75V20.5001H5.25V14.2501Z" fill="black"/>
</svg>
