<svg width="100" height="100" viewBox="0 0 100 100" fill="none" xmlns="http://www.w3.org/2000/svg">
<path fill-rule="evenodd" clip-rule="evenodd" d="M44.9885 52.7501H39.9738V51.2501H57.237V52.7501H52.2223L50.0855 55.6639H81.6186C85.6952 55.6639 89.2318 58.4791 90.1458 62.452L92.9168 74.4962C93.9369 74.7459 94.7296 75.6041 94.862 76.6879L95.2051 79.4953C95.5465 82.2881 93.3671 84.7501 90.5535 84.7501H83.6712V83.2501H90.5535C92.2413 83.2501 93.5934 81.9471 93.729 80.3363H91.0133V76.7085L91.5252 75.1379L88.684 62.7883C87.9266 59.4965 84.9964 57.1639 81.6186 57.1639H39.919C38.3169 57.1639 36.7423 57.5799 35.3494 58.3713L34.0456 59.1121H41.3686C43.9919 59.1121 46.1186 61.2388 46.1186 63.8621V64.5518C46.1186 67.1751 43.9919 69.3018 41.3686 69.3018H16.4176L16.289 69.3676C14.9566 70.0489 14.0466 71.3193 13.8108 72.7673H45.0253C47.2678 72.7673 49.0857 74.5852 49.0857 76.8276H47.5857C47.5857 75.4136 46.4394 74.2673 45.0253 74.2673H13.7502V76.0001C13.7502 80.0041 16.9961 83.2501 21.0002 83.2501H62.4212V75.1725H63.9212V83.2501H70.1844V84.7501H21.0002C16.1677 84.7501 12.2502 80.8326 12.2502 76.0001V73.5173C12.2502 71.2038 13.5462 69.0853 15.6061 68.0321L15.8757 67.8942L24.7678 62.6582L34.6084 57.0671C36.2272 56.1474 38.0571 55.6639 39.919 55.6639H47.1254L44.9885 52.7501ZM46.8486 52.7501L48.6054 55.1456L50.3622 52.7501H46.8486ZM18.9888 67.8018H41.3686C43.1635 67.8018 44.6186 66.3467 44.6186 64.5518V63.8621C44.6186 62.0672 43.1635 60.6121 41.3686 60.6121H31.4056L25.5139 63.9596L18.9888 67.8018ZM92.8065 76.0472L92.5133 76.9468V78.8363H93.6134L93.3731 76.8699C93.329 76.5088 93.1096 76.2076 92.8065 76.0472ZM83.6712 72.7673H87.987V74.2673H83.6712V72.7673Z" fill="black"/>
<path fill-rule="evenodd" clip-rule="evenodd" d="M21.7502 84.0001C21.7502 85.6475 23.4881 87.2501 26.0002 87.2501C28.5122 87.2501 30.2502 85.6475 30.2502 84.0001H31.7502C31.7502 86.7709 29.011 88.7501 26.0002 88.7501C22.9893 88.7501 20.2502 86.7709 20.2502 84.0001H21.7502Z" fill="black"/>
<path fill-rule="evenodd" clip-rule="evenodd" d="M33.7502 84.0001C33.7502 85.7144 35.3436 87.2501 37.5002 87.2501C39.6567 87.2501 41.2502 85.7144 41.2502 84.0001H42.7502C42.7502 86.704 40.3142 88.7501 37.5002 88.7501C34.6861 88.7501 32.2502 86.704 32.2502 84.0001H33.7502Z" fill="black"/>
<path fill-rule="evenodd" clip-rule="evenodd" d="M45.7502 84.0001C45.7502 85.7144 47.3436 87.2501 49.5002 87.2501C51.6567 87.2501 53.2502 85.7144 53.2502 84.0001H54.7502C54.7502 86.704 52.3142 88.7501 49.5002 88.7501C46.6861 88.7501 44.2502 86.704 44.2502 84.0001H45.7502Z" fill="black"/>
<path fill-rule="evenodd" clip-rule="evenodd" d="M5.00016 87.2501H49.0002V88.7501H5.00016V87.2501Z" fill="black"/>
<path fill-rule="evenodd" clip-rule="evenodd" d="M48.2502 61.0001C48.2502 60.0336 49.0337 59.2501 50.0002 59.2501H55.0002C55.9667 59.2501 56.7502 60.0336 56.7502 61.0001V68.0001C56.7502 68.9666 55.9667 69.7501 55.0002 69.7501H50.0002C49.0337 69.7501 48.2502 68.9666 48.2502 68.0001V61.0001ZM50.0002 60.7501C49.8621 60.7501 49.7502 60.862 49.7502 61.0001V68.0001C49.7502 68.1381 49.8621 68.2501 50.0002 68.2501H55.0002C55.1382 68.2501 55.2502 68.1381 55.2502 68.0001V61.0001C55.2502 60.862 55.1382 60.7501 55.0002 60.7501H50.0002Z" fill="black"/>
<path fill-rule="evenodd" clip-rule="evenodd" d="M59.2502 61.0001C59.2502 60.0336 60.0337 59.2501 61.0002 59.2501H66.0002C66.9667 59.2501 67.7502 60.0336 67.7502 61.0001V68.0001C67.7502 68.9666 66.9667 69.7501 66.0002 69.7501H61.0002C60.0337 69.7501 59.2502 68.9666 59.2502 68.0001V61.0001ZM61.0002 60.7501C60.8621 60.7501 60.7502 60.862 60.7502 61.0001V68.0001C60.7502 68.1381 60.8621 68.2501 61.0002 68.2501H66.0002C66.1382 68.2501 66.2502 68.1381 66.2502 68.0001V61.0001C66.2502 60.862 66.1382 60.7501 66.0002 60.7501H61.0002Z" fill="black"/>
<path fill-rule="evenodd" clip-rule="evenodd" d="M70.2502 61.0001C70.2502 60.0336 71.0337 59.2501 72.0002 59.2501H77.0002C77.9667 59.2501 78.7502 60.0336 78.7502 61.0001V68.0001C78.7502 68.9666 77.9667 69.7501 77.0002 69.7501H72.0002C71.0337 69.7501 70.2502 68.9666 70.2502 68.0001V61.0001ZM72.0002 60.7501C71.8621 60.7501 71.7502 60.862 71.7502 61.0001V68.0001C71.7502 68.1381 71.8621 68.2501 72.0002 68.2501H77.0002C77.1382 68.2501 77.2502 68.1381 77.2502 68.0001V61.0001C77.2502 60.862 77.1382 60.7501 77.0002 60.7501H72.0002Z" fill="black"/>
<path fill-rule="evenodd" clip-rule="evenodd" d="M81.4455 61.2773C81.2748 60.2138 82.0963 59.2501 83.1734 59.2501H88.4707V60.7501H83.1734C83.0195 60.7501 82.9022 60.8877 82.9265 61.0397L84.3704 70.0397C84.3898 70.1609 84.4944 70.2501 84.6172 70.2501H92.0002V71.7501H84.6172C83.7577 71.7501 83.0255 71.1259 82.8893 70.2773L81.4455 61.2773Z" fill="black"/>
<path fill-rule="evenodd" clip-rule="evenodd" d="M77.0002 74.7501C73.5484 74.7501 70.7502 77.5483 70.7502 81.0001C70.7502 84.4518 73.5484 87.2501 77.0002 87.2501C80.4519 87.2501 83.2502 84.4518 83.2502 81.0001C83.2502 77.5483 80.4519 74.7501 77.0002 74.7501ZM69.2502 81.0001C69.2502 76.7198 72.7199 73.2501 77.0002 73.2501C81.2804 73.2501 84.7502 76.7198 84.7502 81.0001C84.7502 85.2803 81.2804 88.7501 77.0002 88.7501C72.7199 88.7501 69.2502 85.2803 69.2502 81.0001Z" fill="black"/>
<path fill-rule="evenodd" clip-rule="evenodd" d="M26.0002 43.7657L29.5958 48.4657L28.4045 49.3772L26.7502 47.2147V48.6675L29.5958 52.3871L28.4045 53.2986L26.7502 51.1361V52.5889L29.5958 56.3085L28.4045 57.22L26.7502 55.0575V63.0001H25.2502V55.0575L23.5958 57.22L22.4045 56.3086L25.2502 52.5889V51.1361L23.5958 53.2986L22.4045 52.3871L25.2502 48.6675V47.2147L23.5958 49.3772L22.4045 48.4657L26.0002 43.7657Z" fill="black"/>
<path fill-rule="evenodd" clip-rule="evenodd" d="M8.00015 68.7885L11.5892 73.3418L10.4111 74.2704L8.75015 72.1631V73.5461L11.5892 77.1479L10.4111 78.0765L8.75015 75.9692V77.3521L11.5892 80.954L10.4111 81.8825L8.75015 79.7753V88.0001H7.25015V79.7753L5.58918 81.8825L4.41113 80.954L7.25015 77.3521V75.9692L5.58918 78.0765L4.41113 77.1479L7.25015 73.5461V72.1631L5.58918 74.2704L4.41113 73.3418L8.00015 68.7885Z" fill="black"/>
<path fill-rule="evenodd" clip-rule="evenodd" d="M75.0002 32.8408L79.572 38.2291L78.4283 39.1996L75.7502 36.0432V38.439L79.572 42.9434L78.4283 43.9139L75.7502 40.7575V43.1533L79.572 47.6577L78.4283 48.6281L75.7502 45.4718V56.0001H74.2502V50.1861L71.572 53.3424L70.4283 52.372L74.2502 47.8676V45.4718L71.572 48.6281L70.4283 47.6577L74.2502 43.1533V40.7575L71.572 43.9139L70.4283 42.9434L74.2502 38.439V36.0432L71.572 39.1996L70.4283 38.2291L75.0002 32.8408Z" fill="black"/>
<path fill-rule="evenodd" clip-rule="evenodd" d="M77.0002 78.7501C75.7575 78.7501 74.7502 79.7574 74.7502 81.0001C74.7502 82.2427 75.7575 83.2501 77.0002 83.2501C78.2428 83.2501 79.2502 82.2427 79.2502 81.0001C79.2502 79.7574 78.2428 78.7501 77.0002 78.7501ZM73.2502 81.0001C73.2502 78.929 74.9291 77.2501 77.0002 77.2501C79.0712 77.2501 80.7502 78.929 80.7502 81.0001C80.7502 83.0711 79.0712 84.7501 77.0002 84.7501C74.9291 84.7501 73.2502 83.0711 73.2502 81.0001Z" fill="black"/>
</svg>
