<svg width="24" height="24" viewBox="0 0 24 24" fill="none" xmlns="http://www.w3.org/2000/svg">
<path fill-rule="evenodd" clip-rule="evenodd" d="M10.3501 2.27376C10.318 2.29605 10.283 2.33339 10.2605 2.40814L9.75 4.10996V17.2499H11.25V4.10996L10.7395 2.40814C10.717 2.33339 10.682 2.29605 10.6499 2.27376C10.6127 2.24785 10.5603 2.22998 10.5 2.22998C10.4397 2.22998 10.3873 2.24785 10.3501 2.27376ZM11.25 18.7499H9.75V19.2499H11.25V18.7499ZM11.25 20.7499V22.9999H12.75V3.8898L12.1762 1.97712C11.6773 0.314266 9.32266 0.314267 8.8238 1.97712L8.25 3.8898V22.9999H9.75V20.7499H11.25Z" fill="black"/>
<path fill-rule="evenodd" clip-rule="evenodd" d="M13.3501 2.27376C13.318 2.29605 13.283 2.33339 13.2605 2.40814L12.75 4.10996V17.2499H14.25V4.10996L13.7395 2.40814C13.717 2.33339 13.682 2.29605 13.6499 2.27376C13.6127 2.24785 13.5603 2.22998 13.5 2.22998C13.4397 2.22998 13.3873 2.24785 13.3501 2.27376ZM14.25 18.7499H12.75V19.2499H14.25V18.7499ZM14.25 20.7499V22.9999H15.75V3.8898L15.1762 1.97712C14.6773 0.314266 12.3227 0.314267 11.8238 1.97712L11.25 3.8898V22.9999H12.75V20.7499H14.25Z" fill="black"/>
<path fill-rule="evenodd" clip-rule="evenodd" d="M4.25 20.25V1H5.75V20.25H6.5V21.75H5.75V23H4.25V21.75H3.5V20.25H4.25Z" fill="black"/>
<path fill-rule="evenodd" clip-rule="evenodd" d="M19.4892 20.2247L15.4696 1.39909L16.9366 1.08587L20.9561 19.9115L21.6896 19.7549L22.0028 21.2219L21.2694 21.3785L21.5304 22.6009L20.0634 22.9141L19.8024 21.6917L19.069 21.8483L18.7557 20.3814L19.4892 20.2247Z" fill="black"/>
</svg>
