<svg width="24" height="24" viewBox="0 0 24 24" fill="none" xmlns="http://www.w3.org/2000/svg">
<path fill-rule="evenodd" clip-rule="evenodd" d="M0.25 10.5C0.25 9.5335 1.0335 8.75 2 8.75H2.1802C3.01439 8.75 3.73261 9.33881 3.89621 10.1568L4.11485 11.25H19.8851L20.1038 10.1568C20.2674 9.33881 20.9856 8.75 21.8198 8.75H22C22.9665 8.75 23.75 9.5335 23.75 10.5V19.75H0.25V10.5ZM19.75 12.75H4.25V15.25H19.75V12.75ZM19.75 16.75H4.25V18.25H19.75V16.75ZM21.25 18.25H22.25V10.5C22.25 10.3619 22.1381 10.25 22 10.25H21.8198C21.7006 10.25 21.598 10.3341 21.5747 10.451L21.25 12.0743V18.25ZM2.75 18.25V12.0743L2.42534 10.451C2.40197 10.3341 2.29937 10.25 2.1802 10.25H2C1.86193 10.25 1.75 10.3619 1.75 10.5V18.25H2.75Z" fill="black"/>
<path fill-rule="evenodd" clip-rule="evenodd" d="M1.25 6C1.25 5.0335 2.0335 4.25 3 4.25H11C11.9665 4.25 12.75 5.0335 12.75 6V12H11.25V6C11.25 5.86193 11.1381 5.75 11 5.75H3C2.86193 5.75 2.75 5.86193 2.75 6V9.5H1.25V6Z" fill="black"/>
<path fill-rule="evenodd" clip-rule="evenodd" d="M22.75 6C22.75 5.0335 21.9665 4.25 21 4.25H13C12.0335 4.25 11.25 5.0335 11.25 6V12H12.75V6C12.75 5.86193 12.8619 5.75 13 5.75H21C21.1381 5.75 21.25 5.86193 21.25 6V9.5H22.75V6Z" fill="black"/>
<path fill-rule="evenodd" clip-rule="evenodd" d="M21.25 19V21H22.75V19H21.25Z" fill="black"/>
<path fill-rule="evenodd" clip-rule="evenodd" d="M1.25 19V21H2.75V19H1.25Z" fill="black"/>
</svg>
