<svg width="24" height="24" viewBox="0 0 24 24" fill="none" xmlns="http://www.w3.org/2000/svg">
<path fill-rule="evenodd" clip-rule="evenodd" d="M7 3.75C5.20508 3.75 3.75 5.20508 3.75 7V15.7869L4.78516 17.0809C5.02238 17.3774 5.38152 17.55 5.76125 17.55H18.3V19.05H5.76125C4.99557 19.05 4.26793 18.731 3.75 18.1755V19C3.75 19.6904 4.30964 20.25 5 20.25H17C18.7949 20.25 20.25 18.7949 20.25 17V16.35H5.7V14.85H20.25V9.15H17.6C16.0812 9.15 14.85 7.91878 14.85 6.4V3.75H7ZM16.35 4.81066L19.1893 7.65H17.6C16.9096 7.65 16.35 7.09035 16.35 6.4V4.81066ZM2.25 7C2.25 4.37665 4.37665 2.25 7 2.25H15.9107L21.75 8.08934V17C21.75 19.6234 19.6234 21.75 17 21.75H5C3.48122 21.75 2.25 20.5188 2.25 19V7Z" fill="black"/>
</svg>
