<svg width="24" height="24" viewBox="0 0 24 24" fill="none" xmlns="http://www.w3.org/2000/svg">
<path fill-rule="evenodd" clip-rule="evenodd" d="M1.56836 7.56835C4.53967 5.4786 7.83156 4.25 11.9998 4.25C16.1681 4.25 19.46 5.4786 22.4313 7.56835L21.5684 8.79529C18.8261 6.86665 15.8316 5.75 11.9998 5.75C8.16808 5.75 5.1735 6.86665 2.43128 8.79529L1.56836 7.56835ZM4.05445 11.6688C5.60611 10.3503 8.27196 8.75 11.9998 8.75C15.7277 8.75 18.3935 10.3503 19.9452 11.6688L18.9739 12.8119C17.6061 11.6497 15.272 10.25 11.9998 10.25C8.72768 10.25 6.39352 11.6497 5.02572 12.8119L4.05445 11.6688ZM6.31489 15.1588C7.90812 13.9046 9.87212 13.1591 11.9998 13.1591C14.1275 13.1591 16.0915 13.9046 17.6847 15.1588L16.7569 16.3374C15.4094 15.2766 13.7679 14.6591 11.9998 14.6591C10.2318 14.6591 8.59023 15.2766 7.24272 16.3374L6.31489 15.1588ZM8.27362 18.4394C9.29461 17.5319 10.5854 16.9773 11.9998 16.9773C13.4143 16.9773 14.705 17.5319 15.726 18.4394L14.7295 19.5606C13.9523 18.8698 13.0077 18.4773 11.9998 18.4773C10.9919 18.4773 10.0474 18.8698 9.27014 19.5606L8.27362 18.4394Z" fill="black"/>
</svg>
