<svg width="86" height="86" viewBox="0 0 86 86" fill="none" xmlns="http://www.w3.org/2000/svg">
<path d="M15.2947 23.1176V22.3676H14.5447V23.1176H15.2947ZM29.0631 23.1176H29.8131V22.3676H29.0631V23.1176ZM15.2947 69H14.5447V69.75H15.2947V69ZM29.0631 17V16.25H28.3131V17H29.0631ZM40.5367 17H41.2867V16.25H40.5367V17ZM40.5367 20.8235V20.0735H39.7867V20.8235H40.5367ZM46.6559 20.8235H47.4059V20.0735H46.6559V20.8235ZM46.6559 69V69.75H47.4059V69H46.6559ZM15.6772 28.4853C15.263 28.4853 14.9272 28.8211 14.9272 29.2353C14.9272 29.6495 15.263 29.9853 15.6772 29.9853V28.4853ZM28.6806 29.9853C29.0948 29.9853 29.4306 29.6495 29.4306 29.2353C29.4306 28.8211 29.0948 28.4853 28.6806 28.4853V29.9853ZM15.6772 58.3088C15.263 58.3088 14.9272 58.6446 14.9272 59.0588C14.9272 59.473 15.263 59.8088 15.6772 59.8088V58.3088ZM28.6806 59.8088C29.0948 59.8088 29.4306 59.473 29.4306 59.0588C29.4306 58.6446 29.0948 58.3088 28.6806 58.3088V59.8088ZM15.6772 61.3676C15.263 61.3676 14.9272 61.7034 14.9272 62.1176C14.9272 62.5319 15.263 62.8676 15.6772 62.8676V61.3676ZM28.6806 62.8676C29.0948 62.8676 29.4306 62.5319 29.4306 62.1176C29.4306 61.7034 29.0948 61.3676 28.6806 61.3676V62.8676ZM29.0631 63.6618C28.6488 63.6618 28.3131 63.9976 28.3131 64.4118C28.3131 64.826 28.6488 65.1618 29.0631 65.1618V63.6618ZM40.5367 65.1618C40.9509 65.1618 41.2867 64.826 41.2867 64.4118C41.2867 63.9976 40.9509 63.6618 40.5367 63.6618V65.1618ZM29.0631 24.6618C28.6488 24.6618 28.3131 24.9976 28.3131 25.4118C28.3131 25.826 28.6488 26.1618 29.0631 26.1618V24.6618ZM40.5367 26.1618C40.9509 26.1618 41.2867 25.826 41.2867 25.4118C41.2867 24.9976 40.9509 24.6618 40.5367 24.6618V26.1618ZM29.0631 20.8382C28.6488 20.8382 28.3131 21.174 28.3131 21.5882C28.3131 22.0024 28.6488 22.3382 29.0631 22.3382V20.8382ZM40.5367 22.3382C40.9509 22.3382 41.2867 22.0024 41.2867 21.5882C41.2867 21.174 40.9509 20.8382 40.5367 20.8382V22.3382ZM18.3544 32.2941V31.5441H17.6044V32.2941H18.3544ZM26.7683 32.2941H27.5183V31.5441H26.7683V32.2941ZM26.7683 37.6471V38.3971H27.5183V37.6471H26.7683ZM18.3544 37.6471H17.6044V38.3971H18.3544V37.6471ZM47.0836 24.2502L46.8895 23.5257C46.6974 23.5772 46.5336 23.7029 46.4341 23.8752C46.3346 24.0475 46.3077 24.2522 46.3592 24.4444L47.0836 24.2502ZM61.1216 20.4897L61.8461 20.2955C61.7388 19.8955 61.3276 19.6581 60.9276 19.7652L61.1216 20.4897ZM73 64.8086L73.1941 65.5331C73.3862 65.4816 73.5501 65.3559 73.6495 65.1836C73.749 65.0114 73.7759 64.8066 73.7244 64.6145L73 64.8086ZM58.962 68.5691L58.2375 68.7633C58.3448 69.1634 58.756 69.4008 59.156 69.2936L58.962 68.5691ZM56.1943 58.2422C55.7941 58.3494 55.5567 58.7607 55.6639 59.1608C55.771 59.5609 56.1823 59.7983 56.5824 59.6912L56.1943 58.2422ZM70.6204 55.9307C71.0205 55.8235 71.258 55.4123 71.1508 55.0121C71.0436 54.612 70.6324 54.3746 70.2323 54.4818L70.6204 55.9307ZM48.6713 30.1736C48.2712 30.2808 48.0337 30.692 48.1409 31.0921C48.2481 31.4922 48.6593 31.7297 49.0594 31.6225L48.6713 30.1736ZM63.0975 27.862C63.4976 27.7548 63.735 27.3436 63.6279 26.9435C63.5207 26.5434 63.1094 26.3059 62.7093 26.4131L63.0975 27.862ZM49.4632 33.1282C49.0631 33.2354 48.8256 33.6466 48.9328 34.0467C49.04 34.4468 49.4512 34.6843 49.8513 34.5771L49.4632 33.1282ZM63.8894 30.8166C64.2895 30.7094 64.5269 30.2982 64.4197 29.8981C64.3126 29.498 63.9013 29.2605 63.5012 29.3677L63.8894 30.8166ZM57.1841 61.9355C56.784 62.0427 56.5465 62.4539 56.6537 62.854C56.7609 63.2541 57.1721 63.4916 57.5723 63.3844L57.1841 61.9355ZM71.6103 59.6239C72.0104 59.5167 72.2478 59.1055 72.1407 58.7054C72.0335 58.3053 71.6223 58.0678 71.2221 58.175L71.6103 59.6239ZM13 68.25C12.5858 68.25 12.25 68.5858 12.25 69C12.25 69.4142 12.5858 69.75 13 69.75V68.25ZM65.3961 69.75C65.8104 69.75 66.1461 69.4142 66.1461 69C66.1461 68.5858 65.8104 68.25 65.3961 68.25V69.75ZM15.2947 23.8676H29.0631V22.3676H15.2947V23.8676ZM28.3131 23.1176V69H29.8131V23.1176H28.3131ZM29.0631 68.25H15.2947V69.75H29.0631V68.25ZM16.0447 69V23.1176H14.5447V69H16.0447ZM29.0631 17.75H40.5367V16.25H29.0631V17.75ZM39.7867 17V69H41.2867V17H39.7867ZM40.5367 68.25H29.0631V69.75H40.5367V68.25ZM29.8131 69V17H28.3131V69H29.8131ZM40.5367 21.5735H46.6559V20.0735H40.5367V21.5735ZM45.9059 20.8235V69H47.4059V20.8235H45.9059ZM46.6559 68.25H40.5367V69.75H46.6559V68.25ZM41.2867 69V20.8235H39.7867V69H41.2867ZM15.6772 29.9853H28.6806V28.4853H15.6772V29.9853ZM15.6772 59.8088H28.6806V58.3088H15.6772V59.8088ZM15.6772 62.8676H28.6806V61.3676H15.6772V62.8676ZM29.0631 65.1618H40.5367V63.6618H29.0631V65.1618ZM29.0631 26.1618H40.5367V24.6618H29.0631V26.1618ZM29.0631 22.3382H40.5367V20.8382H29.0631V22.3382ZM18.3544 33.0441H26.7683V31.5441H18.3544V33.0441ZM26.0183 32.2941V37.6471H27.5183V32.2941H26.0183ZM26.7683 36.8971H18.3544V38.3971H26.7683V36.8971ZM19.1044 37.6471V32.2941H17.6044V37.6471H19.1044ZM47.2777 24.9746L61.3157 21.2142L60.9276 19.7652L46.8895 23.5257L47.2777 24.9746ZM60.3972 20.6839L72.2756 65.0028L73.7244 64.6145L61.8461 20.2955L60.3972 20.6839ZM72.8059 64.0842L58.7679 67.8447L59.156 69.2936L73.1941 65.5331L72.8059 64.0842ZM59.6864 68.375L47.808 24.056L46.3592 24.4444L58.2375 68.7633L59.6864 68.375ZM56.5824 59.6912L70.6204 55.9307L70.2323 54.4818L56.1943 58.2422L56.5824 59.6912ZM49.0594 31.6225L63.0975 27.862L62.7093 26.4131L48.6713 30.1736L49.0594 31.6225ZM49.8513 34.5771L63.8894 30.8166L63.5012 29.3677L49.4632 33.1282L49.8513 34.5771ZM57.5723 63.3844L71.6103 59.6239L71.2221 58.175L57.1841 61.9355L57.5723 63.3844ZM13 69.75H65.3961V68.25H13V69.75Z" fill="#8289C6"/>
</svg>
