<svg width="24" height="24" viewBox="0 0 24 24" fill="none" xmlns="http://www.w3.org/2000/svg">
<path fill-rule="evenodd" clip-rule="evenodd" d="M17.6194 16.762H19.5718V12.8572H21.5242V10.9048H11.7036L11.4791 10.2508C10.7958 8.30811 8.94098 7 6.88119 7C4.18688 7 2.00018 9.18669 2.00018 11.881C2.00018 14.5753 4.18688 16.762 6.88119 16.762C8.94098 16.762 10.7958 15.4539 11.4791 13.5113L11.7036 12.8572H14.7624V16.762H16.2624V12.8572H17.6194V16.762ZM6.88072 14.8099C5.26998 14.8099 3.95211 13.492 3.95211 11.8812C3.95211 10.2705 5.26998 8.95264 6.88072 8.95264C8.49145 8.95264 9.80932 10.2705 9.80932 11.8812C9.80932 13.492 8.49145 14.8099 6.88072 14.8099ZM5.90475 11.8811C5.90475 11.3442 6.34404 10.9049 6.88096 10.9049C7.41787 10.9049 7.85716 11.3442 7.85716 11.8811C7.85716 12.418 7.41787 12.8573 6.88096 12.8573C6.34404 12.8573 5.90475 12.418 5.90475 11.8811Z" fill="#FFCE3A"/>
</svg>
