<svg width="32" height="32" viewBox="0 0 32 32" fill="none" xmlns="http://www.w3.org/2000/svg">
<path d="M22.4869 4.00499L19.3746 4C15.8782 4 13.6186 6.31828 13.6186 9.90643V12.6297H10.4894C10.219 12.6297 10 12.8489 10 13.1193V17.065C10 17.3354 10.2192 17.5544 10.4894 17.5544H13.6186V27.5106C13.6186 27.781 13.8375 28 14.1079 28H18.1907C18.4611 28 18.68 27.7808 18.68 27.5106V17.5544H22.3388C22.6092 17.5544 22.8282 17.3354 22.8282 17.065L22.8297 13.1193C22.8297 12.9895 22.778 12.8651 22.6864 12.7733C22.5947 12.6814 22.4699 12.6297 22.3401 12.6297H18.68V10.3212C18.68 9.21157 18.9444 8.64829 20.3898 8.64829L22.4864 8.64755C22.7565 8.64755 22.9755 8.42833 22.9755 8.15817V4.49437C22.9755 4.22446 22.7568 4.00549 22.4869 4.00499Z" fill="#B3B8D5"/>
</svg>
