<svg width="24" height="24" viewBox="0 0 24 24" fill="none" xmlns="http://www.w3.org/2000/svg">
<path fill-rule="evenodd" clip-rule="evenodd" d="M12.5375 2.64336C12.3255 2.45221 12.0041 2.45221 11.7921 2.64336L3.62771 10.0062C3.3668 10.2415 3.53524 10.6719 3.88148 10.6719C4.64453 10.6719 5.26138 11.2914 5.26138 12.0536V18.5902C5.26138 18.9003 5.51199 19.15 5.81901 19.15H8.99191C9.29893 19.15 9.54954 18.9003 9.54954 18.5902V14.3512C9.54954 13.4907 10.246 12.7914 11.1072 12.7914H13.2224C14.0836 12.7914 14.7801 13.4907 14.7801 14.3512V18.5902C14.7801 18.9003 15.0307 19.15 15.3377 19.15H18.5106C18.8176 19.15 19.0682 18.9003 19.0682 18.5902V12.0536C19.0682 11.2914 19.6851 10.6719 20.4481 10.6719C20.7944 10.6719 20.9628 10.2415 20.7019 10.0062L12.5375 2.64336ZM11.1224 1.90074C11.7149 1.36642 12.6147 1.36642 13.2072 1.90074L21.3716 9.26354C22.3095 10.1094 21.7147 11.6719 20.4481 11.6719C20.2393 11.6719 20.0682 11.8418 20.0682 12.0536V18.5902C20.0682 19.4507 19.3718 20.15 18.5106 20.15H15.3377C14.4765 20.15 13.7801 19.4507 13.7801 18.5902V14.3512C13.7801 14.0411 13.5295 13.7914 13.2224 13.7914H11.1072C10.8001 13.7914 10.5495 14.0411 10.5495 14.3512V18.5902C10.5495 19.4507 9.85311 20.15 8.99191 20.15H5.81901C4.95781 20.15 4.26138 19.4507 4.26138 18.5902V12.0536C4.26138 11.8418 4.09034 11.6719 3.88148 11.6719C2.61488 11.6719 2.0201 10.1094 2.958 9.26354L11.1224 1.90074Z" fill="black"/>
</svg>
