<svg width="25" height="24" viewBox="0 0 25 24" fill="none" xmlns="http://www.w3.org/2000/svg">
<path fill-rule="evenodd" clip-rule="evenodd" d="M12.5218 9.26456C11.7029 9.26456 11.0397 8.6115 11.0397 7.80594V2.4582C11.0397 1.65305 11.7029 1 12.5218 1C13.3404 1 14.0036 1.65305 14.0036 2.4582V7.80594C14.0036 8.6115 13.3404 9.26456 12.5218 9.26456Z" fill="#3E9FF7"/>
<path fill-rule="evenodd" clip-rule="evenodd" d="M9.05979 11.7389C8.80652 12.5049 7.97061 12.9242 7.19228 12.6754L2.02425 11.0225C1.24592 10.7737 0.820331 9.95105 1.07272 9.18466C1.32553 8.41823 2.16188 7.99944 2.94022 8.24865L8.10783 9.90103C8.88701 10.1499 9.31259 10.9729 9.05979 11.7389Z" fill="#3E9FF7"/>
<path fill-rule="evenodd" clip-rule="evenodd" d="M15.984 11.7397C16.2372 12.5057 17.0727 12.925 17.8511 12.6758L23.0191 11.0233C23.7974 10.7745 24.2234 9.95144 23.9702 9.18547C23.7178 8.41946 22.8819 8.0002 22.1031 8.24904L16.9351 9.90183C16.1568 10.1506 15.7312 10.9737 15.984 11.7397Z" fill="#3E9FF7"/>
<path fill-rule="evenodd" clip-rule="evenodd" d="M5.44359 22.4362C4.78126 21.9632 4.6339 21.051 5.11496 20.3988L8.3079 16.0717C8.78855 15.4199 9.71551 15.2752 10.377 15.7487C11.0397 16.2221 11.1871 17.1339 10.7056 17.7853L7.51305 22.1133C7.03245 22.7642 6.10502 22.9092 5.44359 22.4362Z" fill="#3E9FF7"/>
<path fill-rule="evenodd" clip-rule="evenodd" d="M19.6003 22.4362C20.2626 21.9632 20.4095 21.051 19.9285 20.3988L16.736 16.0717C16.2553 15.4199 15.3283 15.2752 14.6661 15.7487C14.0042 16.2221 13.8568 17.1339 14.3379 17.7853L17.5308 22.1133C18.0114 22.7642 18.9389 22.9092 19.6003 22.4362Z" fill="#3E9FF7"/>
</svg>
