<svg width="24" height="24" viewBox="0 0 24 24" fill="none" xmlns="http://www.w3.org/2000/svg">
<path fill-rule="evenodd" clip-rule="evenodd" d="M5.28571 6.5C5.28571 2.87447 8.32817 0 12 0C15.6718 0 18.7143 2.87447 18.7143 6.5V6.875H20.5714C21.8763 6.875 23 7.90264 23 9.25V21.625C23 22.9724 21.8763 24 20.5714 24H3.42857C2.12368 24 1 22.9724 1 21.625V9.25C1 7.90264 2.12368 6.875 3.42857 6.875H5.28571V6.5ZM3.42857 8.875C3.15551 8.875 3 9.07857 3 9.25V21.625C3 21.7964 3.15551 22 3.42857 22H20.5714C20.8445 22 21 21.7964 21 21.625V9.25C21 9.07857 20.8445 8.875 20.5714 8.875H3.42857ZM16.7143 6.875H7.28571V6.5C7.28571 4.0504 9.36 2 12 2C14.64 2 16.7143 4.0504 16.7143 6.5V6.875ZM12 13.0625C12.5523 13.0625 13 13.5102 13 14.0625V17.5C13 18.0523 12.5523 18.5 12 18.5C11.4477 18.5 11 18.0523 11 17.5V14.0625C11 13.5102 11.4477 13.0625 12 13.0625Z" fill="#383B4B"/>
</svg>
