<svg width="24" height="24" viewBox="0 0 24 24" fill="none" xmlns="http://www.w3.org/2000/svg">
<path d="M7.25 8C7.25 8.41421 7.58579 8.75 8 8.75C8.41421 8.75 8.75 8.41421 8.75 8H7.25ZM15.25 8C15.25 8.41421 15.5858 8.75 16 8.75C16.4142 8.75 16.75 8.41421 16.75 8H15.25ZM12.75 12.5C12.75 12.0858 12.4142 11.75 12 11.75C11.5858 11.75 11.25 12.0858 11.25 12.5H12.75ZM11.25 15C11.25 15.4142 11.5858 15.75 12 15.75C12.4142 15.75 12.75 15.4142 12.75 15H11.25ZM6 8.75H18V7.25H6V8.75ZM18.25 9V18H19.75V9H18.25ZM18 18.25H6V19.75H18V18.25ZM5.75 18V9H4.25V18H5.75ZM6 18.25C5.86193 18.25 5.75 18.1381 5.75 18H4.25C4.25 18.9665 5.0335 19.75 6 19.75V18.25ZM18.25 18C18.25 18.1381 18.1381 18.25 18 18.25V19.75C18.9665 19.75 19.75 18.9665 19.75 18H18.25ZM18 8.75C18.1381 8.75 18.25 8.86193 18.25 9H19.75C19.75 8.0335 18.9665 7.25 18 7.25V8.75ZM6 7.25C5.0335 7.25 4.25 8.0335 4.25 9H5.75C5.75 8.86193 5.86193 8.75 6 8.75V7.25ZM8.75 8V7H7.25V8H8.75ZM15.25 7V8H16.75V7H15.25ZM12 3.75C13.7949 3.75 15.25 5.20507 15.25 7H16.75C16.75 4.37665 14.6234 2.25 12 2.25V3.75ZM12 2.25C9.37665 2.25 7.25 4.37665 7.25 7H8.75C8.75 5.20507 10.2051 3.75 12 3.75V2.25ZM11.25 12.5V15H12.75V12.5H11.25Z" fill="#383B4B"/>
</svg>
