<svg width="24" height="24" viewBox="0 0 24 24" fill="none" xmlns="http://www.w3.org/2000/svg">
<path d="M12.5 22.4286L11.8023 23.145L12.5 23.8244L13.1977 23.145L12.5 22.4286ZM12.5 6.82143V7.82143V6.82143ZM14.8197 8.16071L15.6857 7.66071L14.8197 8.16071ZM12.5 1C7.80129 1 4 4.80129 4 9.5H6C6 5.90586 8.90586 3 12.5 3V1ZM4 9.5C4 11.1145 4.53369 12.7798 5.26911 14.3233C6.00921 15.8766 6.98613 17.3736 7.94669 18.6692C8.90935 19.9677 9.86969 21.0827 10.5885 21.8726C10.9485 22.2681 11.2492 22.5835 11.4611 22.8013C11.5671 22.9102 11.651 22.9947 11.7091 23.0527C11.7381 23.0817 11.7607 23.1041 11.7764 23.1196C11.7843 23.1273 11.7904 23.1333 11.7947 23.1376C11.7969 23.1397 11.7986 23.1414 11.7999 23.1426C11.8005 23.1432 11.801 23.1437 11.8015 23.1441C11.8017 23.1443 11.8019 23.1446 11.802 23.1447C11.8022 23.1448 11.8023 23.145 12.5 22.4286C13.1977 21.7121 13.1978 21.7122 13.1978 21.7123C13.1978 21.7123 13.1979 21.7124 13.1979 21.7123C13.1978 21.7123 13.1977 21.7121 13.1974 21.7119C13.1968 21.7113 13.1958 21.7104 13.1944 21.709C13.1915 21.7061 13.1869 21.7016 13.1806 21.6953C13.1679 21.6828 13.1483 21.6635 13.1225 21.6376C13.0707 21.5859 12.9934 21.5081 12.8943 21.4063C12.6961 21.2026 12.4109 20.9035 12.0677 20.5264C11.3803 19.7711 10.4657 18.7087 9.55331 17.4781C8.63887 16.2447 7.74079 14.8611 7.07464 13.463C6.40381 12.0551 6 10.698 6 9.5H4ZM12.5 22.4286C13.1977 23.145 13.1978 23.1448 13.198 23.1447C13.1981 23.1446 13.1983 23.1443 13.1985 23.1441C13.199 23.1437 13.1995 23.1432 13.2001 23.1426C13.2014 23.1414 13.2031 23.1397 13.2053 23.1376C13.2096 23.1333 13.2157 23.1273 13.2236 23.1196C13.2393 23.1041 13.2619 23.0817 13.2909 23.0527C13.349 22.9947 13.4329 22.9102 13.5389 22.8013C13.7508 22.5835 14.0515 22.2681 14.4115 21.8726C15.1303 21.0827 16.0907 19.9677 17.0533 18.6692C18.0139 17.3736 18.9908 15.8766 19.7309 14.3233C20.4663 12.7798 21 11.1145 21 9.5H19C19 10.698 18.5962 12.0551 17.9254 13.463C17.2592 14.8611 16.3611 16.2447 15.4467 17.4781C14.5343 18.7087 13.6197 19.7711 12.9323 20.5264C12.5891 20.9035 12.3039 21.2026 12.1057 21.4063C12.0066 21.5081 11.9293 21.5859 11.8775 21.6376C11.8517 21.6635 11.8321 21.6828 11.8194 21.6953C11.8131 21.7016 11.8085 21.7061 11.8056 21.709C11.8042 21.7104 11.8032 21.7113 11.8026 21.7119C11.8023 21.7121 11.8022 21.7123 11.8021 21.7123C11.8021 21.7124 11.8022 21.7123 11.8022 21.7123C11.8022 21.7122 11.8023 21.7121 12.5 22.4286ZM21 9.5C21 4.80129 17.1987 1 12.5 1V3C16.0941 3 19 5.90586 19 9.5H21ZM12.5 5.82143C10.4684 5.82143 8.82143 7.46838 8.82143 9.5H10.8214C10.8214 8.57295 11.573 7.82143 12.5 7.82143V5.82143ZM8.82143 9.5C8.82143 11.5316 10.4684 13.1786 12.5 13.1786V11.1786C11.573 11.1786 10.8214 10.427 10.8214 9.5H8.82143ZM12.5 13.1786C13.8142 13.1786 15.0286 12.4774 15.6857 11.3393L13.9537 10.3393C13.6538 10.8586 13.0997 11.1786 12.5 11.1786V13.1786ZM15.6857 11.3393C16.3429 10.2011 16.3429 8.79887 15.6857 7.66071L13.9537 8.66071C14.2535 9.18007 14.2535 9.81993 13.9537 10.3393L15.6857 11.3393ZM15.6857 7.66071C15.0286 6.52256 13.8142 5.82143 12.5 5.82143V7.82143C13.0997 7.82143 13.6538 8.14136 13.9537 8.66071L15.6857 7.66071Z" fill="#FFCE3A"/>
</svg>
