<svg width="86" height="86" viewBox="0 0 86 86" fill="none" xmlns="http://www.w3.org/2000/svg">
<path d="M17.2794 43.6129C17.2794 43.1987 16.9436 42.8629 16.5294 42.8629C16.1152 42.8629 15.7794 43.1987 15.7794 43.6129H17.2794ZM70.2206 43.6129C70.2206 43.1987 69.8848 42.8629 69.4706 42.8629C69.0564 42.8629 68.7206 43.1987 68.7206 43.6129H70.2206ZM38.1471 42.4274C37.7328 42.4274 37.3971 42.7632 37.3971 43.1774C37.3971 43.5916 37.7328 43.9274 38.1471 43.9274V42.4274ZM47.8529 43.9274C48.2672 43.9274 48.6029 43.5916 48.6029 43.1774C48.6029 42.7632 48.2672 42.4274 47.8529 42.4274V43.9274ZM38.1471 45.4758C37.7328 45.4758 37.3971 45.8116 37.3971 46.2258C37.3971 46.64 37.7328 46.9758 38.1471 46.9758V45.4758ZM47.8529 46.9758C48.2672 46.9758 48.6029 46.64 48.6029 46.2258C48.6029 45.8116 48.2672 45.4758 47.8529 45.4758V46.9758ZM40.7941 49.8306C40.3799 49.8306 40.0441 50.1664 40.0441 50.5806C40.0441 50.9949 40.3799 51.3306 40.7941 51.3306V49.8306ZM41.2353 53.1936H40.4853C40.4853 53.6078 40.8211 53.9436 41.2353 53.9436V53.1936ZM44.7647 53.1936V53.9436C45.1789 53.9436 45.5147 53.6078 45.5147 53.1936H44.7647ZM45.2059 51.3306C45.6201 51.3306 45.9559 50.9949 45.9559 50.5806C45.9559 50.1664 45.6201 49.8306 45.2059 49.8306V51.3306ZM54.4706 24.4516V25.2016C54.8848 25.2016 55.2206 24.8658 55.2206 24.4516H54.4706ZM31.5294 24.4516H30.7794C30.7794 24.8658 31.1152 25.2016 31.5294 25.2016V24.4516ZM50.9412 24.4516V25.2016C51.3554 25.2016 51.6912 24.8658 51.6912 24.4516H50.9412ZM35.0588 24.4516H34.3088C34.3088 24.8658 34.6446 25.2016 35.0588 25.2016V24.4516ZM31.9706 20.6532C31.5564 20.6532 31.2206 20.989 31.2206 21.4032C31.2206 21.8174 31.5564 22.1532 31.9706 22.1532V20.6532ZM35.0588 22.1532C35.473 22.1532 35.8088 21.8174 35.8088 21.4032C35.8088 20.989 35.473 20.6532 35.0588 20.6532V22.1532ZM50.9412 20.6532C50.527 20.6532 50.1912 20.989 50.1912 21.4032C50.1912 21.8174 50.527 22.1532 50.9412 22.1532V20.6532ZM54.0294 22.1532C54.4436 22.1532 54.7794 21.8174 54.7794 21.4032C54.7794 20.989 54.4436 20.6532 54.0294 20.6532V22.1532ZM14.7647 25.2016H71.2353V23.7016H14.7647V25.2016ZM72.25 26.1935V66.2581H73.75V26.1935H72.25ZM71.2353 67.25H14.7647V68.75H71.2353V67.25ZM13.75 66.2581V26.1935H12.25V66.2581H13.75ZM14.7647 67.25C14.1951 67.25 13.75 66.7967 13.75 66.2581H12.25C12.25 67.6435 13.3851 68.75 14.7647 68.75V67.25ZM72.25 66.2581C72.25 66.7967 71.8049 67.25 71.2353 67.25V68.75C72.6149 68.75 73.75 67.6435 73.75 66.2581H72.25ZM71.2353 25.2016C71.8049 25.2016 72.25 25.6549 72.25 26.1935H73.75C73.75 24.8081 72.6149 23.7016 71.2353 23.7016V25.2016ZM14.7647 23.7016C13.3851 23.7016 12.25 24.8081 12.25 26.1935H13.75C13.75 25.6549 14.1951 25.2016 14.7647 25.2016V23.7016ZM72.25 26.1935V34.0323H73.75V26.1935H72.25ZM13.75 34.0323V26.1935H12.25V34.0323H13.75ZM12.25 34.0323C12.25 42.152 18.9157 48.7177 27.1176 48.7177V47.2177C19.7257 47.2177 13.75 41.3052 13.75 34.0323H12.25ZM72.25 34.0323C72.25 41.3052 66.2743 47.2177 58.8824 47.2177V48.7177C67.0843 48.7177 73.75 42.152 73.75 34.0323H72.25ZM67.7059 63.7661H18.2941V65.2661H67.7059V63.7661ZM18.2941 63.7661C17.7245 63.7661 17.2794 63.3129 17.2794 62.7742H15.7794C15.7794 64.1596 16.9145 65.2661 18.2941 65.2661V63.7661ZM67.7059 65.2661C69.0855 65.2661 70.2206 64.1596 70.2206 62.7742H68.7206C68.7206 63.3129 68.2755 63.7661 67.7059 63.7661V65.2661ZM47.5441 41.871V57.0386H49.0441V41.871H47.5441ZM47.7776 56.7984H38.2224V58.2984H47.7776V56.7984ZM38.4559 57.0386V41.871H36.9559V57.0386H38.4559ZM38.2224 56.7984C38.3421 56.7984 38.4559 56.8968 38.4559 57.0386H36.9559C36.9559 57.7435 37.5321 58.2984 38.2224 58.2984V56.7984ZM47.5441 57.0386C47.5441 56.8968 47.6579 56.7984 47.7776 56.7984V58.2984C48.4679 58.2984 49.0441 57.7435 49.0441 57.0386H47.5441ZM43 37.3952C45.5189 37.3952 47.5441 39.4082 47.5441 41.871H49.0441C49.0441 38.5615 46.3289 35.8952 43 35.8952V37.3952ZM43 35.8952C39.6711 35.8952 36.9559 38.5615 36.9559 41.871H38.4559C38.4559 39.4082 40.4811 37.3952 43 37.3952V35.8952ZM38.1471 43.9274H47.8529V42.4274H38.1471V43.9274ZM38.1471 46.9758H47.8529V45.4758H38.1471V46.9758ZM40.7941 51.3306H41.2353V49.8306H40.7941V51.3306ZM40.4853 50.5806V53.1936H41.9853V50.5806H40.4853ZM41.2353 53.9436H44.7647V52.4436H41.2353V53.9436ZM41.2353 51.3306H44.7647V49.8306H41.2353V51.3306ZM44.7647 51.3306H45.2059V49.8306H44.7647V51.3306ZM45.5147 53.1936V50.5806H44.0147V53.1936H45.5147ZM39.4706 14.75H46.5294V13.25H39.4706V14.75ZM53.7206 21.8387V24.4516H55.2206V21.8387H53.7206ZM54.4706 23.7016H31.5294V25.2016H54.4706V23.7016ZM32.2794 24.4516V21.8387H30.7794V24.4516H32.2794ZM46.5294 14.75C50.5102 14.75 53.7206 17.9329 53.7206 21.8387H55.2206C55.2206 17.0861 51.3202 13.25 46.5294 13.25V14.75ZM39.4706 13.25C34.6798 13.25 30.7794 17.0861 30.7794 21.8387H32.2794C32.2794 17.9329 35.4898 14.75 39.4706 14.75V13.25ZM40.3529 18.2339H45.6471V16.7339H40.3529V18.2339ZM50.1912 22.7097V24.4516H51.6912V22.7097H50.1912ZM50.9412 23.7016H35.0588V25.2016H50.9412V23.7016ZM35.8088 24.4516V22.7097H34.3088V24.4516H35.8088ZM45.6471 18.2339C48.1659 18.2339 50.1912 20.2469 50.1912 22.7097H51.6912C51.6912 19.4002 48.9759 16.7339 45.6471 16.7339V18.2339ZM40.3529 16.7339C37.0241 16.7339 34.3088 19.4002 34.3088 22.7097H35.8088C35.8088 20.2469 37.8341 18.2339 40.3529 18.2339V16.7339ZM31.9706 22.1532H35.0588V20.6532H31.9706V22.1532ZM50.9412 22.1532H54.0294V20.6532H50.9412V22.1532ZM37.2647 47.2177H27.1176V48.7177H37.2647V47.2177ZM58.8824 47.2177H48.2941V48.7177H58.8824V47.2177ZM17.2794 62.7742V43.6129H15.7794V62.7742H17.2794ZM68.7206 43.6129V62.7742H70.2206V43.6129H68.7206Z" fill="#8289C6"/>
</svg>
