<svg width="86" height="86" viewBox="0 0 86 86" fill="none" xmlns="http://www.w3.org/2000/svg">
<path fill-rule="evenodd" clip-rule="evenodd" d="M17.75 67.25H20.8382L20.8382 61.039H17.75L17.75 67.25ZM20.0735 59.539H17C16.8011 59.539 16.6103 59.618 16.4697 59.7586C16.329 59.8993 16.25 60.09 16.25 60.289L16.25 68C16.25 68.4142 16.5858 68.75 17 68.75L69 68.75C69.4142 68.75 69.75 68.4142 69.75 68V61.039H71C71.4142 61.039 71.75 60.7032 71.75 60.289V53C71.75 52.5858 71.4142 52.25 71 52.25H20.8235C20.4093 52.25 20.0735 52.5858 20.0735 53V59.539ZM22.3382 61.039L22.3382 67.25H24.6618V61.039H22.3382ZM21.5735 59.539L21.5735 53.75H70.25V59.539L21.5735 59.539ZM26.1618 61.039V67.25L63.6618 67.25V61.039L26.1618 61.039ZM65.1618 61.039V67.25H68.25V61.039H65.1618Z" fill="#8289C6"/>
<path fill-rule="evenodd" clip-rule="evenodd" d="M16.75 28.25H18.1346V24.75H16.75L16.75 28.25ZM16 23.25C15.8011 23.25 15.6103 23.329 15.4697 23.4697C15.329 23.6103 15.25 23.8011 15.25 24L15.25 29C15.25 29.4142 15.5858 29.75 16 29.75L61.5881 29.75L66 29.75C66.4142 29.75 66.75 29.4142 66.75 29V24C66.75 23.5858 66.4142 23.25 66 23.25L16 23.25ZM60.8382 24.75L19.6346 24.75L19.6346 28.25L60.8382 28.25V24.75ZM62.3382 28.25V24.75H65.25V28.25L62.3382 28.25Z" fill="#8289C6"/>
<path fill-rule="evenodd" clip-rule="evenodd" d="M21.75 23.25L68.25 23.25V20.75L21.75 20.75V23.25ZM20.25 24L20.25 20C20.25 19.8011 20.329 19.6103 20.4697 19.4697C20.6103 19.329 20.8011 19.25 21 19.25L69 19.25C69.4142 19.25 69.75 19.5858 69.75 20V24C69.75 24.4142 69.4142 24.75 69 24.75L21 24.75C20.5858 24.75 20.25 24.4142 20.25 24Z" fill="#8289C6"/>
<path fill-rule="evenodd" clip-rule="evenodd" d="M13.25 45C13.25 42.3766 15.3766 40.25 18 40.25H65C65.4142 40.25 65.75 40.5858 65.75 41V44C65.75 44.4142 65.4142 44.75 65 44.75H64.7692V49.25H65C65.4142 49.25 65.75 49.5858 65.75 50V53C65.75 53.4142 65.4142 53.75 65 53.75H18C15.3766 53.75 13.25 51.6234 13.25 49V45ZM64.25 50.75H64.0192C63.605 50.75 63.2692 50.4142 63.2692 50V44C63.2692 43.5858 63.605 43.25 64.0192 43.25H64.25V41.75H18C16.2051 41.75 14.75 43.2051 14.75 45V49C14.75 50.7949 16.2051 52.25 18 52.25H64.25V50.75Z" fill="#8289C6"/>
<path fill-rule="evenodd" clip-rule="evenodd" d="M16.25 45C16.25 44.0335 17.0335 43.25 18 43.25H64C64.4142 43.25 64.75 43.5858 64.75 44V50C64.75 50.4142 64.4142 50.75 64 50.75H24V49.25H63.25V44.75H18C17.8619 44.75 17.75 44.8619 17.75 45V49C17.75 49.1381 17.8619 49.25 18 49.25H20V50.75H18C17.0335 50.75 16.25 49.9665 16.25 49V45Z" fill="#8289C6"/>
<path fill-rule="evenodd" clip-rule="evenodd" d="M19.25 43.25H24.75V51C24.75 51.2431 24.6322 51.471 24.434 51.6117C24.2357 51.7523 23.9816 51.7882 23.7522 51.7079L22 51.0946L20.2478 51.7079C20.0184 51.7882 19.7643 51.7523 19.566 51.6117C19.3678 51.471 19.25 51.2431 19.25 51V43.25ZM20.75 44.75V49.9429L21.7522 49.5921C21.9126 49.536 22.0874 49.536 22.2478 49.5921L23.25 49.9429V44.75H20.75Z" fill="#8289C6"/>
<path fill-rule="evenodd" clip-rule="evenodd" d="M17.25 31C17.25 29.4812 18.4812 28.25 20 28.25H71C71.4142 28.25 71.75 28.5858 71.75 29V31.5C71.75 31.9142 71.4142 32.25 71 32.25H69.787V37.75H71C71.4142 37.75 71.75 38.0858 71.75 38.5V41C71.75 41.4142 71.4142 41.75 71 41.75H20C18.4812 41.75 17.25 40.5188 17.25 39V31ZM68.287 37.75V32.25H32.25V32.75H38C38.4142 32.75 38.75 33.0858 38.75 33.5C38.75 33.9142 38.4142 34.25 38 34.25H32.25V37.5C32.25 37.5862 32.2352 37.6707 32.2071 37.75H68.287ZM27.9774 38.1537L27.6819 38.2276C27.6227 38.2424 27.5626 38.2498 27.5028 38.25C27.563 38.2502 27.6231 38.2577 27.6819 38.2724L27.9122 38.33C27.9266 38.2679 27.9487 38.2088 27.9774 38.1537ZM30.25 39.25V39.5C30.25 39.731 30.1436 39.949 29.9616 40.0912C29.8292 40.1945 29.6676 40.2493 29.5031 40.25H70.25V39.25H30.25ZM30.75 32.25H28.25V36.5394L29.5 36.2269L30.75 36.5394V32.25ZM70.25 30.75V29.75H20C19.3096 29.75 18.75 30.3096 18.75 31V39C18.75 39.6904 19.3096 40.25 20 40.25H25.4969C25.3324 40.2493 25.1708 40.1945 25.0384 40.0912C24.8564 39.949 24.75 39.731 24.75 39.5V39.25H21.5C21.0858 39.25 20.75 38.9142 20.75 38.5V31.5C20.75 31.0858 21.0858 30.75 21.5 30.75H70.25ZM22.25 34.25V37.75H24.75V34.25H22.25ZM22.25 32.75V32.25H26.75V32.75H22.25ZM26.75 34.25H26.25V38.5394L27.3181 38.2724C27.3771 38.2576 27.4374 38.2502 27.4978 38.25C27.333 38.2495 27.171 38.1947 27.0384 38.0912C26.8564 37.949 26.75 37.731 26.75 37.5V34.25ZM25.5032 40.25H29.4968C29.4371 40.2497 29.3772 40.2424 29.3181 40.2276L27.5 39.7731L25.6819 40.2276C25.6228 40.2424 25.5629 40.2497 25.5032 40.25Z" fill="#8289C6"/>
<path fill-rule="evenodd" clip-rule="evenodd" d="M13.25 68C13.25 67.5858 13.5858 67.25 14 67.25H72C72.4142 67.25 72.75 67.5858 72.75 68C72.75 68.4142 72.4142 68.75 72 68.75H14C13.5858 68.75 13.25 68.4142 13.25 68Z" fill="#8289C6"/>
</svg>
