<svg width="86" height="86" viewBox="0 0 86 86" fill="none" xmlns="http://www.w3.org/2000/svg">
<path d="M19.2947 23.1176V22.3676C18.8805 22.3676 18.5447 22.7034 18.5447 23.1176H19.2947ZM33.0631 23.1176H33.8131C33.8131 22.7034 33.4773 22.3676 33.0631 22.3676V23.1176ZM19.2947 69H18.5447C18.5447 69.4142 18.8805 69.75 19.2947 69.75V69ZM33.0631 17V16.25C32.6488 16.25 32.3131 16.5858 32.3131 17H33.0631ZM44.5367 17H45.2867C45.2867 16.5858 44.9509 16.25 44.5367 16.25V17ZM44.5367 20.8235V20.0735C44.1224 20.0735 43.7867 20.4093 43.7867 20.8235H44.5367ZM50.6559 20.8235H51.4059C51.4059 20.4093 51.0701 20.0735 50.6559 20.0735V20.8235ZM50.6559 69V69.75C51.0701 69.75 51.4059 69.4142 51.4059 69H50.6559ZM19.6772 28.4853C19.263 28.4853 18.9272 28.8211 18.9272 29.2353C18.9272 29.6495 19.263 29.9853 19.6772 29.9853V28.4853ZM32.6806 29.9853C33.0948 29.9853 33.4306 29.6495 33.4306 29.2353C33.4306 28.8211 33.0948 28.4853 32.6806 28.4853V29.9853ZM19.6772 58.3088C19.263 58.3088 18.9272 58.6446 18.9272 59.0588C18.9272 59.473 19.263 59.8088 19.6772 59.8088V58.3088ZM32.6806 59.8088C33.0948 59.8088 33.4306 59.473 33.4306 59.0588C33.4306 58.6446 33.0948 58.3088 32.6806 58.3088V59.8088ZM19.6772 61.3676C19.263 61.3676 18.9272 61.7034 18.9272 62.1176C18.9272 62.5319 19.263 62.8676 19.6772 62.8676V61.3676ZM32.6806 62.8676C33.0948 62.8676 33.4306 62.5319 33.4306 62.1176C33.4306 61.7034 33.0948 61.3676 32.6806 61.3676V62.8676ZM33.0631 63.6618C32.6488 63.6618 32.3131 63.9975 32.3131 64.4118C32.3131 64.826 32.6488 65.1618 33.0631 65.1618V63.6618ZM44.5367 65.1618C44.9509 65.1618 45.2867 64.826 45.2867 64.4118C45.2867 63.9975 44.9509 63.6618 44.5367 63.6618V65.1618ZM33.0631 24.6618C32.6488 24.6618 32.3131 24.9976 32.3131 25.4118C32.3131 25.826 32.6488 26.1618 33.0631 26.1618V24.6618ZM44.5367 26.1618C44.9509 26.1618 45.2867 25.826 45.2867 25.4118C45.2867 24.9976 44.9509 24.6618 44.5367 24.6618V26.1618ZM33.0631 20.8382C32.6488 20.8382 32.3131 21.174 32.3131 21.5882C32.3131 22.0024 32.6488 22.3382 33.0631 22.3382V20.8382ZM44.5367 22.3382C44.9509 22.3382 45.2867 22.0024 45.2867 21.5882C45.2867 21.174 44.9509 20.8382 44.5367 20.8382V22.3382ZM17 68.25C16.5858 68.25 16.25 68.5858 16.25 69C16.25 69.4142 16.5858 69.75 17 69.75V68.25ZM69.3961 69.75C69.8104 69.75 70.1461 69.4142 70.1461 69C70.1461 68.5858 69.8104 68.25 69.3961 68.25V69.75ZM50.7317 23.1176V22.3676C50.3175 22.3676 49.9817 22.7034 49.9817 23.1176H50.7317ZM66.5 23.1176H67.25C67.25 22.7034 66.9142 22.3676 66.5 22.3676V23.1176ZM66.5 69V69.75C66.9142 69.75 67.25 69.4142 67.25 69H66.5ZM50.7317 69H49.9817C49.9817 69.4142 50.3175 69.75 50.7317 69.75V69ZM57.5 43V42.25C57.0858 42.25 56.75 42.5858 56.75 43H57.5ZM59.5 43H60.25C60.25 42.5858 59.9142 42.25 59.5 42.25V43ZM59.5 62.1176V62.8676C59.9142 62.8676 60.25 62.5319 60.25 62.1176H59.5ZM57.5 62.1176H56.75C56.75 62.5319 57.0858 62.8676 57.5 62.8676V62.1176ZM19.2947 23.8676H33.0631V22.3676H19.2947V23.8676ZM32.3131 23.1176V69H33.8131V23.1176H32.3131ZM33.0631 68.25H19.2947V69.75H33.0631V68.25ZM20.0447 69V23.1176H18.5447V69H20.0447ZM33.0631 17.75H44.5367V16.25H33.0631V17.75ZM43.7867 17V69H45.2867V17H43.7867ZM44.5367 68.25H33.0631V69.75H44.5367V68.25ZM33.8131 69V17H32.3131V69H33.8131ZM44.5367 21.5735H50.6559V20.0735H44.5367V21.5735ZM50.6559 68.25H44.5367V69.75H50.6559V68.25ZM45.2867 69V20.8235H43.7867V69H45.2867ZM19.6772 29.9853H32.6806V28.4853H19.6772V29.9853ZM19.6772 59.8088H32.6806V58.3088H19.6772V59.8088ZM19.6772 62.8676H32.6806V61.3676H19.6772V62.8676ZM33.0631 65.1618H44.5367V63.6618H33.0631V65.1618ZM33.0631 26.1618H44.5367V24.6618H33.0631V26.1618ZM33.0631 22.3382H44.5367V20.8382H33.0631V22.3382ZM24.75 33.8526V53.5585H26.25V33.8526H24.75ZM17 69.75H69.3961V68.25H17V69.75ZM26.75 43V53.5585H28.25V43H26.75ZM50.7317 23.8676H66.5V22.3676H50.7317V23.8676ZM66.5 68.25H50.7317V69.75H66.5V68.25ZM49.9059 20.8235V31H51.4059V20.8235H49.9059ZM49.9059 31V69H51.4059V31H49.9059ZM65.75 23.1176V31H67.25V23.1176H65.75ZM50.6559 31.75H66.5V30.25H50.6559V31.75ZM65.75 31V35H67.25V31H65.75ZM65.75 35V69H67.25V35H65.75ZM51.4817 69V35H49.9817V69H51.4817ZM51.4817 35V23.1176H49.9817V35H51.4817ZM66.5 34.25H50.7317V35.75H66.5V34.25ZM57.5 43.75H59.5V42.25H57.5V43.75ZM58.75 43V62.1176H60.25V43H58.75ZM59.5 61.3676H57.5V62.8676H59.5V61.3676ZM58.25 62.1176V43H56.75V62.1176H58.25Z" fill="#8289C6"/>
</svg>
