<svg width="86" height="86" viewBox="0 0 86 86" fill="none" xmlns="http://www.w3.org/2000/svg">
<path d="M21.0343 59.0372L21.4113 59.6856L21.4113 59.6856L21.0343 59.0372ZM13.0123 45.0457L13.3893 45.6941H13.3893L13.0123 45.0457ZM37.7288 31.6088L38.1057 32.2572L37.7288 31.6088ZM37.0044 31.1623C36.6463 31.3705 36.5248 31.8296 36.733 32.1877C36.9412 32.5458 37.4003 32.6673 37.7584 32.4591L37.0044 31.1623ZM44.9486 44.2011L45.3255 44.8495L44.9486 44.2011ZM47.5912 34.2698L48.2418 33.8968L47.5912 34.2698ZM73.9273 21.2252C74.2854 21.017 74.4069 20.558 74.1987 20.1999C73.9905 19.8418 73.5315 19.7203 73.1734 19.9284L73.9273 21.2252ZM59.8088 8.19286C59.9153 7.79257 59.6771 7.38173 59.2769 7.27522C58.8766 7.16871 58.4657 7.40686 58.3592 7.80714L59.8088 8.19286ZM64.4101 35.0743C64.0102 34.9664 63.5985 35.2031 63.4906 35.603C63.3827 36.003 63.6194 36.4146 64.0194 36.5225L64.4101 35.0743ZM21.729 58.6333L21.3521 57.9849L20.7076 58.3596L21.0784 59.0064L21.729 58.6333ZM31.5626 54.7818L32.2133 54.4087L32.013 54.0594L31.6113 54.0333L31.5626 54.7818ZM30.7538 74.3738L31.4044 74.0007L30.7538 74.3738ZM39.7852 69.1231L40.4358 68.75L39.7852 69.1231ZM52.6989 31.7614C55.7096 37.0126 57.5717 42.2292 58.1684 46.3995C58.467 48.4868 58.443 50.2729 58.1158 51.6557C57.7889 53.0371 57.1799 53.9451 56.3609 54.4213L57.1148 55.718C58.406 54.9673 59.1901 53.6299 59.5755 52.0011C59.9605 50.3739 59.9678 48.3851 59.6533 46.187C59.0236 41.7864 57.0813 36.3893 54.0002 31.0154L52.6989 31.7614ZM56.3609 54.4213C55.5428 54.8969 54.4604 54.9736 53.112 54.5688C51.7613 54.1634 50.2146 53.2924 48.5692 51.9886C45.2821 49.384 41.727 45.1524 38.7162 39.9012L37.415 40.6473C40.496 46.0211 44.1668 50.4141 47.6377 53.1643C49.3713 54.538 51.0866 55.527 52.6808 56.0055C54.2773 56.4847 55.8225 56.4693 57.1148 55.718L56.3609 54.4213ZM38.7162 39.9012C35.7055 34.65 33.8434 29.4334 33.2468 25.2631C32.9481 23.1758 32.9722 21.3897 33.2994 20.0069C33.6262 18.6255 34.2352 17.7175 35.0543 17.2413L34.3004 15.9446C33.0092 16.6953 32.2251 18.0327 31.8397 19.6615C31.4547 21.2887 31.4474 23.2775 31.7619 25.4756C32.3915 29.8762 34.3338 35.2733 37.415 40.6473L38.7162 39.9012ZM35.0543 17.2413C35.8723 16.7658 36.9548 16.689 38.3031 17.0938C39.6539 17.4992 41.2006 18.3702 42.8459 19.674C46.1331 22.2786 49.6881 26.5102 52.6989 31.7614L54.0002 31.0154C50.9191 25.6415 47.2484 21.2486 43.7775 18.4983C42.0439 17.1246 40.3285 16.1356 38.7344 15.6571C37.1378 15.1779 35.5926 15.1933 34.3004 15.9446L35.0543 17.2413ZM32.3395 18.1386L19.9995 40.2371L21.3091 40.9684L33.6491 18.8699L32.3395 18.1386ZM20.0037 40.9758L28.0256 54.9673L29.3269 54.2212L21.3049 40.2297L20.0037 40.9758ZM28.6474 55.3437L54.2236 56.3312L54.2815 54.8323L28.7052 53.8448L28.6474 55.3437ZM13.3893 45.6941L21.0313 41.2511L20.2773 39.9544L12.6354 44.3973L13.3893 45.6941ZM28.2993 53.9459L20.6574 58.3888L21.4113 59.6856L29.0533 55.2427L28.2993 53.9459ZM20.6574 58.3888C17.1823 60.4092 12.7363 59.2124 10.7267 55.7074L9.42544 56.4535C11.8463 60.6759 17.2127 62.1266 21.4113 59.6856L20.6574 58.3888ZM12.6354 44.3973C8.43984 46.8365 7.00629 52.2342 9.42544 56.4535L10.7267 55.7074C8.71545 52.1995 9.91111 47.7162 13.3893 45.6941L12.6354 44.3973ZM37.3518 30.9604L37.0044 31.1623L37.7584 32.4591L38.1057 32.2572L37.3518 30.9604ZM44.9781 45.0515L45.3255 44.8495L44.5716 43.5527L44.2242 43.7547L44.9781 45.0515ZM46.9405 34.6429C48.7303 37.7645 47.6661 41.7537 44.5716 43.5527L45.3255 44.8495C49.1374 42.6334 50.4395 37.7298 48.2418 33.8968L46.9405 34.6429ZM48.2418 33.8968C46.0425 30.0608 41.1667 28.7424 37.3518 30.9604L38.1057 32.2572C41.1971 30.4599 45.1525 31.5243 46.9405 34.6429L48.2418 33.8968ZM62.4643 27.8896L73.9273 21.2252L73.1734 19.9284L61.7104 26.5928L62.4643 27.8896ZM56.383 21.0674L59.8088 8.19286L58.3592 7.80714L54.9334 20.6817L56.383 21.0674ZM77.1954 38.524L64.4101 35.0743L64.0194 36.5225L76.8046 39.9723L77.1954 38.524ZM31.4044 74.0007L22.3797 58.2603L21.0784 59.0064L30.1031 74.7468L31.4044 74.0007ZM22.106 59.2817L29.0533 55.2427L28.2993 53.9459L21.3521 57.9849L22.106 59.2817ZM28.6277 55.3427L31.514 55.5302L31.6113 54.0333L28.7249 53.8459L28.6277 55.3427ZM30.912 55.1548L39.1345 69.4961L40.4358 68.75L32.2133 54.4087L30.912 55.1548ZM37.4997 75.6473C35.3675 76.8869 32.6386 76.1534 31.4044 74.0007L30.1031 74.7468C31.7487 77.6169 35.3979 78.6043 38.2536 76.944L37.4997 75.6473ZM38.2536 76.944C41.1062 75.2856 42.0797 71.6171 40.4358 68.75L39.1345 69.4961C40.3705 71.6518 39.6349 74.4059 37.4997 75.6473L38.2536 76.944Z" fill="#8289C6"/>
</svg>
