<svg width="86" height="86" viewBox="0 0 86 86" fill="none" xmlns="http://www.w3.org/2000/svg">
<path fill-rule="evenodd" clip-rule="evenodd" d="M17.6439 16.3333C17.6439 12.9817 20.3323 10.25 23.6667 10.25C27.001 10.25 29.6894 12.9817 29.6894 16.3333V19C29.6894 20.8254 28.892 22.4669 27.6271 23.5833H28.0606C30.3345 23.5833 32.3081 24.8538 33.3333 26.725C34.3586 24.8538 36.3321 23.5833 38.6061 23.5833H39.0396C37.7747 22.4669 36.9773 20.8254 36.9773 19V16.3333C36.9773 12.9817 39.6657 10.25 43 10.25C46.3343 10.25 49.0227 12.9817 49.0227 16.3333V19C49.0227 20.8254 48.2253 22.4669 46.9604 23.5833H47.3939C49.6679 23.5833 51.6414 24.8538 52.6667 26.725C53.6919 24.8538 55.6655 23.5833 57.9394 23.5833H58.3729C57.108 22.4669 56.3106 20.8254 56.3106 19V16.3333C56.3106 12.9817 58.999 10.25 62.3333 10.25C65.6677 10.25 68.3561 12.9817 68.3561 16.3333V19C68.3561 20.8254 67.5586 22.4669 66.2938 23.5833H66.7273C70.0616 23.5833 72.75 26.315 72.75 29.6667V37.6667C72.75 38.0809 72.4142 38.4167 72 38.4167C71.5858 38.4167 71.25 38.0809 71.25 37.6667V29.6667C71.25 27.1273 69.217 25.0833 66.7273 25.0833H57.9394C55.6819 25.0833 53.8 26.7636 53.4685 28.97C56.4216 29.3664 58.6894 31.9217 58.6894 35V37.6667C58.6894 39.492 57.892 41.1335 56.6271 42.25H57.0606C60.1566 42.25 62.6958 44.6052 63.0429 47.625C66.0409 47.98 68.3561 50.5564 68.3561 53.6667V56.3333C68.3561 58.1587 67.5586 59.8002 66.2938 60.9167H66.7273C70.0616 60.9167 72.75 63.6484 72.75 67V75C72.75 75.4142 72.4142 75.75 72 75.75C71.5858 75.75 71.25 75.4142 71.25 75V67C71.25 64.4606 69.217 62.4167 66.7273 62.4167H57.9394C55.4496 62.4167 53.4167 64.4606 53.4167 67V75C53.4167 75.4142 53.0809 75.75 52.6667 75.75C52.2525 75.75 51.9167 75.4142 51.9167 75V67C51.9167 64.4606 49.8837 62.4167 47.3939 62.4167H38.6061C36.1163 62.4167 34.0833 64.4606 34.0833 67V75C34.0833 75.4142 33.7475 75.75 33.3333 75.75C32.9191 75.75 32.5833 75.4142 32.5833 75V67C32.5833 64.4606 30.5504 62.4167 28.0606 62.4167H19.2727C16.783 62.4167 14.75 64.4606 14.75 67V75C14.75 75.4142 14.4142 75.75 14 75.75C13.5858 75.75 13.25 75.4142 13.25 75V67C13.25 63.6484 15.9384 60.9167 19.2727 60.9167H19.7062C18.4414 59.8002 17.6439 58.1587 17.6439 56.3333V53.6667C17.6439 50.5564 19.9591 47.98 22.9571 47.625C23.3042 44.6052 25.8434 42.25 28.9394 42.25H29.3729C28.108 41.1335 27.3106 39.492 27.3106 37.6667V35C27.3106 31.9217 29.5784 29.3664 32.5315 28.97C32.2 26.7636 30.3181 25.0833 28.0606 25.0833H19.2727C16.783 25.0833 14.75 27.1273 14.75 29.6667V37.6667C14.75 38.0809 14.4142 38.4167 14 38.4167C13.5858 38.4167 13.25 38.0809 13.25 37.6667V29.6667C13.25 26.315 15.9384 23.5833 19.2727 23.5833H19.7062C18.4414 22.4669 17.6439 20.8254 17.6439 19V16.3333ZM34.1352 28.97C37.0883 29.3664 39.3561 31.9217 39.3561 35V37.6667C39.3561 39.492 38.5586 41.1335 37.2938 42.25H37.7273C40.0012 42.25 41.9747 43.5205 43 45.3917C44.0253 43.5205 45.9988 42.25 48.2727 42.25H48.7062C47.4414 41.1335 46.6439 39.492 46.6439 37.6667V35C46.6439 31.9217 48.9117 29.3664 51.8648 28.97C51.5333 26.7636 49.6514 25.0833 47.3939 25.0833H38.6061C36.3486 25.0833 34.4667 26.7636 34.1352 28.97ZM48.2727 43.75C46.0153 43.75 44.1334 45.4303 43.8018 47.6367C46.755 48.033 49.0227 50.5884 49.0227 53.6667V56.3333C49.0227 58.1587 48.2253 59.8002 46.9604 60.9167H47.3939C49.6679 60.9167 51.6414 62.1872 52.6667 64.0584C53.6919 62.1872 55.6655 60.9167 57.9394 60.9167H58.3729C57.108 59.8002 56.3106 58.1587 56.3106 56.3333V53.6667C56.3106 50.5884 58.5784 48.033 61.5315 47.6367C61.2 45.4303 59.3181 43.75 57.0606 43.75H48.2727ZM43 60.9167C45.4898 60.9167 47.5227 58.8727 47.5227 56.3333V53.6667C47.5227 51.1273 45.4898 49.0833 43 49.0833C40.5102 49.0833 38.4773 51.1273 38.4773 53.6667V56.3333C38.4773 58.8727 40.5102 60.9167 43 60.9167ZM42.1982 47.6367C41.8666 45.4303 39.9847 43.75 37.7273 43.75H28.9394C26.6819 43.75 24.8 45.4303 24.4685 47.6367C27.4216 48.033 29.6894 50.5884 29.6894 53.6667V56.3333C29.6894 58.1587 28.892 59.8002 27.6271 60.9167H28.0606C30.3345 60.9167 32.3081 62.1872 33.3333 64.0584C34.3586 62.1872 36.3321 60.9167 38.6061 60.9167H39.0396C37.7747 59.8002 36.9773 58.1587 36.9773 56.3333V53.6667C36.9773 50.5884 39.245 48.033 42.1982 47.6367ZM33.3333 42.25C35.8231 42.25 37.8561 40.2061 37.8561 37.6667V35C37.8561 32.4606 35.8231 30.4167 33.3333 30.4167C30.8436 30.4167 28.8106 32.4606 28.8106 35V37.6667C28.8106 40.2061 30.8436 42.25 33.3333 42.25ZM23.6667 60.9167C26.1564 60.9167 28.1894 58.8727 28.1894 56.3333V53.6667C28.1894 51.1273 26.1564 49.0833 23.6667 49.0833C21.1769 49.0833 19.1439 51.1273 19.1439 53.6667V56.3333C19.1439 58.8727 21.1769 60.9167 23.6667 60.9167ZM62.3333 60.9167C64.8231 60.9167 66.8561 58.8727 66.8561 56.3333V53.6667C66.8561 51.1273 64.8231 49.0833 62.3333 49.0833C59.8436 49.0833 57.8106 51.1273 57.8106 53.6667V56.3333C57.8106 58.8727 59.8436 60.9167 62.3333 60.9167ZM52.6667 42.25C55.1564 42.25 57.1894 40.2061 57.1894 37.6667V35C57.1894 32.4606 55.1564 30.4167 52.6667 30.4167C50.1769 30.4167 48.1439 32.4606 48.1439 35V37.6667C48.1439 40.2061 50.1769 42.25 52.6667 42.25ZM62.3333 23.5833C64.8231 23.5833 66.8561 21.5394 66.8561 19V16.3333C66.8561 13.7939 64.8231 11.75 62.3333 11.75C59.8436 11.75 57.8106 13.7939 57.8106 16.3333V19C57.8106 21.5394 59.8436 23.5833 62.3333 23.5833ZM43 23.5833C45.4898 23.5833 47.5227 21.5394 47.5227 19V16.3333C47.5227 13.7939 45.4898 11.75 43 11.75C40.5102 11.75 38.4773 13.7939 38.4773 16.3333V19C38.4773 21.5394 40.5102 23.5833 43 23.5833ZM23.6667 23.5833C26.1564 23.5833 28.1894 21.5394 28.1894 19V16.3333C28.1894 13.7939 26.1564 11.75 23.6667 11.75C21.1769 11.75 19.1439 13.7939 19.1439 16.3333V19C19.1439 21.5394 21.1769 23.5833 23.6667 23.5833Z" fill="#8289C6"/>
</svg>
