<svg width="86" height="86" viewBox="0 0 86 86" fill="none" xmlns="http://www.w3.org/2000/svg">
<path fill-rule="evenodd" clip-rule="evenodd" d="M26.75 18.75L26.75 21C26.75 21.4142 26.4142 21.75 26 21.75C25.5858 21.75 25.25 21.4142 25.25 21L25.25 18C25.25 17.8011 25.329 17.6103 25.4697 17.4697C25.6103 17.329 25.8011 17.25 26 17.25L63 17.25C63.1989 17.25 63.3897 17.329 63.5303 17.4697C63.671 17.6103 63.75 17.8011 63.75 18L63.75 66C63.75 66.1989 63.671 66.3897 63.5303 66.5303C63.3897 66.671 63.1989 66.75 63 66.75H61C60.5858 66.75 60.25 66.4142 60.25 66C60.25 65.5858 60.5858 65.25 61 65.25H62.25L62.25 18.75L26.75 18.75Z" fill="#8289C6"/>
<path fill-rule="evenodd" clip-rule="evenodd" d="M60.625 66C60.625 65.5858 60.9608 65.25 61.375 65.25H65.25L65.25 18.75L63 18.75V17.25L66 17.25C66.4142 17.25 66.75 17.5858 66.75 18L66.75 66C66.75 66.1989 66.671 66.3897 66.5303 66.5303C66.3897 66.671 66.1989 66.75 66 66.75H61.375C60.9608 66.75 60.625 66.4142 60.625 66Z" fill="#8289C6"/>
<path fill-rule="evenodd" clip-rule="evenodd" d="M63.25 66C63.25 65.5858 63.5858 65.25 64 65.25H67.875L67.875 18.75L65.625 18.75V17.25L68.625 17.25C69.0392 17.25 69.375 17.5858 69.375 18L69.375 66C69.375 66.1989 69.296 66.3897 69.1553 66.5303C69.0147 66.671 68.8239 66.75 68.625 66.75H64C63.5858 66.75 63.25 66.4142 63.25 66Z" fill="#8289C6"/>
<path fill-rule="evenodd" clip-rule="evenodd" d="M22.4697 69.5303C22.329 69.3897 22.25 69.1989 22.25 69L22.25 21C22.25 20.5858 22.5858 20.25 23 20.25L60 20.25C60.1989 20.25 60.3897 20.329 60.5303 20.4697C60.671 20.6103 60.75 20.8011 60.75 21L60.75 69C60.75 69.4142 60.4142 69.75 60 69.75H23C22.8011 69.75 22.6103 69.671 22.4697 69.5303ZM23.75 68.25H59.25L59.25 21.75L23.75 21.75L23.75 68.25Z" fill="#8289C6"/>
<path fill-rule="evenodd" clip-rule="evenodd" d="M28.75 26C28.75 25.5858 29.0858 25.25 29.5 25.25H53.5C53.9142 25.25 54.25 25.5858 54.25 26C54.25 26.4142 53.9142 26.75 53.5 26.75H29.5C29.0858 26.75 28.75 26.4142 28.75 26Z" fill="#8289C6"/>
<path fill-rule="evenodd" clip-rule="evenodd" d="M28.75 29C28.75 28.5858 29.0858 28.25 29.5 28.25H53.5C53.9142 28.25 54.25 28.5858 54.25 29C54.25 29.4142 53.9142 29.75 53.5 29.75H29.5C29.0858 29.75 28.75 29.4142 28.75 29Z" fill="#8289C6"/>
<path fill-rule="evenodd" clip-rule="evenodd" d="M28.75 54C28.75 53.5858 29.0858 53.25 29.5 53.25H53.5C53.9142 53.25 54.25 53.5858 54.25 54C54.25 54.4142 53.9142 54.75 53.5 54.75H29.5C29.0858 54.75 28.75 54.4142 28.75 54Z" fill="#8289C6"/>
<path fill-rule="evenodd" clip-rule="evenodd" d="M28.75 57C28.75 56.5858 29.0858 56.25 29.5 56.25H53.5C53.9142 56.25 54.25 56.5858 54.25 57C54.25 57.4142 53.9142 57.75 53.5 57.75H29.5C29.0858 57.75 28.75 57.4142 28.75 57ZM28.75 60C28.75 59.5858 29.0858 59.25 29.5 59.25H53.5C53.9142 59.25 54.25 59.5858 54.25 60C54.25 60.4142 53.9142 60.75 53.5 60.75H29.5C29.0858 60.75 28.75 60.4142 28.75 60ZM28.75 63C28.75 62.5858 29.0858 62.25 29.5 62.25H38.5C38.9142 62.25 39.25 62.5858 39.25 63C39.25 63.4142 38.9142 63.75 38.5 63.75H29.5C29.0858 63.75 28.75 63.4142 28.75 63Z" fill="#8289C6"/>
<path fill-rule="evenodd" clip-rule="evenodd" d="M30 50.75C29.5858 50.75 29.25 50.4142 29.25 50V39C29.25 38.5858 29.5858 38.25 30 38.25C30.4142 38.25 30.75 38.5858 30.75 39V50C30.75 50.4142 30.4142 50.75 30 50.75ZM32.5556 50.75C32.1413 50.75 31.8056 50.4142 31.8056 50V35C31.8056 34.5858 32.1413 34.25 32.5556 34.25C32.9698 34.25 33.3056 34.5858 33.3056 35L33.3056 50C33.3056 50.4142 32.9698 50.75 32.5556 50.75ZM35.1111 50.75C34.6969 50.75 34.3611 50.4142 34.3611 50L34.3611 37.5C34.3611 37.0858 34.6969 36.75 35.1111 36.75C35.5253 36.75 35.8611 37.0858 35.8611 37.5L35.8611 50C35.8611 50.4142 35.5253 50.75 35.1111 50.75ZM37.6667 50.75C37.2525 50.75 36.9167 50.4142 36.9167 50V39C36.9167 38.5858 37.2525 38.25 37.6667 38.25C38.0809 38.25 38.4167 38.5858 38.4167 39V50C38.4167 50.4142 38.0809 50.75 37.6667 50.75ZM40.2222 50.75C39.808 50.75 39.4722 50.4142 39.4722 50V43C39.4722 42.5858 39.808 42.25 40.2222 42.25C40.6364 42.25 40.9722 42.5858 40.9722 43V50C40.9722 50.4142 40.6364 50.75 40.2222 50.75ZM42.7778 50.75C42.3636 50.75 42.0278 50.4142 42.0278 50V42C42.0278 41.5858 42.3636 41.25 42.7778 41.25C43.192 41.25 43.5278 41.5858 43.5278 42V50C43.5278 50.4142 43.192 50.75 42.7778 50.75ZM45.3333 50.75C44.9191 50.75 44.5833 50.4142 44.5833 50V38.5C44.5833 38.0858 44.9191 37.75 45.3333 37.75C45.7476 37.75 46.0833 38.0858 46.0833 38.5V50C46.0833 50.4142 45.7476 50.75 45.3333 50.75ZM47.8889 50.75C47.4747 50.75 47.1389 50.4142 47.1389 50V41C47.1389 40.5858 47.4747 40.25 47.8889 40.25C48.3031 40.25 48.6389 40.5858 48.6389 41V50C48.6389 50.4142 48.3031 50.75 47.8889 50.75ZM50.4444 50.75C50.0302 50.75 49.6944 50.4142 49.6944 50V42.5C49.6944 42.0858 50.0302 41.75 50.4444 41.75C50.8587 41.75 51.1944 42.0858 51.1944 42.5V50C51.1944 50.4142 50.8587 50.75 50.4444 50.75ZM53 50.75C52.5858 50.75 52.25 50.4142 52.25 50V41C52.25 40.5858 52.5858 40.25 53 40.25C53.4142 40.25 53.75 40.5858 53.75 41V50C53.75 50.4142 53.4142 50.75 53 50.75Z" fill="#8289C6"/>
</svg>
