<svg width="86" height="86" viewBox="0 0 86 86" fill="none" xmlns="http://www.w3.org/2000/svg">
<path fill-rule="evenodd" clip-rule="evenodd" d="M26.3131 17C26.3131 16.5858 26.6488 16.25 27.0631 16.25H38.5367C38.9509 16.25 39.2867 16.5858 39.2867 17V20.0735H44.6559C45.0701 20.0735 45.4059 20.4093 45.4059 20.8235V26.25H49.6061V23.8235C49.6061 23.4093 49.9418 23.0735 50.3561 23.0735H59.7764V18.5C59.7764 18.0858 60.1122 17.75 60.5264 17.75H67C67.4142 17.75 67.75 18.0858 67.75 18.5V68.25H71.5C71.9142 68.25 72.25 68.5858 72.25 69C72.25 69.4142 71.9142 69.75 71.5 69.75H14C13.5858 69.75 13.25 69.4142 13.25 69C13.25 68.5858 13.5858 68.25 14 68.25H17.5447V23.1176C17.5447 22.7034 17.8805 22.3676 18.2947 22.3676H26.3131V17ZM27.8131 22.3382V24.6618H37.7867V22.3382H27.8131ZM37.7867 20.8382H27.8131V17.75H37.7867V20.8382ZM39.2867 31C39.2867 31.4142 38.9509 31.75 38.5367 31.75C38.1224 31.75 37.7867 31.4142 37.7867 31V26.1618H27.8131V63.6618H37.7867V54C37.7867 53.5858 38.1224 53.25 38.5367 53.25C38.9509 53.25 39.2867 53.5858 39.2867 54V68.25H43.9059V56.5C43.9059 56.0858 44.2417 55.75 44.6559 55.75C45.0701 55.75 45.4059 56.0858 45.4059 56.5V68.25H49.6061V53.3382C49.6061 52.924 49.9418 52.5882 50.3561 52.5882C50.7703 52.5882 51.1061 52.924 51.1061 53.3382V61.3676H59.7253V24.5735H51.1061V31C51.1061 31.4142 50.7703 31.75 50.3561 31.75C49.9418 31.75 49.6061 31.4142 49.6061 31V27.75H45.4059V31H43.9059V21.5735H39.2867V31ZM59.7253 62.8676H51.1061V68.25H59.7253V62.8676ZM61.2764 68.25H66.25V65.1618H61.2764V68.25ZM61.2764 63.6618H66.25V26.1618H61.2764V63.6618ZM61.2764 24.6618H66.25V19.25H61.2764V24.6618ZM37.7867 68.25V65.1618H27.8131V68.25H37.7867ZM26.3131 68.25V62.8676H19.0447V68.25H26.3131ZM19.0447 61.3676H26.3131V59.8088H19.0447V61.3676ZM19.0447 58.3088H26.3131V29.9853H19.0447V58.3088ZM19.0447 28.4853H26.3131V23.8676H19.0447V28.4853Z" fill="#8289C6"/>
<path fill-rule="evenodd" clip-rule="evenodd" d="M33.25 31.5C33.25 31.0858 33.5858 30.75 34 30.75H54C54.1989 30.75 54.3897 30.829 54.5303 30.9697C54.671 31.1103 54.75 31.3011 54.75 31.5V46.5C54.75 50.1636 51.9412 52.7337 49.3975 54.3235C48.1007 55.134 46.8096 55.7306 45.846 56.124C45.3631 56.3212 44.9597 56.4685 44.6752 56.5671C44.5329 56.6164 44.4202 56.6535 44.342 56.6787C44.3029 56.6913 44.2724 56.7009 44.2511 56.7075L44.2262 56.7151L44.219 56.7173L44.2168 56.718C44.2165 56.7181 44.2155 56.7184 44 56C43.7845 56.7184 43.7842 56.7183 43.784 56.7182L43.781 56.7173L43.7738 56.7151L43.7489 56.7075C43.7276 56.7009 43.6971 56.6913 43.658 56.6787C43.5798 56.6535 43.4671 56.6164 43.3248 56.5671C43.0403 56.4685 42.6369 56.3212 42.154 56.124C41.1904 55.7306 39.8993 55.134 38.6025 54.3235C36.0588 52.7337 33.25 50.1636 33.25 46.5V31.5ZM34.75 32.25V46.5C34.75 49.3364 36.9412 51.5163 39.3975 53.0515C40.6007 53.8035 41.8096 54.3632 42.721 54.7353C43.1756 54.921 43.5534 55.0588 43.8158 55.1497C43.8857 55.1739 43.9473 55.1948 44 55.2123C44.0527 55.1948 44.1143 55.1739 44.1842 55.1497C44.4466 55.0588 44.8244 54.921 45.279 54.7353C46.1904 54.3632 47.3993 53.8035 48.6025 53.0515C51.0588 51.5163 53.25 49.3364 53.25 46.5V32.25H34.75ZM44 56L43.784 56.7182C43.9245 56.7604 44.0749 56.7605 44.2155 56.7184L44 56Z" fill="#8289C6"/>
<path fill-rule="evenodd" clip-rule="evenodd" d="M38.8869 35.2585C39.2531 35.2026 39.6053 35.4226 39.7159 35.7762L41.8748 42.6849L43.3897 40.564C43.5305 40.3669 43.7578 40.2499 44 40.2499C44.2422 40.2499 44.4695 40.3669 44.6103 40.564L46.1252 42.6849L48.2841 35.7762C48.3947 35.4226 48.7469 35.2026 49.1131 35.2585C49.4794 35.3144 49.75 35.6294 49.75 35.9999V47.9999C49.75 48.4142 49.4142 48.7499 49 48.7499H45.8014L44.7159 52.2236C44.618 52.5368 44.328 52.7499 44 52.7499C43.672 52.7499 43.382 52.5368 43.2841 52.2236L42.1986 48.7499H39C38.5858 48.7499 38.25 48.4142 38.25 47.9999V35.9999C38.25 35.6294 38.5206 35.3144 38.8869 35.2585ZM43.7701 48.7499L44 49.4855L44.2299 48.7499H43.7701ZM44.6986 47.2499H43.3014L42.4358 44.4801L44 42.2903L45.5642 44.4801L44.6986 47.2499ZM46.2701 47.2499H47.5426L46.6574 46.0107L46.2701 47.2499ZM47.2184 44.2154L48.25 45.6596V40.9144L47.2184 44.2154ZM41.3426 46.0107L41.7299 47.2499H40.4574L41.3426 46.0107ZM40.7816 44.2154L39.75 40.9144V45.6596L40.7816 44.2154Z" fill="#8289C6"/>
</svg>
