<svg width="40" height="86" viewBox="0 0 40 86" fill="none" xmlns="http://www.w3.org/2000/svg">
<path d="M25.513 51.2652L26.0108 51.3121L25.513 51.2652ZM4.96788 14.788L4.54954 15.0618L4.96788 14.788ZM1.04256 1L1.12984 0.507675C0.993687 0.483541 0.853621 0.516865 0.742928 0.599727C0.632235 0.68259 0.560798 0.807592 0.545596 0.945026L1.04256 1ZM20.7703 20.4528L20.2721 20.4108L20.7703 20.4528ZM23.7679 7.43663L24.1658 7.1339C24.0653 7.00175 23.9057 6.92812 23.7399 6.93741C23.5741 6.94669 23.4238 7.03767 23.3386 7.18022L23.7679 7.43663ZM28.1476 36.4075L28.6175 36.5783L28.1476 36.4075ZM34.4195 24.704L34.8852 24.522C34.8246 24.3669 34.6907 24.2521 34.5281 24.2159C34.3655 24.1798 34.1956 24.2269 34.0749 24.3417L34.4195 24.704ZM27.9673 54.9498L28.3211 55.3031L27.9673 54.9498ZM39 46.7782L39.4988 46.8129C39.5102 46.6481 39.4396 46.4883 39.31 46.3859C39.1804 46.2835 39.0086 46.2517 38.851 46.301L39 46.7782ZM23.9862 71.1146L23.8741 70.6274L23.9862 71.1146ZM37.2586 70.2092L37.669 70.4948C37.7608 70.3629 37.7836 70.195 37.7303 70.0434C37.677 69.8918 37.5542 69.7751 37.4001 69.7297L37.2586 70.2092ZM17.5587 28.5079L17.2973 28.9341L17.5587 28.5079ZM6.76484 24.1785L6.77165 23.6786C6.61742 23.6765 6.47086 23.7457 6.37448 23.8661C6.2781 23.9865 6.24269 24.1447 6.27852 24.2947L6.76484 24.1785ZM19.8841 44.0325L19.5684 44.4202L19.8841 44.0325ZM9.18636 37.971L9.2603 37.4765C9.10741 37.4537 8.95254 37.5028 8.84081 37.6096C8.72908 37.7165 8.67305 37.869 8.68905 38.0228L9.18636 37.971ZM16.6708 59.9996L17.0639 59.6906L16.6708 59.9996ZM7.03992 51.212L7.22269 50.7466C7.07676 50.6893 6.91239 50.7038 6.77871 50.7857C6.64502 50.8676 6.5575 51.0074 6.54228 51.1635L7.03992 51.212ZM25.0152 51.2183C23.6251 65.969 14.8946 78.2048 2.8487 84.5577L3.31519 85.4423C15.6514 78.9362 24.5882 66.4078 26.0108 51.3121L25.0152 51.2183ZM15.5305 20.1916C22.405 28.5229 26.1158 39.5402 25.0152 51.2183L26.0108 51.3121C27.1371 39.3617 23.339 28.0837 16.3018 19.5552L15.5305 20.1916ZM13.0473 8.08673C14.9456 10.6629 15.8428 13.2037 16.0261 15.2956C16.2114 17.4093 15.6668 18.9827 14.8021 19.748L15.4649 20.4968C16.6626 19.4367 17.2218 17.4842 17.0223 15.2083C16.8209 12.9105 15.8451 10.1978 13.8523 7.49351L13.0473 8.08673ZM14.8021 19.748C14.4154 20.0903 13.8566 20.255 13.1316 20.2049C12.4042 20.1546 11.5465 19.8883 10.6327 19.4149C8.8059 18.4685 6.843 16.7395 5.38622 14.5141L4.54954 15.0618C6.09366 17.4207 8.1824 19.2717 10.1726 20.3028C11.1673 20.8181 12.1594 21.14 13.0626 21.2025C13.9681 21.2651 14.8205 21.0672 15.4649 20.4968L14.8021 19.748ZM5.38622 14.5141C3.10132 11.0236 2.14064 7.6472 1.75078 5.14595C1.55585 3.89536 1.50383 2.86476 1.50021 2.1502C1.4984 1.79301 1.50868 1.51507 1.5192 1.32844C1.52446 1.23513 1.52977 1.16468 1.53366 1.11859C1.5356 1.09555 1.53718 1.0786 1.53822 1.06793C1.53875 1.0626 1.53913 1.05884 1.53936 1.05667C1.53947 1.05559 1.53954 1.0549 1.53957 1.05462C1.53959 1.05447 1.53959 1.05443 1.53959 1.05449C1.53958 1.05452 1.53957 1.05464 1.53957 1.05466C1.53955 1.0548 1.53953 1.05497 1.04256 1C0.545596 0.945026 0.545571 0.945248 0.545544 0.945495C0.545531 0.945611 0.545501 0.945884 0.545476 0.946117C0.545425 0.946582 0.545364 0.94715 0.545292 0.947819C0.545148 0.949156 0.544963 0.9509 0.544739 0.953047C0.544292 0.957341 0.543691 0.963247 0.542959 0.970743C0.541495 0.985733 0.539509 1.00708 0.53719 1.03459C0.532551 1.08962 0.526578 1.16932 0.520782 1.27218C0.509191 1.47787 0.4983 1.77631 0.500221 2.15527C0.504063 2.91303 0.559134 3.99391 0.762708 5.29996C1.16985 7.91202 2.17183 11.4296 4.54954 15.0618L5.38622 14.5141ZM1.04256 1C0.955292 1.49232 0.955199 1.49231 0.955138 1.4923C0.955161 1.4923 0.955132 1.4923 0.955177 1.4923C0.955268 1.49232 0.955487 1.49236 0.955835 1.49242C0.956529 1.49255 0.957735 1.49276 0.959447 1.49307C0.96287 1.4937 0.968315 1.49469 0.97573 1.49607C0.990562 1.49883 1.01328 1.50312 1.04347 1.509C1.10387 1.52078 1.19418 1.53895 1.3112 1.56405C1.54529 1.61428 1.88601 1.69221 2.30785 1.80221C3.15213 2.02235 4.3181 2.37009 5.60265 2.87964C8.18598 3.90438 11.1842 5.55836 13.0473 8.08673L13.8523 7.49351C11.8243 4.74137 8.61889 3.0003 5.97138 1.9501C4.64051 1.42218 3.43426 1.06248 2.56017 0.834562C2.12282 0.720523 1.76782 0.639265 1.52098 0.586305C1.39754 0.559821 1.30108 0.540399 1.23484 0.527483C1.20171 0.521024 1.17613 0.516191 1.1585 0.512913C1.14968 0.511274 1.14285 0.510024 1.13806 0.509154C1.13566 0.508719 1.13377 0.508379 1.1324 0.508133C1.13171 0.50801 1.13116 0.50791 1.13073 0.507834C1.13052 0.507796 1.13029 0.507756 1.13019 0.507737C1.12999 0.507703 1.12984 0.507675 1.04256 1ZM27.976 20.0537C27.8756 23.0701 27.1209 25.4186 26.1337 26.9936C25.1322 28.5916 23.9556 29.3078 23.029 29.2978L23.0181 30.2977C24.4509 30.3132 25.8978 29.2531 26.981 27.5247C28.0787 25.7733 28.8704 23.2453 28.9755 20.087L27.976 20.0537ZM23.029 29.2978C22.6151 29.2933 22.2913 29.1173 22.0163 28.7483C21.7257 28.3583 21.4963 27.7561 21.3414 26.9428C21.0324 25.3199 21.0535 23.0464 21.2685 20.4948L20.2721 20.4108C20.0554 22.9808 20.0234 25.367 20.3591 27.1298C20.5265 28.0093 20.7939 28.7814 21.2144 29.3458C21.6506 29.9311 22.2523 30.2894 23.0181 30.2977L23.029 29.2978ZM21.2685 20.4948C21.6582 15.8726 22.4011 12.6546 23.0408 10.6015C23.3607 9.57486 23.6549 8.83916 23.8666 8.36451C23.9724 8.12717 24.0576 7.95504 24.115 7.84438C24.1437 7.78905 24.1655 7.74909 24.1795 7.72402C24.1865 7.71149 24.1915 7.70267 24.1945 7.69753C24.196 7.69496 24.197 7.6933 24.1974 7.69255C24.1976 7.69218 24.1977 7.69203 24.1977 7.69211C24.1976 7.69215 24.1976 7.69225 24.1975 7.6924C24.1975 7.69247 24.1974 7.69263 24.1973 7.69267C24.1972 7.69284 24.1971 7.69303 23.7679 7.43663C23.3386 7.18022 23.3385 7.18044 23.3384 7.18067C23.3383 7.18076 23.3382 7.181 23.338 7.18119C23.3378 7.18157 23.3376 7.18201 23.3373 7.1825C23.3367 7.18349 23.336 7.1847 23.3351 7.18614C23.3334 7.18902 23.3312 7.19282 23.3285 7.19754C23.323 7.20698 23.3155 7.22011 23.3061 7.23698C23.2873 7.27072 23.2608 7.31943 23.2275 7.38357C23.1609 7.51187 23.0671 7.70188 22.9532 7.95731C22.7254 8.4682 22.4175 9.24055 22.0861 10.304C21.4233 12.431 20.6674 15.721 20.2721 20.4108L21.2685 20.4948ZM23.7679 7.43663C23.3699 7.73935 23.3699 7.73928 23.3698 7.73924C23.3699 7.73926 23.3698 7.73924 23.3699 7.73927C23.3699 7.73934 23.3701 7.73951 23.3703 7.73978C23.3707 7.74031 23.3714 7.74123 23.3723 7.74254C23.3743 7.74516 23.3775 7.74932 23.3817 7.755C23.3902 7.76636 23.4032 7.7838 23.4204 7.8071C23.4547 7.85371 23.5057 7.92378 23.5709 8.01567C23.7014 8.19947 23.8887 8.47038 24.1135 8.81527C24.5632 9.50549 25.1611 10.4896 25.7524 11.6629C26.9413 14.0221 28.0747 17.0906 27.976 20.0537L28.9755 20.087C29.0824 16.8752 27.8619 13.6268 26.6454 11.2129C26.034 9.99961 25.4164 8.98311 24.9513 8.26934C24.7186 7.91223 24.5237 7.6303 24.3863 7.43676C24.3176 7.33998 24.2632 7.26525 24.2257 7.21423C24.2069 7.18872 24.1923 7.16914 24.1822 7.15568C24.1772 7.14895 24.1733 7.14376 24.1705 7.14012C24.1691 7.1383 24.1681 7.13687 24.1673 7.13583C24.1669 7.13531 24.1666 7.13489 24.1663 7.13457C24.1662 7.13441 24.1661 7.13424 24.166 7.13416C24.1659 7.13402 24.1658 7.1339 23.7679 7.43663ZM35.1302 38.1475C34.2443 41.0342 32.9088 43.0809 31.5567 44.3113C30.1855 45.559 28.8821 45.9031 28.0045 45.6236L27.701 46.5765C29.0705 47.0126 30.7382 46.408 32.2297 45.0509C33.7401 43.6766 35.1588 41.4626 36.0862 38.4409L35.1302 38.1475ZM28.0045 45.6236C27.6091 45.4977 27.3406 45.2294 27.1716 44.7845C26.9944 44.3178 26.9333 43.6652 26.9984 42.8334C27.1283 41.1731 27.744 38.9813 28.6175 36.5783L27.6776 36.2367C26.7975 38.6578 26.1423 40.9544 26.0014 42.7554C25.9311 43.6543 25.9846 44.4756 26.2368 45.1396C26.4972 45.8254 26.9728 46.3445 27.701 46.5765L28.0045 45.6236ZM28.6175 36.5783C30.2 32.2248 31.7522 29.3323 32.9004 27.5359C33.4746 26.6377 33.948 26.0132 34.274 25.6169C34.437 25.4187 34.5632 25.2776 34.6468 25.1877C34.6886 25.1428 34.7198 25.1107 34.7395 25.0907C34.7494 25.0807 34.7565 25.0737 34.7606 25.0697C34.7627 25.0677 34.764 25.0664 34.7646 25.0658C34.7648 25.0656 34.7649 25.0655 34.7649 25.0655C34.7648 25.0656 34.7647 25.0657 34.7646 25.0658C34.7645 25.0659 34.7644 25.066 34.7644 25.066C34.7642 25.0662 34.764 25.0663 34.4195 24.704C34.0749 24.3417 34.0747 24.3419 34.0745 24.3421C34.0744 24.3421 34.0742 24.3423 34.0741 24.3425C34.0737 24.3428 34.0734 24.3431 34.073 24.3435C34.0721 24.3443 34.0711 24.3453 34.0699 24.3465C34.0675 24.3488 34.0643 24.3519 34.0605 24.3557C34.0527 24.3633 34.0421 24.3738 34.0286 24.3875C34.0016 24.4147 33.9634 24.4542 33.9147 24.5066C33.8172 24.6113 33.6776 24.7678 33.5017 24.9816C33.1499 25.4093 32.6531 26.0661 32.0579 26.9974C30.8672 28.86 29.2834 31.8192 27.6776 36.2367L28.6175 36.5783ZM34.4195 24.704C33.9538 24.886 33.9537 24.8859 33.9537 24.8859C33.9537 24.8859 33.9537 24.8859 33.9537 24.8859C33.9538 24.886 33.9539 24.8862 33.954 24.8866C33.9542 24.8872 33.9547 24.8883 33.9553 24.8899C33.9565 24.893 33.9584 24.898 33.961 24.9047C33.9662 24.9183 33.974 24.939 33.9843 24.9666C34.005 25.0218 34.0354 25.1046 34.0737 25.2127C34.1503 25.4288 34.2584 25.7458 34.3828 26.1453C34.6319 26.9448 34.9456 28.072 35.2033 29.3801C35.7216 32.0108 36.0007 35.3111 35.1302 38.1475L36.0862 38.4409C37.029 35.369 36.7138 31.8741 36.1844 29.1868C35.9183 27.836 35.5947 26.6734 35.3376 25.8479C35.2089 25.4349 35.0967 25.1056 35.0162 24.8786C34.976 24.765 34.9436 24.677 34.9212 24.6168C34.9099 24.5867 34.9011 24.5636 34.8951 24.5477C34.892 24.5397 34.8897 24.5336 34.888 24.5293C34.8872 24.5272 34.8865 24.5255 34.8861 24.5243C34.8858 24.5237 34.8856 24.5232 34.8855 24.5228C34.8854 24.5226 34.8853 24.5224 34.8853 24.5223C34.8852 24.5221 34.8852 24.522 34.4195 24.704ZM33.7018 60.1058C31.5947 62.4481 29.4441 63.7582 27.6427 64.275C25.8218 64.7975 24.4516 64.4935 23.746 63.7792L23.0346 64.482C24.1028 65.5633 25.9189 65.8099 27.9185 65.2362C29.9377 64.6569 32.2418 63.224 34.4452 60.7746L33.7018 60.1058ZM23.746 63.7792C23.42 63.4492 23.2834 63.0374 23.3249 62.5091C23.3681 61.9611 23.6048 61.2965 24.0349 60.5277C24.8944 58.9913 26.4418 57.1845 28.3211 55.3031L27.6135 54.5964C25.7193 56.4928 24.0913 58.3787 23.1622 60.0394C22.698 60.8691 22.3872 61.6792 22.328 62.4306C22.2673 63.2018 22.4737 63.9142 23.0346 64.482L23.746 63.7792ZM28.3211 55.3031C31.7268 51.8935 34.4554 49.875 36.3209 48.7125C37.2538 48.1313 37.9712 47.7638 38.4501 47.5433C38.6896 47.433 38.8694 47.3595 38.9869 47.3143C39.0456 47.2917 39.0887 47.2762 39.1158 47.2667C39.1294 47.262 39.139 47.2588 39.1445 47.257C39.1473 47.2561 39.1491 47.2555 39.1498 47.2552C39.1502 47.2551 39.1503 47.2551 39.1502 47.2551C39.1501 47.2552 39.15 47.2552 39.1498 47.2553C39.1497 47.2553 39.1495 47.2553 39.1495 47.2554C39.1493 47.2554 39.149 47.2555 39 46.7782C38.851 46.301 38.8507 46.301 38.8504 46.3011C38.8503 46.3012 38.85 46.3012 38.8498 46.3013C38.8494 46.3015 38.8489 46.3016 38.8483 46.3018C38.8471 46.3022 38.8457 46.3026 38.8441 46.3031C38.8408 46.3042 38.8364 46.3056 38.8311 46.3074C38.8204 46.3109 38.8058 46.3158 38.7871 46.3223C38.7498 46.3353 38.6966 46.3545 38.6278 46.381C38.4903 46.4339 38.2907 46.5157 38.0318 46.6349C37.5141 46.8733 36.7598 47.2608 35.7921 47.8638C33.8566 49.0699 31.0688 51.1372 27.6135 54.5964L28.3211 55.3031ZM39 46.7782C38.5012 46.7436 38.5012 46.7435 38.5012 46.7435C38.5012 46.7435 38.5012 46.7435 38.5012 46.7436C38.5012 46.7437 38.5012 46.7439 38.5011 46.7443C38.5011 46.7451 38.501 46.7464 38.5009 46.7483C38.5006 46.752 38.5002 46.7578 38.4996 46.7656C38.4984 46.7813 38.4965 46.8053 38.4938 46.8371C38.4884 46.9007 38.48 46.9957 38.4676 47.1188C38.4429 47.3652 38.4027 47.7242 38.3411 48.1707C38.2178 49.0642 38.009 50.3051 37.6677 51.6929C36.9811 54.484 35.7738 57.8025 33.7018 60.1058L34.4452 60.7746C36.6837 58.2862 37.9397 54.7737 38.6387 51.9318C38.9902 50.503 39.2048 49.2269 39.3317 48.3074C39.3952 47.8475 39.4368 47.4761 39.4626 47.2186C39.4755 47.0899 39.4845 46.9896 39.4903 46.9209C39.4932 46.8866 39.4953 46.8602 39.4966 46.842C39.4973 46.8329 39.4979 46.8259 39.4982 46.8211C39.4984 46.8186 39.4985 46.8167 39.4986 46.8154C39.4987 46.8147 39.4987 46.8141 39.4987 46.8137C39.4988 46.8135 39.4988 46.8133 39.4988 46.8132C39.4988 46.813 39.4988 46.8129 39 46.7782ZM25.995 78.8112C23.0611 79.6597 20.6299 79.5903 18.896 79.0326C17.1486 78.4705 16.1747 77.4438 15.9638 76.4091L14.9839 76.6088C15.2927 78.1233 16.641 79.3577 18.5898 79.9845C20.552 80.6157 23.191 80.663 26.2728 79.7719L25.995 78.8112ZM15.9638 76.4091C15.7742 75.4791 16.3614 74.5912 17.8879 73.7265C19.3846 72.8786 21.5847 72.1801 24.0983 71.6019L23.8741 70.6274C21.3378 71.2108 19.0219 71.9348 17.395 72.8564C15.7978 73.7612 14.6538 74.9896 14.9839 76.6088L15.9638 76.4091ZM24.0983 71.6019C28.6528 70.5543 31.9303 70.333 34.0568 70.3699C35.1202 70.3883 35.8963 70.4713 36.4008 70.548C36.6531 70.5864 36.8377 70.6232 36.9564 70.6496C37.0157 70.6628 37.0586 70.6734 37.0854 70.6803C37.0987 70.6837 37.108 70.6863 37.1133 70.6877C37.116 70.6885 37.1176 70.6889 37.1183 70.6891C37.1186 70.6892 37.1186 70.6892 37.1185 70.6892C37.1184 70.6892 37.1182 70.6891 37.118 70.689C37.1179 70.689 37.1177 70.689 37.1176 70.6889C37.1174 70.6889 37.1172 70.6888 37.2586 70.2092C37.4001 69.7297 37.3998 69.7296 37.3995 69.7295C37.3994 69.7295 37.3991 69.7294 37.3989 69.7293C37.3984 69.7292 37.3979 69.729 37.3973 69.7288C37.3961 69.7285 37.3947 69.7281 37.393 69.7276C37.3896 69.7266 37.3853 69.7254 37.3799 69.7239C37.3692 69.721 37.3544 69.717 37.3355 69.7121C37.2978 69.7024 37.2439 69.6891 37.1735 69.6734C37.0326 69.6421 36.8258 69.6012 36.5511 69.5594C36.0017 69.4759 35.1812 69.3892 34.0742 69.37C31.8599 69.3317 28.5012 69.5631 23.8741 70.6274L24.0983 71.6019ZM37.2586 70.2092C36.8482 69.9237 36.8482 69.9236 36.8483 69.9236C36.8482 69.9236 36.8483 69.9236 36.8482 69.9236C36.8481 69.9237 36.848 69.924 36.8478 69.9243C36.8473 69.9249 36.8465 69.926 36.8455 69.9276C36.8433 69.9306 36.84 69.9354 36.8354 69.9419C36.8262 69.9548 36.8122 69.9746 36.7935 70.0006C36.7561 70.0528 36.6998 70.1304 36.6258 70.2303C36.4776 70.43 36.2583 70.7187 35.9761 71.0712C35.4112 71.7766 34.5962 72.7351 33.5965 73.7465C31.5845 75.7823 28.8773 77.9777 25.995 78.8112L26.2728 79.7719C29.4062 78.8657 32.2614 76.52 34.3078 74.4495C35.3374 73.4078 36.1756 72.4219 36.7566 71.6962C37.0474 71.3332 37.2742 71.0346 37.4289 70.826C37.5063 70.7217 37.5657 70.6398 37.606 70.5836C37.6262 70.5555 37.6416 70.5337 37.6522 70.5188C37.6575 70.5113 37.6615 70.5056 37.6643 70.5016C37.6657 70.4995 37.6668 70.498 37.6676 70.4968C37.668 70.4963 37.6683 70.4958 37.6686 70.4955C37.6687 70.4953 37.6688 70.4951 37.6689 70.4951C37.669 70.4949 37.669 70.4948 37.2586 70.2092ZM12.7711 35.4025C15.0667 37.0058 17.3049 37.676 19.1688 37.6555C21.021 37.6351 22.5564 36.9244 23.3133 35.7034L22.4634 35.1765C21.9422 36.0172 20.7884 36.6376 19.1578 36.6556C17.5387 36.6734 15.5006 36.0891 13.3437 34.5827L12.7711 35.4025ZM23.3133 35.7034C23.7085 35.0659 23.7899 34.3821 23.6194 33.6972C23.4535 33.0303 23.0545 32.3799 22.521 31.7576C21.4558 30.515 19.7488 29.2644 17.8201 28.0817L17.2973 28.9341C19.205 30.1039 20.8018 31.2885 21.7618 32.4084C22.241 32.9674 22.5349 33.4801 22.649 33.9386C22.7586 34.3792 22.7071 34.7833 22.4634 35.1765L23.3133 35.7034ZM17.8201 28.0817C14.2982 25.922 11.5604 24.8212 9.68962 24.2603C8.75436 23.9798 8.03644 23.8345 7.54636 23.7593C7.30136 23.7217 7.1134 23.7015 6.98381 23.6908C6.91902 23.6855 6.86883 23.6824 6.83342 23.6807C6.81571 23.6799 6.80169 23.6794 6.79139 23.679C6.78624 23.6789 6.78202 23.6788 6.77872 23.6787C6.77708 23.6787 6.77567 23.6786 6.77449 23.6786C6.7739 23.6786 6.77337 23.6786 6.77289 23.6786C6.77266 23.6786 6.77235 23.6786 6.77223 23.6786C6.77193 23.6786 6.77165 23.6786 6.76484 24.1785C6.75803 24.6785 6.75778 24.6785 6.75754 24.6785C6.75748 24.6785 6.75726 24.6785 6.75714 24.6785C6.7569 24.6785 6.75672 24.6785 6.75659 24.6785C6.75634 24.6784 6.75633 24.6784 6.75655 24.6785C6.75698 24.6785 6.75834 24.6785 6.76063 24.6786C6.7652 24.6787 6.77348 24.679 6.78544 24.6796C6.80936 24.6807 6.84803 24.683 6.90127 24.6874C7.00776 24.6962 7.17262 24.7136 7.39458 24.7477C7.83846 24.8158 8.51113 24.9509 9.40241 25.2181C11.1847 25.7525 13.8438 26.8164 17.2973 28.9341L17.8201 28.0817ZM6.76484 24.1785C6.27852 24.2947 6.27855 24.2948 6.27859 24.295C6.27862 24.2951 6.27866 24.2953 6.27871 24.2955C6.2788 24.2958 6.27892 24.2963 6.27907 24.297C6.27936 24.2982 6.27977 24.2999 6.28029 24.302C6.28134 24.3063 6.28284 24.3125 6.2848 24.3204C6.28871 24.3363 6.29446 24.3594 6.30206 24.3892C6.31727 24.4489 6.33991 24.5359 6.37017 24.647C6.43069 24.8692 6.52175 25.1885 6.64491 25.5807C6.89105 26.3645 7.26637 27.4425 7.7837 28.6204C8.81023 30.9578 10.4291 33.7667 12.7711 35.4025L13.3437 34.5827C11.2334 33.1087 9.70597 30.5105 8.69929 28.2183C8.20002 27.0815 7.83701 26.0391 7.59897 25.2811C7.48005 24.9024 7.39256 24.5955 7.33504 24.3843C7.30629 24.2787 7.28505 24.1971 7.27113 24.1424C7.26416 24.1151 7.25904 24.0945 7.25572 24.081C7.25406 24.0743 7.25285 24.0693 7.25209 24.0662C7.25171 24.0646 7.25144 24.0635 7.25129 24.0629C7.25121 24.0626 7.25116 24.0624 7.25114 24.0623C7.25113 24.0622 7.25113 24.0623 7.25113 24.0622C7.25114 24.0623 7.25116 24.0624 6.76484 24.1785ZM13.9445 50.5467C16.1218 52.5463 18.3658 53.562 20.3118 53.8041C22.2461 54.0449 23.9405 53.5204 24.8935 52.3588L24.1204 51.7245C23.4526 52.5385 22.1503 53.0252 20.4353 52.8118C18.732 52.5998 16.6743 51.696 14.6209 49.8102L13.9445 50.5467ZM24.8935 52.3588C25.3902 51.7533 25.5674 51.0565 25.4841 50.323C25.4029 49.608 25.0775 48.8754 24.6064 48.1508C23.6655 46.7038 22.0547 45.1555 20.1999 43.6448L19.5684 44.4202C21.404 45.9153 22.9149 47.3838 23.768 48.6959C24.1939 49.351 24.4335 49.9336 24.4905 50.4358C24.5454 50.9196 24.434 51.3422 24.1204 51.7245L24.8935 52.3588ZM20.1999 43.6448C16.8141 40.887 14.1032 39.3482 12.2256 38.4969C11.2868 38.0714 10.557 37.8179 10.0559 37.67C9.80536 37.5961 9.61212 37.5486 9.47866 37.5191C9.41194 37.5043 9.36017 37.4941 9.32367 37.4874C9.30542 37.484 9.29099 37.4815 9.28041 37.4797C9.27512 37.4788 9.2708 37.4781 9.26745 37.4776C9.26577 37.4774 9.26434 37.4771 9.26315 37.4769C9.26255 37.4769 9.26202 37.4768 9.26154 37.4767C9.2613 37.4767 9.261 37.4766 9.26088 37.4766C9.26058 37.4766 9.2603 37.4765 9.18636 37.971C9.11242 38.4655 9.11218 38.4655 9.11194 38.4655C9.11188 38.4654 9.11167 38.4654 9.11155 38.4654C9.11132 38.4654 9.11115 38.4653 9.11104 38.4653C9.11082 38.4653 9.11084 38.4653 9.11111 38.4653C9.11164 38.4654 9.11314 38.4656 9.11561 38.4661C9.12053 38.4669 9.12931 38.4684 9.14191 38.4707C9.1671 38.4754 9.20757 38.4833 9.263 38.4955C9.37385 38.52 9.54459 38.5618 9.7728 38.6291C10.2291 38.7638 10.9156 39.001 11.8127 39.4077C13.6064 40.2209 16.2445 41.7128 19.5684 44.4202L20.1999 43.6448ZM9.18636 37.971C8.68905 38.0228 8.68906 38.0229 8.68908 38.0231C8.68909 38.0232 8.68911 38.0234 8.68913 38.0236C8.68918 38.024 8.68923 38.0245 8.6893 38.0252C8.68944 38.0265 8.68963 38.0283 8.68988 38.0306C8.69038 38.0352 8.6911 38.0418 8.69205 38.0504C8.69395 38.0675 8.69679 38.0923 8.70063 38.1246C8.70831 38.189 8.72002 38.2831 8.73637 38.4035C8.76907 38.6443 8.82038 38.9909 8.89523 39.4183C9.04482 40.2725 9.28901 41.4525 9.66788 42.7571C10.42 45.347 11.7255 48.5087 13.9445 50.5467L14.6209 49.8102C12.6093 47.9626 11.3666 45.0207 10.6282 42.4782C10.2618 41.2166 10.0252 40.0734 9.88024 39.2458C9.80782 38.8323 9.75844 38.4984 9.72728 38.2689C9.7117 38.1542 9.70068 38.0656 9.69361 38.0063C9.69008 37.9766 9.68753 37.9543 9.6859 37.9397C9.68509 37.9323 9.6845 37.927 9.68413 37.9235C9.68395 37.9218 9.68382 37.9206 9.68375 37.9199C9.68371 37.9196 9.68368 37.9193 9.68367 37.9192C9.68367 37.9192 9.68367 37.9192 9.68367 37.9192C9.68367 37.9192 9.68368 37.9193 9.18636 37.971ZM9.26318 65.3712C11.058 67.9492 13.1261 69.5221 15.0532 70.2243C16.9692 70.9225 18.804 70.7722 20.0173 69.7874L19.3872 69.011C18.5345 69.703 17.1032 69.907 15.3956 69.2847C13.6989 68.6665 11.7856 67.2441 10.0839 64.7998L9.26318 65.3712ZM20.0173 69.7874C21.3156 68.7338 21.2471 67.0805 20.6026 65.3862C19.9499 63.6705 18.6367 61.6913 17.0639 59.6906L16.2777 60.3086C17.8354 62.2901 19.0709 64.1723 19.6679 65.7417C20.273 67.3325 20.1549 68.3879 19.3872 69.011L20.0173 69.7874ZM17.0639 59.6906C14.194 56.0396 11.7564 53.8122 10.0239 52.4928C9.15775 51.8331 8.46829 51.4008 7.98978 51.1312C7.75054 50.9964 7.56413 50.9024 7.43482 50.841C7.37017 50.8103 7.31981 50.7877 7.28427 50.7723C7.2665 50.7646 7.25244 50.7587 7.24216 50.7545C7.23701 50.7524 7.23281 50.7506 7.22957 50.7493C7.22794 50.7487 7.22656 50.7481 7.22541 50.7477C7.22484 50.7474 7.22433 50.7472 7.22387 50.7471C7.22365 50.747 7.22335 50.7469 7.22324 50.7468C7.22296 50.7467 7.22269 50.7466 7.03992 51.212C6.85715 51.6774 6.85692 51.6773 6.8567 51.6772C6.85664 51.6772 6.85644 51.6771 6.85633 51.6771C6.85612 51.677 6.85596 51.6769 6.85587 51.6769C6.85568 51.6768 6.85574 51.6768 6.85603 51.677C6.85661 51.6772 6.85815 51.6778 6.86063 51.6788C6.8656 51.6809 6.87435 51.6846 6.88683 51.69C6.91177 51.7008 6.9516 51.7185 7.00577 51.7443C7.11412 51.7957 7.27992 51.8791 7.49892 52.0025C7.93687 52.2492 8.58794 52.6562 9.41804 53.2883C11.078 54.5525 13.456 56.7189 16.2777 60.3086L17.0639 59.6906ZM7.03992 51.212C6.54228 51.1635 6.54227 51.1636 6.54225 51.1638C6.54224 51.1639 6.54222 51.1641 6.5422 51.1643C6.54216 51.1647 6.54211 51.1653 6.54204 51.166C6.54191 51.1673 6.54173 51.1692 6.5415 51.1717C6.54104 51.1765 6.5404 51.1835 6.53958 51.1926C6.53794 51.2107 6.53563 51.2371 6.53279 51.2714C6.52711 51.34 6.51934 51.4402 6.51077 51.5689C6.49363 51.8263 6.47326 52.198 6.45992 52.659C6.43327 53.5805 6.43465 54.8622 6.547 56.3042C6.7702 59.1689 7.43671 62.7478 9.26318 65.3712L10.0839 64.7998C8.41372 62.401 7.76343 59.0431 7.54398 56.2266C7.43502 54.828 7.43361 53.583 7.4595 52.6879C7.47244 52.2407 7.49217 51.8816 7.50856 51.6354C7.51676 51.5122 7.52412 51.4174 7.52938 51.3539C7.53201 51.3221 7.53411 51.2982 7.53553 51.2825C7.53623 51.2747 7.53677 51.2689 7.53712 51.2652C7.53729 51.2634 7.53742 51.262 7.53749 51.2613C7.53753 51.2609 7.53755 51.2606 7.53756 51.2605C7.53757 51.2604 7.53757 51.2604 7.53757 51.2604C7.53757 51.2604 7.53756 51.2605 7.03992 51.212Z" fill="#FFCE3A"/>
</svg>
