<svg width="40" height="86" viewBox="0 0 40 86" fill="none" xmlns="http://www.w3.org/2000/svg">
<path d="M14.487 51.2652L13.9892 51.3121L14.487 51.2652ZM35.0321 14.788L35.4505 15.0618L35.0321 14.788ZM38.9574 1L38.8702 0.507675C39.0063 0.483541 39.1464 0.516865 39.2571 0.599727C39.3678 0.68259 39.4392 0.807592 39.4544 0.945026L38.9574 1ZM19.2297 20.4528L19.7279 20.4108L19.2297 20.4528ZM16.2321 7.43663L15.8342 7.1339C15.9347 7.00175 16.0943 6.92812 16.2601 6.93741C16.4259 6.94669 16.5762 7.03767 16.6614 7.18022L16.2321 7.43663ZM11.8524 36.4075L11.3825 36.5783L11.8524 36.4075ZM5.58052 24.704L5.11482 24.522C5.17545 24.3669 5.30933 24.2521 5.47191 24.2159C5.63449 24.1798 5.80441 24.2269 5.92509 24.3417L5.58052 24.704ZM12.0327 54.9498L11.6789 55.3031L12.0327 54.9498ZM1 46.7782L0.501202 46.8129C0.489758 46.6481 0.560421 46.4883 0.690006 46.3859C0.819592 46.2835 0.991386 46.2517 1.14904 46.301L1 46.7782ZM16.0138 71.1146L16.1259 70.6274L16.0138 71.1146ZM2.74137 70.2092L2.33095 70.4948C2.23919 70.3629 2.21639 70.195 2.26967 70.0434C2.32296 69.8918 2.44584 69.7751 2.59994 69.7297L2.74137 70.2092ZM22.4413 28.5079L22.7027 28.9341L22.4413 28.5079ZM33.2352 24.1785L33.2284 23.6786C33.3826 23.6765 33.5291 23.7457 33.6255 23.8661C33.7219 23.9865 33.7573 24.1447 33.7215 24.2947L33.2352 24.1785ZM20.1159 44.0325L20.4316 44.4202L20.1159 44.0325ZM30.8136 37.971L30.7397 37.4765C30.8926 37.4537 31.0475 37.5028 31.1592 37.6096C31.2709 37.7165 31.3269 37.869 31.311 38.0228L30.8136 37.971ZM23.3292 59.9996L22.9361 59.6906L23.3292 59.9996ZM32.9601 51.212L32.7773 50.7466C32.9232 50.6893 33.0876 50.7038 33.2213 50.7857C33.355 50.8676 33.4425 51.0074 33.4577 51.1635L32.9601 51.212ZM14.9848 51.2183C16.3749 65.969 25.1054 78.2048 37.1513 84.5577L36.6848 85.4423C24.3486 78.9362 15.4118 66.4078 13.9892 51.3121L14.9848 51.2183ZM24.4695 20.1916C17.595 28.5229 13.8842 39.5402 14.9848 51.2183L13.9892 51.3121C12.8629 39.3617 16.661 28.0837 23.6982 19.5552L24.4695 20.1916ZM26.9527 8.08673C25.0544 10.6629 24.1572 13.2037 23.9739 15.2956C23.7886 17.4093 24.3332 18.9827 25.1979 19.748L24.5351 20.4968C23.3374 19.4367 22.7782 17.4842 22.9777 15.2083C23.1791 12.9105 24.1549 10.1978 26.1477 7.49351L26.9527 8.08673ZM25.1979 19.748C25.5846 20.0903 26.1434 20.255 26.8684 20.2049C27.5958 20.1546 28.4535 19.8883 29.3673 19.4149C31.1941 18.4685 33.157 16.7395 34.6138 14.5141L35.4505 15.0618C33.9063 17.4207 31.8176 19.2717 29.8274 20.3028C28.8327 20.8181 27.8406 21.14 26.9374 21.2025C26.0319 21.2651 25.1795 21.0672 24.5351 20.4968L25.1979 19.748ZM34.6138 14.5141C36.8987 11.0236 37.8594 7.6472 38.2492 5.14595C38.4442 3.89536 38.4962 2.86476 38.4998 2.1502C38.5016 1.79301 38.4913 1.51507 38.4808 1.32844C38.4755 1.23513 38.4702 1.16468 38.4663 1.11859C38.4644 1.09555 38.4628 1.0786 38.4618 1.06793C38.4613 1.0626 38.4609 1.05884 38.4606 1.05667C38.4605 1.05559 38.4605 1.0549 38.4604 1.05462C38.4604 1.05447 38.4604 1.05443 38.4604 1.05449C38.4604 1.05452 38.4604 1.05464 38.4604 1.05466C38.4604 1.0548 38.4605 1.05497 38.9574 1C39.4544 0.945026 39.4544 0.945248 39.4545 0.945495C39.4545 0.945611 39.4545 0.945884 39.4545 0.946117C39.4546 0.946582 39.4546 0.94715 39.4547 0.947819C39.4549 0.949156 39.455 0.9509 39.4553 0.953047C39.4557 0.957341 39.4563 0.963247 39.457 0.970743C39.4585 0.985733 39.4605 1.00708 39.4628 1.03459C39.4674 1.08962 39.4734 1.16932 39.4792 1.27218C39.4908 1.47787 39.5017 1.77631 39.4998 2.15527C39.4959 2.91303 39.4409 3.99391 39.2373 5.29996C38.8302 7.91202 37.8282 11.4296 35.4505 15.0618L34.6138 14.5141ZM38.9574 1C39.0447 1.49232 39.0448 1.49231 39.0449 1.4923C39.0448 1.4923 39.0449 1.4923 39.0448 1.4923C39.0447 1.49232 39.0445 1.49236 39.0442 1.49242C39.0435 1.49255 39.0423 1.49276 39.0406 1.49307C39.0371 1.4937 39.0317 1.49469 39.0243 1.49607C39.0094 1.49883 38.9867 1.50312 38.9565 1.509C38.8961 1.52078 38.8058 1.53895 38.6888 1.56405C38.4547 1.61428 38.114 1.69221 37.6921 1.80221C36.8479 2.02235 35.6819 2.37009 34.3973 2.87964C31.814 3.90438 28.8158 5.55836 26.9527 8.08673L26.1477 7.49351C28.1757 4.74137 31.3811 3.0003 34.0286 1.9501C35.3595 1.42218 36.5657 1.06248 37.4398 0.834562C37.8772 0.720523 38.2322 0.639265 38.479 0.586305C38.6025 0.559821 38.6989 0.540399 38.7652 0.527483C38.7983 0.521024 38.8239 0.516191 38.8415 0.512913C38.8503 0.511274 38.8572 0.510024 38.8619 0.509154C38.8643 0.508719 38.8662 0.508379 38.8676 0.508133C38.8683 0.50801 38.8688 0.50791 38.8693 0.507834C38.8695 0.507796 38.8697 0.507756 38.8698 0.507737C38.87 0.507703 38.8702 0.507675 38.9574 1ZM12.024 20.0537C12.1244 23.0701 12.8791 25.4186 13.8663 26.9936C14.8678 28.5916 16.0444 29.3078 16.971 29.2978L16.9819 30.2977C15.5491 30.3132 14.1022 29.2531 13.019 27.5247C11.9213 25.7733 11.1296 23.2453 11.0245 20.087L12.024 20.0537ZM16.971 29.2978C17.3849 29.2933 17.7087 29.1173 17.9837 28.7483C18.2743 28.3583 18.5037 27.7561 18.6586 26.9428C18.9676 25.3199 18.9465 23.0464 18.7315 20.4948L19.7279 20.4108C19.9446 22.9808 19.9766 25.367 19.6409 27.1298C19.4735 28.0093 19.2061 28.7814 18.7856 29.3458C18.3494 29.9311 17.7477 30.2894 16.9819 30.2977L16.971 29.2978ZM18.7315 20.4948C18.3418 15.8726 17.5989 12.6546 16.9592 10.6015C16.6393 9.57486 16.3451 8.83916 16.1334 8.36451C16.0276 8.12717 15.9424 7.95504 15.885 7.84438C15.8563 7.78905 15.8345 7.74909 15.8205 7.72402C15.8135 7.71149 15.8085 7.70267 15.8055 7.69753C15.804 7.69496 15.803 7.6933 15.8026 7.69255C15.8024 7.69218 15.8023 7.69203 15.8023 7.69211C15.8024 7.69215 15.8024 7.69225 15.8025 7.6924C15.8025 7.69247 15.8026 7.69263 15.8027 7.69267C15.8028 7.69284 15.8029 7.69303 16.2321 7.43663C16.6614 7.18022 16.6615 7.18044 16.6616 7.18067C16.6617 7.18076 16.6618 7.181 16.662 7.18119C16.6622 7.18157 16.6624 7.18201 16.6627 7.1825C16.6633 7.18349 16.664 7.1847 16.6649 7.18614C16.6666 7.18902 16.6688 7.19282 16.6715 7.19754C16.677 7.20698 16.6845 7.22011 16.6939 7.23698C16.7127 7.27072 16.7392 7.31943 16.7725 7.38357C16.8391 7.51187 16.9329 7.70188 17.0468 7.95731C17.2746 8.4682 17.5825 9.24055 17.9139 10.304C18.5767 12.431 19.3326 15.721 19.7279 20.4108L18.7315 20.4948ZM16.2321 7.43663C16.6301 7.73935 16.6301 7.73928 16.6302 7.73924C16.6301 7.73926 16.6302 7.73924 16.6301 7.73927C16.6301 7.73934 16.6299 7.73951 16.6297 7.73978C16.6293 7.74031 16.6286 7.74123 16.6277 7.74254C16.6257 7.74516 16.6225 7.74932 16.6183 7.755C16.6098 7.76636 16.5968 7.7838 16.5796 7.8071C16.5453 7.85371 16.4943 7.92378 16.4291 8.01567C16.2986 8.19947 16.1113 8.47038 15.8865 8.81527C15.4368 9.50549 14.8389 10.4896 14.2476 11.6629C13.0587 14.0221 11.9253 17.0906 12.024 20.0537L11.0245 20.087C10.9176 16.8752 12.1381 13.6268 13.3546 11.2129C13.966 9.99961 14.5836 8.98311 15.0487 8.26934C15.2814 7.91223 15.4763 7.6303 15.6137 7.43676C15.6824 7.33998 15.7368 7.26525 15.7743 7.21423C15.7931 7.18872 15.8077 7.16914 15.8178 7.15568C15.8228 7.14895 15.8267 7.14376 15.8295 7.14012C15.8309 7.1383 15.8319 7.13687 15.8327 7.13583C15.8331 7.13531 15.8334 7.13489 15.8337 7.13457C15.8338 7.13441 15.8339 7.13424 15.834 7.13416C15.8341 7.13402 15.8342 7.1339 16.2321 7.43663ZM4.86978 38.1475C5.75574 41.0342 7.09117 43.0809 8.44335 44.3113C9.81452 45.559 11.1179 45.9031 11.9955 45.6236L12.299 46.5765C10.9295 47.0126 9.26178 46.408 7.77034 45.0509C6.25992 43.6766 4.84118 41.4626 3.9138 38.4409L4.86978 38.1475ZM11.9955 45.6236C12.3909 45.4977 12.6594 45.2294 12.8284 44.7845C13.0056 44.3178 13.0667 43.6652 13.0016 42.8334C12.8717 41.1731 12.256 38.9813 11.3825 36.5783L12.3224 36.2367C13.2025 38.6578 13.8577 40.9544 13.9986 42.7554C14.0689 43.6543 14.0154 44.4756 13.7632 45.1396C13.5028 45.8254 13.0272 46.3445 12.299 46.5765L11.9955 45.6236ZM11.3825 36.5783C9.79997 32.2248 8.24781 29.3323 7.09956 27.5359C6.5254 26.6377 6.05202 26.0132 5.72601 25.6169C5.563 25.4187 5.43678 25.2776 5.35318 25.1877C5.31138 25.1428 5.28023 25.1107 5.26045 25.0907C5.25056 25.0807 5.24352 25.0737 5.2394 25.0697C5.23735 25.0677 5.23602 25.0664 5.23545 25.0658C5.23516 25.0656 5.23505 25.0655 5.23514 25.0655C5.23518 25.0656 5.23527 25.0657 5.2354 25.0658C5.23547 25.0659 5.23561 25.066 5.23565 25.066C5.23579 25.0662 5.23595 25.0663 5.58052 24.704C5.92509 24.3417 5.92528 24.3419 5.92548 24.3421C5.92556 24.3421 5.92576 24.3423 5.92593 24.3425C5.92625 24.3428 5.92662 24.3431 5.92704 24.3435C5.92787 24.3443 5.92889 24.3453 5.9301 24.3465C5.93251 24.3488 5.93566 24.3519 5.93953 24.3557C5.94728 24.3633 5.95794 24.3738 5.97141 24.3875C5.99836 24.4147 6.03657 24.4542 6.08531 24.5066C6.1828 24.6113 6.3224 24.7678 6.49828 24.9816C6.85008 25.4093 7.34686 26.0661 7.94214 26.9974C9.13276 28.86 10.7166 31.8192 12.3224 36.2367L11.3825 36.5783ZM5.58052 24.704C6.04623 24.886 6.04626 24.8859 6.04627 24.8859C6.04626 24.8859 6.04627 24.8859 6.04625 24.8859C6.04622 24.886 6.04614 24.8862 6.04601 24.8866C6.04576 24.8872 6.04533 24.8883 6.04472 24.8899C6.04351 24.893 6.0416 24.898 6.03901 24.9047C6.03384 24.9183 6.02598 24.939 6.01567 24.9666C5.99505 25.0218 5.96464 25.1046 5.92634 25.2127C5.84972 25.4288 5.74161 25.7458 5.61715 26.1453C5.36809 26.9448 5.05444 28.072 4.79672 29.3801C4.27844 32.0108 3.99925 35.3111 4.86978 38.1475L3.9138 38.4409C2.97097 35.369 3.28615 31.8741 3.81558 29.1868C4.08171 27.836 4.40525 26.6734 4.66241 25.8479C4.79107 25.4349 4.90332 25.1056 4.9838 24.8786C5.02405 24.765 5.05637 24.677 5.07883 24.6168C5.09007 24.5867 5.09885 24.5636 5.10493 24.5477C5.10796 24.5397 5.11033 24.5336 5.11199 24.5293C5.11282 24.5272 5.11347 24.5255 5.11395 24.5243C5.11418 24.5237 5.11438 24.5232 5.11452 24.5228C5.11459 24.5226 5.11467 24.5224 5.11471 24.5223C5.11477 24.5221 5.11482 24.522 5.58052 24.704ZM6.29822 60.1058C8.40528 62.4481 10.5559 63.7582 12.3573 64.275C14.1782 64.7975 15.5484 64.4935 16.254 63.7792L16.9654 64.482C15.8972 65.5633 14.0811 65.8099 12.0815 65.2362C10.0623 64.6569 7.75821 63.224 5.55477 60.7746L6.29822 60.1058ZM16.254 63.7792C16.58 63.4492 16.7166 63.0374 16.6751 62.5091C16.6319 61.9611 16.3952 61.2965 15.9651 60.5277C15.1056 58.9913 13.5582 57.1845 11.6789 55.3031L12.3865 54.5964C14.2807 56.4928 15.9087 58.3787 16.8378 60.0394C17.302 60.8691 17.6128 61.6792 17.672 62.4306C17.7327 63.2018 17.5263 63.9142 16.9654 64.482L16.254 63.7792ZM11.6789 55.3031C8.27318 51.8935 5.54463 49.875 3.67905 48.7125C2.7462 48.1313 2.02878 47.7638 1.5499 47.5433C1.31044 47.433 1.13056 47.3595 1.01313 47.3143C0.954414 47.2917 0.911304 47.2762 0.884159 47.2667C0.870586 47.262 0.861004 47.2588 0.855453 47.257C0.85268 47.2561 0.850918 47.2555 0.850166 47.2552C0.849789 47.2551 0.849667 47.2551 0.8498 47.2551C0.849865 47.2552 0.849995 47.2552 0.850189 47.2553C0.850285 47.2553 0.850479 47.2553 0.850529 47.2554C0.850735 47.2554 0.85096 47.2555 1 46.7782C1.14904 46.301 1.1493 46.301 1.14957 46.3011C1.14968 46.3012 1.14997 46.3012 1.15019 46.3013C1.15064 46.3015 1.15115 46.3016 1.15173 46.3018C1.15287 46.3022 1.15428 46.3026 1.15593 46.3031C1.15924 46.3042 1.16357 46.3056 1.1689 46.3074C1.17955 46.3109 1.19423 46.3158 1.21289 46.3223C1.2502 46.3353 1.30342 46.3545 1.37217 46.381C1.50969 46.4339 1.70932 46.5157 1.96816 46.6349C2.48589 46.8733 3.2402 47.2608 4.2079 47.8638C6.14342 49.0699 8.93122 51.1372 12.3865 54.5964L11.6789 55.3031ZM1 46.7782C1.4988 46.7436 1.49879 46.7435 1.49879 46.7435C1.49879 46.7435 1.49879 46.7435 1.49879 46.7436C1.49881 46.7437 1.49882 46.7439 1.49885 46.7443C1.49891 46.7451 1.499 46.7464 1.49913 46.7483C1.4994 46.752 1.49984 46.7578 1.50044 46.7656C1.50164 46.7813 1.50353 46.8053 1.50621 46.8371C1.51156 46.9007 1.52004 46.9957 1.53239 47.1188C1.5571 47.3652 1.59729 47.7242 1.65891 48.1707C1.78222 49.0642 1.99098 50.3051 2.33234 51.6929C3.01889 54.484 4.22618 57.8025 6.29822 60.1058L5.55477 60.7746C3.3163 58.2862 2.06034 54.7737 1.36128 51.9318C1.00983 50.503 0.795185 49.2269 0.668293 48.3074C0.604813 47.8475 0.563198 47.4761 0.537384 47.2186C0.524471 47.0899 0.515507 46.9896 0.509731 46.9209C0.50684 46.8866 0.504749 46.8602 0.503361 46.842C0.502663 46.8329 0.502144 46.8259 0.501789 46.8211C0.50161 46.8186 0.501472 46.8167 0.501377 46.8154C0.501328 46.8147 0.501289 46.8141 0.501259 46.8137C0.501244 46.8135 0.501228 46.8133 0.501225 46.8132C0.501209 46.813 0.501202 46.8129 1 46.7782ZM14.005 78.8112C16.9389 79.6597 19.3701 79.5903 21.104 79.0326C22.8514 78.4705 23.8253 77.4438 24.0362 76.4091L25.0161 76.6088C24.7073 78.1233 23.359 79.3577 21.4102 79.9845C19.448 80.6157 16.809 80.663 13.7272 79.7719L14.005 78.8112ZM24.0362 76.4091C24.2258 75.4791 23.6386 74.5912 22.1121 73.7265C20.6154 72.8786 18.4153 72.1801 15.9017 71.6019L16.1259 70.6274C18.6622 71.2108 20.9781 71.9348 22.605 72.8564C24.2022 73.7612 25.3462 74.9896 25.0161 76.6088L24.0362 76.4091ZM15.9017 71.6019C11.3472 70.5543 8.06967 70.333 5.94316 70.3699C4.87981 70.3883 4.10375 70.4713 3.59917 70.548C3.34686 70.5864 3.16234 70.6232 3.04363 70.6496C2.98427 70.6628 2.94136 70.6734 2.91464 70.6803C2.90128 70.6837 2.89197 70.6863 2.88668 70.6877C2.88403 70.6885 2.88239 70.6889 2.88174 70.6891C2.88142 70.6892 2.88135 70.6892 2.88153 70.6892C2.88162 70.6892 2.88177 70.6891 2.88198 70.689C2.88209 70.689 2.8823 70.689 2.88235 70.6889C2.88258 70.6889 2.88281 70.6888 2.74137 70.2092C2.59994 69.7297 2.6002 69.7296 2.60049 69.7295C2.60061 69.7295 2.60091 69.7294 2.60114 69.7293C2.6016 69.7292 2.60213 69.729 2.60272 69.7288C2.6039 69.7285 2.60532 69.7281 2.60701 69.7276C2.61036 69.7266 2.61473 69.7254 2.6201 69.7239C2.63085 69.721 2.64563 69.717 2.66447 69.7121C2.70216 69.7024 2.75611 69.6891 2.82654 69.6734C2.96741 69.6421 3.17422 69.6012 3.44889 69.5594C3.99827 69.4759 4.81876 69.3892 5.92582 69.37C8.14013 69.3317 11.4988 69.5631 16.1259 70.6274L15.9017 71.6019ZM2.74137 70.2092C3.1518 69.9237 3.15176 69.9236 3.15173 69.9236C3.15175 69.9236 3.15175 69.9236 3.15179 69.9236C3.15186 69.9237 3.15201 69.924 3.15224 69.9243C3.15269 69.9249 3.15346 69.926 3.15453 69.9276C3.15667 69.9306 3.16004 69.9354 3.16462 69.9419C3.17377 69.9548 3.18777 69.9746 3.20648 70.0006C3.2439 70.0528 3.30016 70.1304 3.37423 70.2303C3.5224 70.43 3.74171 70.7187 4.02395 71.0712C4.58879 71.7766 5.40383 72.7351 6.40346 73.7465C8.41549 75.7823 11.1227 77.9777 14.005 78.8112L13.7272 79.7719C10.5938 78.8657 7.73863 76.52 5.69223 74.4495C4.66264 73.4078 3.82445 72.4219 3.24336 71.6962C2.95263 71.3332 2.7258 71.0346 2.57107 70.826C2.49369 70.7217 2.43431 70.6398 2.39396 70.5836C2.37378 70.5555 2.35836 70.5337 2.34781 70.5188C2.34254 70.5113 2.33849 70.5056 2.33567 70.5016C2.33427 70.4995 2.33317 70.498 2.33238 70.4968C2.33199 70.4963 2.33167 70.4958 2.33143 70.4955C2.33131 70.4953 2.33119 70.4951 2.33113 70.4951C2.33103 70.4949 2.33095 70.4948 2.74137 70.2092ZM27.2289 35.4025C24.9333 37.0058 22.6951 37.676 20.8312 37.6555C18.979 37.6351 17.4436 36.9244 16.6867 35.7034L17.5366 35.1765C18.0578 36.0172 19.2116 36.6376 20.8422 36.6556C22.4613 36.6734 24.4994 36.0891 26.6563 34.5827L27.2289 35.4025ZM16.6867 35.7034C16.2915 35.0659 16.2101 34.3821 16.3806 33.6972C16.5465 33.0303 16.9455 32.3799 17.479 31.7576C18.5442 30.515 20.2512 29.2644 22.1799 28.0817L22.7027 28.9341C20.795 30.1039 19.1982 31.2885 18.2382 32.4084C17.759 32.9674 17.4651 33.4801 17.351 33.9386C17.2414 34.3792 17.2929 34.7833 17.5366 35.1765L16.6867 35.7034ZM22.1799 28.0817C25.7018 25.922 28.4396 24.8212 30.3104 24.2603C31.2456 23.9798 31.9636 23.8345 32.4536 23.7593C32.6986 23.7217 32.8866 23.7015 33.0162 23.6908C33.081 23.6855 33.1312 23.6824 33.1666 23.6807C33.1843 23.6799 33.1983 23.6794 33.2086 23.679C33.2138 23.6789 33.218 23.6788 33.2213 23.6787C33.2229 23.6787 33.2243 23.6786 33.2255 23.6786C33.2261 23.6786 33.2266 23.6786 33.2271 23.6786C33.2273 23.6786 33.2277 23.6786 33.2278 23.6786C33.2281 23.6786 33.2284 23.6786 33.2352 24.1785C33.242 24.6785 33.2422 24.6785 33.2425 24.6785C33.2425 24.6785 33.2427 24.6785 33.2429 24.6785C33.2431 24.6785 33.2433 24.6785 33.2434 24.6785C33.2437 24.6784 33.2437 24.6784 33.2435 24.6785C33.243 24.6785 33.2417 24.6785 33.2394 24.6786C33.2348 24.6787 33.2265 24.679 33.2146 24.6796C33.1906 24.6807 33.152 24.683 33.0987 24.6874C32.9922 24.6962 32.8274 24.7136 32.6054 24.7477C32.1615 24.8158 31.4889 24.9509 30.5976 25.2181C28.8153 25.7525 26.1562 26.8164 22.7027 28.9341L22.1799 28.0817ZM33.2352 24.1785C33.7215 24.2947 33.7214 24.2948 33.7214 24.295C33.7214 24.2951 33.7213 24.2953 33.7213 24.2955C33.7212 24.2958 33.7211 24.2963 33.7209 24.297C33.7206 24.2982 33.7202 24.2999 33.7197 24.302C33.7187 24.3063 33.7172 24.3125 33.7152 24.3204C33.7113 24.3363 33.7055 24.3594 33.6979 24.3892C33.6827 24.4489 33.6601 24.5359 33.6298 24.647C33.5693 24.8692 33.4782 25.1885 33.3551 25.5807C33.1089 26.3645 32.7336 27.4425 32.2163 28.6204C31.1898 30.9578 29.5709 33.7667 27.2289 35.4025L26.6563 34.5827C28.7666 33.1087 30.294 30.5105 31.3007 28.2183C31.8 27.0815 32.163 26.0391 32.401 25.2811C32.52 24.9024 32.6074 24.5955 32.665 24.3843C32.6937 24.2787 32.715 24.1971 32.7289 24.1424C32.7358 24.1151 32.741 24.0945 32.7443 24.081C32.7459 24.0743 32.7472 24.0693 32.7479 24.0662C32.7483 24.0646 32.7486 24.0635 32.7487 24.0629C32.7488 24.0626 32.7488 24.0624 32.7489 24.0623C32.7489 24.0622 32.7489 24.0623 32.7489 24.0622C32.7489 24.0623 32.7488 24.0624 33.2352 24.1785ZM26.0555 50.5467C23.8782 52.5463 21.6342 53.562 19.6882 53.8041C17.7539 54.0449 16.0595 53.5204 15.1065 52.3588L15.8796 51.7245C16.5474 52.5385 17.8497 53.0252 19.5647 52.8118C21.268 52.5998 23.3257 51.696 25.3791 49.8102L26.0555 50.5467ZM15.1065 52.3588C14.6098 51.7533 14.4326 51.0565 14.5159 50.323C14.5971 49.608 14.9225 48.8754 15.3936 48.1508C16.3345 46.7038 17.9453 45.1555 19.8001 43.6448L20.4316 44.4202C18.596 45.9153 17.0851 47.3838 16.232 48.6959C15.8061 49.351 15.5665 49.9336 15.5095 50.4358C15.4546 50.9196 15.566 51.3422 15.8796 51.7245L15.1065 52.3588ZM19.8001 43.6448C23.1859 40.887 25.8968 39.3482 27.7744 38.4969C28.7132 38.0714 29.443 37.8179 29.9441 37.67C30.1946 37.5961 30.3879 37.5486 30.5213 37.5191C30.5881 37.5043 30.6398 37.4941 30.6763 37.4874C30.6946 37.484 30.709 37.4815 30.7196 37.4797C30.7249 37.4788 30.7292 37.4781 30.7326 37.4776C30.7342 37.4774 30.7357 37.4771 30.7369 37.4769C30.7374 37.4769 30.738 37.4768 30.7385 37.4767C30.7387 37.4767 30.739 37.4766 30.7391 37.4766C30.7394 37.4766 30.7397 37.4765 30.8136 37.971C30.8876 38.4655 30.8878 38.4655 30.8881 38.4655C30.8881 38.4654 30.8883 38.4654 30.8884 38.4654C30.8887 38.4654 30.8889 38.4653 30.889 38.4653C30.8892 38.4653 30.8892 38.4653 30.8889 38.4653C30.8884 38.4654 30.8869 38.4656 30.8844 38.4661C30.8795 38.4669 30.8707 38.4684 30.8581 38.4707C30.8329 38.4754 30.7924 38.4833 30.737 38.4955C30.6262 38.52 30.4554 38.5618 30.2272 38.6291C29.7709 38.7638 29.0844 39.001 28.1873 39.4077C26.3936 40.2209 23.7555 41.7128 20.4316 44.4202L19.8001 43.6448ZM30.8136 37.971C31.311 38.0228 31.3109 38.0229 31.3109 38.0231C31.3109 38.0232 31.3109 38.0234 31.3109 38.0236C31.3108 38.024 31.3108 38.0245 31.3107 38.0252C31.3106 38.0265 31.3104 38.0283 31.3101 38.0306C31.3096 38.0352 31.3089 38.0418 31.308 38.0504C31.306 38.0675 31.3032 38.0923 31.2994 38.1246C31.2917 38.189 31.28 38.2831 31.2636 38.4035C31.2309 38.6443 31.1796 38.9909 31.1048 39.4183C30.9552 40.2725 30.711 41.4525 30.3321 42.7571C29.58 45.347 28.2745 48.5087 26.0555 50.5467L25.3791 49.8102C27.3907 47.9626 28.6334 45.0207 29.3718 42.4782C29.7382 41.2166 29.9748 40.0734 30.1198 39.2458C30.1922 38.8323 30.2416 38.4984 30.2727 38.2689C30.2883 38.1542 30.2993 38.0656 30.3064 38.0063C30.3099 37.9766 30.3125 37.9543 30.3141 37.9397C30.3149 37.9323 30.3155 37.927 30.3159 37.9235C30.316 37.9218 30.3162 37.9206 30.3163 37.9199C30.3163 37.9196 30.3163 37.9193 30.3163 37.9192C30.3163 37.9192 30.3163 37.9192 30.3163 37.9192C30.3163 37.9192 30.3163 37.9193 30.8136 37.971ZM30.7368 65.3712C28.942 67.9492 26.8739 69.5221 24.9468 70.2243C23.0308 70.9225 21.196 70.7722 19.9827 69.7874L20.6128 69.011C21.4655 69.703 22.8968 69.907 24.6044 69.2847C26.3011 68.6665 28.2144 67.2441 29.9161 64.7998L30.7368 65.3712ZM19.9827 69.7874C18.6844 68.7338 18.7529 67.0805 19.3974 65.3862C20.0501 63.6705 21.3633 61.6913 22.9361 59.6906L23.7223 60.3086C22.1646 62.2901 20.9291 64.1723 20.3321 65.7417C19.727 67.3325 19.8451 68.3879 20.6128 69.011L19.9827 69.7874ZM22.9361 59.6906C25.806 56.0396 28.2436 53.8122 29.9761 52.4928C30.8423 51.8331 31.5317 51.4008 32.0102 51.1312C32.2495 50.9964 32.4359 50.9024 32.5652 50.841C32.6298 50.8103 32.6802 50.7877 32.7157 50.7723C32.7335 50.7646 32.7476 50.7587 32.7578 50.7545C32.763 50.7524 32.7672 50.7506 32.7704 50.7493C32.7721 50.7487 32.7734 50.7481 32.7746 50.7477C32.7752 50.7474 32.7757 50.7472 32.7761 50.7471C32.7764 50.747 32.7766 50.7469 32.7768 50.7468C32.777 50.7467 32.7773 50.7466 32.9601 51.212C33.1428 51.6774 33.1431 51.6773 33.1433 51.6772C33.1434 51.6772 33.1436 51.6771 33.1437 51.6771C33.1439 51.677 33.144 51.6769 33.1441 51.6769C33.1443 51.6768 33.1443 51.6768 33.144 51.677C33.1434 51.6772 33.1419 51.6778 33.1394 51.6788C33.1344 51.6809 33.1256 51.6846 33.1132 51.69C33.0882 51.7008 33.0484 51.7185 32.9942 51.7443C32.8859 51.7957 32.7201 51.8791 32.5011 52.0025C32.0631 52.2492 31.4121 52.6562 30.582 53.2883C28.922 54.5525 26.544 56.7189 23.7223 60.3086L22.9361 59.6906ZM32.9601 51.212C33.4577 51.1635 33.4577 51.1636 33.4578 51.1638C33.4578 51.1639 33.4578 51.1641 33.4578 51.1643C33.4578 51.1647 33.4579 51.1653 33.458 51.166C33.4581 51.1673 33.4583 51.1692 33.4585 51.1717C33.459 51.1765 33.4596 51.1835 33.4604 51.1926C33.4621 51.2107 33.4644 51.2371 33.4672 51.2714C33.4729 51.34 33.4807 51.4402 33.4892 51.5689C33.5064 51.8263 33.5267 52.198 33.5401 52.659C33.5667 53.5805 33.5654 54.8622 33.453 56.3042C33.2298 59.1689 32.5633 62.7478 30.7368 65.3712L29.9161 64.7998C31.5863 62.401 32.2366 59.0431 32.456 56.2266C32.565 54.828 32.5664 53.583 32.5405 52.6879C32.5276 52.2407 32.5078 51.8816 32.4914 51.6354C32.4832 51.5122 32.4759 51.4174 32.4706 51.3539C32.468 51.3221 32.4659 51.2982 32.4645 51.2825C32.4638 51.2747 32.4632 51.2689 32.4629 51.2652C32.4627 51.2634 32.4626 51.262 32.4625 51.2613C32.4625 51.2609 32.4624 51.2606 32.4624 51.2605C32.4624 51.2604 32.4624 51.2604 32.4624 51.2604C32.4624 51.2604 32.4624 51.2605 32.9601 51.212Z" fill="#FFCE3A"/>
</svg>
