<svg width="32" height="32" viewBox="0 0 32 32" fill="none" xmlns="http://www.w3.org/2000/svg">
<path d="M3.45924 15.8545L9.45016 18.0905L11.769 25.5479C11.9174 26.0256 12.5014 26.2021 12.8891 25.8851L16.2285 23.1628C16.5786 22.8776 17.0772 22.8633 17.443 23.1289L23.4662 27.5018C23.8808 27.8033 24.4684 27.576 24.5724 27.0749L28.9847 5.85102C29.0982 5.30363 28.5603 4.84699 28.0391 5.04857L3.45222 14.5335C2.84546 14.7675 2.85075 15.6265 3.45924 15.8545ZM11.3953 16.9002L23.1038 9.68897C23.3142 9.55975 23.5307 9.84427 23.35 10.0119L13.6871 18.994C13.3475 19.3102 13.1284 19.7333 13.0663 20.1925L12.7372 22.6319C12.6936 22.9576 12.2361 22.9899 12.1462 22.6747L10.8802 18.2265C10.7353 17.7192 10.9465 17.1772 11.3953 16.9002Z" fill="#B3B8D5"/>
</svg>
