<svg width="32" height="32" viewBox="0 0 32 32" fill="none" xmlns="http://www.w3.org/2000/svg">
<path d="M27.3846 8.24931C26.515 8.63077 25.5884 8.88362 24.6223 9.00638C25.6162 8.413 26.3747 7.48054 26.7313 6.35662C25.8047 6.90908 24.7816 7.29931 23.6913 7.51708C22.8115 6.58023 21.5575 6 20.1895 6C17.5353 6 15.3985 8.15431 15.3985 10.7953C15.3985 11.1753 15.4307 11.5407 15.5096 11.8885C11.524 11.6942 7.99731 9.78392 5.62815 6.874C5.21454 7.59162 4.97192 8.413 4.97192 9.29723C4.97192 10.9575 5.82692 12.4293 7.10138 13.2814C6.33115 13.2668 5.57554 13.0432 4.93538 12.6909C4.93538 12.7055 4.93538 12.7245 4.93538 12.7435C4.93538 15.0732 6.59715 17.0083 8.77631 17.4541C8.38608 17.5608 7.96077 17.6119 7.51938 17.6119C7.21246 17.6119 6.90262 17.5944 6.61177 17.5301C7.23292 19.4286 8.99554 20.8244 11.0914 20.8697C9.46031 22.1456 7.38931 22.9144 5.14731 22.9144C4.75415 22.9144 4.37708 22.8968 4 22.8486C6.12362 24.2181 8.64039 25 11.3545 25C20.1763 25 24.9994 17.6923 24.9994 11.358C24.9994 11.1461 24.9921 10.9415 24.9818 10.7383C25.9333 10.0631 26.7328 9.21977 27.3846 8.24931Z" fill="#B3B8D5"/>
</svg>
