<svg width="32" height="32" viewBox="0 0 32 32" fill="none" xmlns="http://www.w3.org/2000/svg">
<path fill-rule="evenodd" clip-rule="evenodd" d="M12 4C8.13401 4 5 7.13401 5 11V19C5 22.866 8.13401 26 12 26V29L16.978 26H20C23.866 26 27 22.866 27 19V11C27 7.13401 23.866 4 20 4H12ZM15.9971 8.13775C15.7384 8.12338 15.4334 8.10643 15.4065 8.52222C15.3922 8.82348 15.6843 8.84186 15.9439 8.8582C16.0003 8.86175 16.0551 8.8652 16.1049 8.87143C19.5272 9.39524 21.0986 10.9841 21.5351 14.354C21.5473 14.4272 21.55 14.509 21.5528 14.5913C21.5618 14.8624 21.5711 15.1397 21.9192 15.1397C22.3198 15.1397 22.3044 14.812 22.2907 14.5207C22.2883 14.4691 22.2859 14.4187 22.2859 14.3714C22.3208 11.1937 19.4922 8.24286 16.2097 8.1381C16.149 8.14619 16.0751 8.14209 15.9971 8.13775ZM19.8604 14.0233C19.8771 14.2887 19.8947 14.5669 20.3129 14.5111C20.6021 14.4585 20.5944 14.2179 20.5878 14.0128C20.5857 13.9454 20.5836 13.8819 20.5922 13.8302C20.6097 11.8571 18.8811 10.0587 16.7684 9.81429C16.7152 9.80868 16.6593 9.79993 16.6026 9.79106C16.3061 9.74467 15.989 9.69506 15.9303 10.0762C15.8601 10.4557 16.1632 10.4958 16.448 10.5334C16.517 10.5425 16.5849 10.5515 16.6462 10.5651C18.7589 11.019 19.4922 11.7698 19.8415 13.8302C19.852 13.89 19.8562 13.9562 19.8604 14.0233ZM18.6542 14.0048C18.9684 13.9698 19.0034 13.7079 19.0034 13.4286C19.0034 12.4857 17.9208 11.3857 16.978 11.4032C16.751 11.4032 16.5415 11.4381 16.4542 11.6651C16.3319 12.0143 16.5764 12.1016 16.8383 12.1365C17.7113 12.2762 18.1653 12.7825 18.2526 13.6206C18.2875 13.8476 18.4272 14.0397 18.6542 14.0048ZM19.6494 21.8619C20.7145 21.8794 21.9542 20.8667 22.3208 19.8714C22.6251 19.0347 22.1076 18.6354 21.5882 18.2347C21.5115 18.1755 21.4347 18.1162 21.3605 18.0556C21.0374 17.7998 20.6936 17.5647 20.3449 17.3265C20.2414 17.2557 20.1375 17.1847 20.0335 17.1127C19.143 16.5016 18.3224 16.4492 17.6589 17.4444C17.2922 18.0032 16.751 18.0206 16.2097 17.7762C14.6907 17.1127 13.5208 16.0651 12.8399 14.5635C12.5256 13.8825 12.5256 13.2889 13.2415 12.8175C13.6081 12.573 13.9922 12.2762 13.9573 11.7349C13.9224 11.0365 12.1589 8.64444 11.4605 8.4C11.1637 8.29524 10.8843 8.29524 10.5875 8.4C8.96367 8.92381 8.28272 10.2508 8.92875 11.8048C10.8494 16.4492 14.2542 19.6968 18.9335 21.6698C19.1521 21.7573 19.395 21.8082 19.5607 21.843C19.5936 21.8499 19.6234 21.8561 19.6494 21.8619Z" fill="#B3B8D5"/>
</svg>
