<svg width="186" height="38" viewBox="0 0 186 38" fill="none" xmlns="http://www.w3.org/2000/svg">
<path fill-rule="evenodd" clip-rule="evenodd" d="M184.5 1.5H1.5V36.5H184.5V1.5ZM0 0V38H186V0H0Z" fill="#8CC6BF"/>
<path d="M116.243 27.3861C114.349 27.3861 112.761 27.3861 110.989 27.3861C110.928 25.664 110.806 24.0606 110.745 22.1603C108.668 23.4667 108.974 25.6046 108.18 27.3268C106.164 27.3268 104.087 27.3268 101.705 27.3268C102.01 25.5452 102.132 24.0012 102.56 22.5166C102.743 21.9227 103.598 21.3882 104.27 21.1507C105.003 20.8538 105.858 20.9132 107.141 20.7944C106.347 20.2599 105.919 19.9036 105.431 19.7255C102.804 18.4784 102.804 18.5378 102.987 15.6873C103.109 14.4996 103.354 13.3713 103.598 12.0054C107.996 12.0054 112.333 12.0054 116.854 12.0054C116.976 17.1125 117.342 22.1603 116.243 27.3861ZM110.317 15.2716C108.546 18.1221 108.546 18.1221 110.806 19.0128C110.623 17.647 110.44 16.4593 110.317 15.2716Z" fill="#8CC6BF"/>
<path d="M90.2818 27.3268C88.0827 27.3268 86.4945 27.3268 84.662 27.3268C84.662 22.2196 84.662 17.2313 84.662 11.946C86.6167 11.946 88.6936 11.946 90.8315 11.946C91.6256 13.5494 90.2207 16.3405 93.6414 16.4593C93.6414 15.034 93.6414 13.6088 93.6414 11.946C95.9016 11.946 97.9784 11.946 100.483 11.946C100.177 17.1125 99.9331 22.1009 99.6277 27.2674C97.4287 27.2674 95.535 27.2674 93.6414 27.2674C93.6414 25.2483 93.5803 23.1698 93.6414 21.1507C93.7025 19.5473 93.1527 18.7159 91.1369 18.6565C90.9537 21.507 90.5872 24.4169 90.2818 27.3268Z" fill="#8CC6BF"/>
<path d="M158.75 19.9631C159.178 13.787 164.37 9.86758 170.418 11.2928C171.639 11.5898 172.372 12.1242 172.922 13.1931C175.182 17.647 173.777 23.5262 169.746 26.5548C167.852 27.98 165.714 28.3363 163.454 28.0394C162.049 27.8613 160.888 27.2674 160.461 25.9016C159.85 23.9419 159.3 21.9821 158.75 19.9631ZM165.348 14.3215C163.576 18.8347 164.37 22.8135 167.424 25.5452C169.685 21.9821 168.89 17.3501 165.348 14.3215Z" fill="#8CC6BF"/>
<path d="M153.253 18.1221C158.017 21.6852 158.079 21.9228 156.124 27.3268C152.092 27.3268 147.939 27.3268 143.663 27.3268C142.319 22.6948 142.563 17.944 142.807 13.2525C142.868 12.3618 143.235 11.7085 144.273 11.7085C148.366 11.7085 152.52 11.7085 156.796 11.7085C156.551 14.6778 154.902 16.4 153.253 18.1221ZM150.076 14.1433C149.893 15.2716 149.771 16.2218 149.588 17.172C149.771 17.2907 149.954 17.4095 150.076 17.5283C151.054 16.5781 151.97 15.6279 153.436 14.2027C151.909 14.1433 151.176 14.1433 150.076 14.1433ZM150.076 20.6757C149.832 20.6757 149.588 20.7351 149.343 20.7351C149.221 22.1603 149.16 23.5262 149.038 25.1889C150.077 25.0702 150.81 24.9514 151.848 24.8326C151.176 23.2886 150.626 21.9821 150.076 20.6757Z" fill="#8CC6BF"/>
<path d="M139.936 21.1507C139.997 22.279 140.059 23.6449 140.059 23.6449C140.059 24.4169 139.081 25.5452 138.165 26.139C133.339 29.2864 127.781 27.1486 126.376 21.6258C124.848 15.5685 129.124 10.8771 135.477 11.0552C137.004 11.1146 138.47 11.4709 140.364 11.7085L139.448 15.6279L136.271 15.9248C136.149 15.1528 136.088 14.6183 136.027 13.9057H133.034C132.789 15.1528 132.545 16.4593 132.301 17.8251C134.317 17.4688 136.21 17.1125 138.165 16.7562C137.798 19.7254 137.798 19.6067 135.721 19.8442C134.927 19.9036 133.645 20.2005 133.522 20.7944C133.095 22.2196 134.317 23.823 135.416 24.7732C135.721 25.0701 136.393 25.0701 136.699 24.5356C137.493 23.051 138.776 22.3384 139.936 21.1507Z" fill="#8CC6BF"/>
<path d="M58.6075 27.3268C58.6075 22.1009 58.6075 17.1719 58.6075 11.946C60.6844 11.946 62.7002 11.946 64.9603 11.946C64.9603 14.6777 64.9603 17.4095 64.9603 20.0224C67.3426 18.2408 67.7702 17.1719 68.0146 11.8866C70.0914 11.8866 72.1072 11.8866 74.6117 11.8866C74.3063 17.1125 74.062 22.1009 73.7565 27.2674C71.4964 27.2674 69.6639 27.2674 67.6481 27.2674C67.6481 25.3671 67.6481 23.6449 67.6481 21.8633C67.5259 21.804 67.4037 21.6852 67.2816 21.6258C66.5485 22.6947 65.6934 23.7637 65.2047 24.9514C64.2273 27.0892 62.6391 27.8612 60.379 27.4455C59.8903 27.3862 59.4016 27.3862 58.6075 27.3268Z" fill="#8CC6BF"/>
<path d="M44.6802 11.7085C45.963 11.7085 47.2457 11.7085 48.5896 11.7085C52.7434 11.8273 52.4379 10.8177 53.6596 15.7467C54.2094 18.1221 54.4537 20.6163 54.8202 23.0511C54.9424 24.0012 54.5759 25.0701 56.103 25.3671C56.2863 25.4265 56.4695 26.1985 56.4695 26.6142C56.4084 27.3862 56.2252 28.1582 56.0419 28.9302C55.6143 30.8899 55.6143 30.8899 53.1709 30.7711C52.8044 29.821 52.7434 28.4551 52.0714 27.98C51.3384 27.3862 49.9945 27.5049 48.895 27.4456C47.6733 27.3862 46.4516 27.4456 45.2299 27.4456C42.0535 27.5049 41.9925 27.5049 41.2594 30.7117C40.0378 31.2462 39.0604 31.1274 38.8771 29.5834C38.6939 27.8612 37.35 25.9609 39.5491 24.5951C38.8161 20.7944 41.8703 19.0723 43.9472 16.8156C45.1689 15.5091 45.8408 13.9651 44.2526 12.243C44.4358 12.0648 44.558 11.8867 44.6802 11.7085ZM48.7118 25.0108C48.1009 22.279 47.4901 19.7255 46.9403 17.1719C45.5354 19.7255 44.9856 22.2197 45.5354 25.0108C46.6349 25.0108 47.4901 25.0108 48.7118 25.0108Z" fill="#8CC6BF"/>
<path d="M12 11.7679C17.1311 10.2833 19.0858 13.7276 21.4681 17.3501C21.6514 15.2716 21.7735 13.7276 21.9568 11.946C24.1558 11.946 26.2938 11.946 28.7372 11.946C28.5539 13.6682 28.3707 15.1528 28.1263 17.2313C30.5086 13.6682 32.6466 10.402 37.4112 11.7085C36.3728 14.559 36.3728 14.4996 33.624 14.559C33.1353 14.559 32.4633 14.9153 32.1579 15.331C31.486 16.2811 30.9362 17.3501 30.1421 18.7159C32.2801 19.191 35.9452 19.8442 36.3117 20.0224C37.1058 20.5569 37.7777 23.6449 37.228 27.2674C36.4338 27.2674 32.8909 27.2674 30.8751 27.2674C30.02 25.2483 28.7372 21.032 27.6377 21.032C27.5155 22.9323 27.3933 25.2483 27.2712 27.3268C25.5608 27.3268 23.9726 27.3268 21.9568 27.3268C21.8346 25.3671 21.6514 23.348 21.4681 21.032C19.3302 22.8135 19.208 25.1295 18.5971 27.3268C16.6424 27.3268 14.6266 27.3268 12.4276 27.3268C11.9389 23.9418 12.5498 21.9821 13.0384 20.6756C13.1606 20.2599 17.3754 19.1316 19.1469 18.7753C18.2917 17.1125 17.6809 15.8061 17.07 14.4996C15.7872 14.4996 14.5656 14.8559 13.7715 14.3808C12.9774 13.9651 12.6108 12.718 12 11.7679Z" fill="#8CC6BF"/>
<rect x="1" y="1" width="184" height="36" stroke="#8CC6BF" stroke-width="2" stroke-linejoin="round"/>
</svg>
