<svg width="95" height="16" viewBox="0 0 95 16" fill="none" xmlns="http://www.w3.org/2000/svg">
<g clip-path="url(#clip0_53_9661)">
<path d="M37.2628 1.46735C37.2628 0.656132 37.9088 0 38.7039 0C39.5018 0 40.1502 0.656132 40.1502 1.46735C40.1502 2.27752 39.5018 2.93434 38.7039 2.93434C37.9088 2.93434 37.2628 2.27752 37.2628 1.46735Z" fill="white"/>
<path d="M60.0441 11.2273C60.0441 10.4157 60.6897 9.7589 61.4849 9.7589C62.2825 9.7589 62.9308 10.4157 62.9308 11.2273C62.9308 12.0368 62.2825 12.6943 61.4849 12.6943C60.6897 12.6943 60.0441 12.0368 60.0441 11.2273Z" fill="#499FDD"/>
<path d="M13.566 10.5931C12.3225 10.5931 11.4584 9.59201 11.4584 8.16151C11.4584 6.73138 12.3225 5.731 13.566 5.731C14.8167 5.731 15.6903 6.73138 15.6903 8.16151C15.6903 9.6146 14.8349 10.5931 13.566 10.5931ZM13.566 3.59396C10.9352 3.59396 9.02594 5.51542 9.02594 8.16151C9.02594 10.8076 10.9352 12.7287 13.566 12.7287C16.2067 12.7287 18.1239 10.8076 18.1239 8.16151C18.1239 5.51542 16.2067 3.59396 13.566 3.59396Z" fill="white"/>
<path d="M34.4664 8.38996C34.3641 8.19489 34.2469 8.02973 34.122 7.89865L34.0424 7.8131L34.1261 7.73174C34.2469 7.60274 34.3703 7.44974 34.4894 7.27242L36.811 3.77408H33.9927L32.2483 6.51057C32.1496 6.65731 31.9502 6.73138 31.6518 6.73138H31.2542V1.55776C31.2542 0.522965 30.6182 0.382141 29.9311 0.382141H28.7549L28.7569 12.5942H31.2542V8.931H31.4882C31.7728 8.931 31.9667 8.96439 32.0556 9.1212L33.4332 11.7569C33.818 12.4721 34.2015 12.5942 34.923 12.5942H36.8368L35.4114 10.2043L34.4664 8.38996" fill="white"/>
<path d="M46.5899 3.57449C45.3197 3.57449 44.5091 4.14647 44.0549 4.63014L43.9033 4.78557L43.8498 4.57417C43.7164 4.05607 43.2666 3.77094 42.5898 3.77094H41.4706L41.4776 12.591H43.9579V8.52591C43.9579 8.12848 44.0089 7.78355 44.1125 7.46887C44.3887 6.51648 45.1588 5.92433 46.1213 5.92433C46.8956 5.92433 47.1981 6.33846 47.1981 7.40872V11.2502C47.1981 12.1637 47.6149 12.591 48.5168 12.591H49.6971L49.6931 6.98138C49.6931 4.75254 48.6207 3.57449 46.5906 3.57449" fill="white"/>
<path d="M38.7369 3.77477H37.5613L37.5693 10.5945H37.5686V12.5931H38.8234C38.8392 12.5931 38.8519 12.5948 38.8677 12.5948L39.4522 12.5931H40.034V12.5896H40.038L40.043 5.11382C40.043 4.21186 39.6176 3.77478 38.7378 3.77478" fill="white"/>
<path d="M23.3085 10.5931C22.0651 10.5931 21.1992 9.59201 21.1992 8.16151C21.1992 6.73138 22.0651 5.731 23.3085 5.731C24.5565 5.731 25.4326 6.73138 25.4326 8.16151C25.4326 9.6146 24.5774 10.5931 23.3085 10.5931ZM23.3085 3.59396C20.675 3.59396 18.7654 5.51542 18.7654 8.16151C18.7654 10.8076 20.675 12.7287 23.3085 12.7287C25.9464 12.7287 27.8667 10.8076 27.8667 8.16151C27.8667 5.51542 25.9464 3.59396 23.3085 3.59396Z" fill="white"/>
<path d="M76.4742 10.5931C75.2313 10.5931 74.3649 9.59201 74.3649 8.16151C74.3649 6.73138 75.2313 5.731 76.4742 5.731C77.7225 5.731 78.599 6.73138 78.599 8.16151C78.599 9.6146 77.7434 10.5931 76.4742 10.5931ZM76.4742 3.59396C73.8414 3.59396 71.9317 5.51542 71.9317 8.16151C71.9317 10.8076 73.8414 12.7287 76.4742 12.7287C79.1125 12.7287 81.0324 10.8076 81.0324 8.16151C81.0324 5.51542 79.1125 3.59396 76.4742 3.59396Z" fill="#499FDD"/>
<path d="M54.923 10.205C53.5669 10.205 53.0843 9.00576 53.0843 7.88195C53.0843 7.38681 53.2078 5.77307 54.7927 5.77307C55.5803 5.77307 56.6299 6.00186 56.6299 7.96505C56.6299 9.81662 55.701 10.205 54.923 10.205V10.205ZM57.9177 3.75112C57.447 3.75112 57.0848 3.94132 56.9033 4.28869L56.8347 4.42359L56.7198 4.32242C56.3194 3.97123 55.6016 3.55467 54.4359 3.55467C52.1166 3.55467 50.5551 5.32036 50.5551 7.94802C50.5551 10.5726 52.1708 12.4067 54.4826 12.4067C55.2722 12.4067 55.8962 12.22 56.3908 11.8403L56.5823 11.6946V11.9398C56.5823 13.1178 55.8306 13.7677 54.4682 13.7677C53.8061 13.7677 53.2034 13.6043 52.8003 13.4561C52.2741 13.2951 51.9657 13.4283 51.7523 13.9634L51.5554 14.4572L51.2769 15.1784L51.4494 15.2715C52.3214 15.7406 53.4565 16.0205 54.4826 16.0205C56.5949 16.0205 59.0613 14.9245 59.0613 11.8403L59.0704 3.75112H57.9181" fill="white"/>
<path d="M4.32871 10.4919L2.30965 10.4898V8.04299C2.30965 7.52003 2.50965 7.24811 2.95177 7.18553H4.32871C5.3115 7.18553 5.94647 7.81385 5.94718 8.83021C5.94647 9.87335 5.32728 10.4912 4.32871 10.4919V10.4919ZM2.30965 3.89125V3.24728C2.30965 2.68365 2.54494 2.41556 3.06127 2.38113H4.09443C4.98048 2.38113 5.51119 2.9187 5.51119 3.81789C5.51119 4.50357 5.1479 5.30366 4.12701 5.30366H2.30965V3.89125V3.89125ZM6.90734 6.33323L6.54234 6.1253L6.86098 5.84922C7.23151 5.5262 7.85272 4.80017 7.85272 3.54563C7.85272 1.62624 6.38387 0.387344 4.11052 0.387344H1.51621V0.386574H1.22079C0.546795 0.411616 0.00754129 0.967251 0 1.65468V12.5496H1.19062C1.19364 12.5503 1.19464 12.5496 1.19565 12.5503L4.1618 12.5496C6.68894 12.5496 8.32008 11.1552 8.32008 8.99559C8.32008 7.83285 7.79289 6.83873 6.90684 6.33316" fill="white"/>
<path d="M92.1122 3.603C91.083 3.603 90.0882 4.09153 89.4495 4.91074L89.2697 5.14162L89.1287 4.88327C88.6694 4.03416 87.8787 3.603 86.7793 3.603C85.6263 3.603 84.8531 4.25495 84.4939 4.64266L84.259 4.90066L84.1685 4.56129C84.0373 4.07276 83.6083 3.80362 82.9582 3.80362H81.9157L81.9057 12.5896H84.2743V8.71125C84.2743 8.37153 84.3159 8.03529 84.3998 7.68375C84.6263 6.74667 85.2476 5.73865 86.2921 5.83948C86.9363 5.90207 87.2508 6.40661 87.2508 7.38124V12.5896H89.6363V8.71125C89.6363 8.28669 89.6754 7.96888 89.7698 7.65002C89.9619 6.75536 90.6106 5.8381 91.6184 5.8381C92.3477 5.8381 92.6173 6.25674 92.6173 7.38124V11.3052C92.6173 12.1929 93.008 12.5896 93.8831 12.5896H94.998L95 6.98068C95 4.74002 94.0268 3.603 92.1117 3.603" fill="#499FDD"/>
<path d="M70.5602 9.53915C70.5532 9.54782 69.5339 10.6372 68.1919 10.6372C66.9693 10.6372 65.7341 9.87678 65.7341 8.17925C65.7341 6.71364 66.6918 5.68927 68.0626 5.68927C68.5079 5.68927 69.0141 5.85096 69.0934 6.12287L69.105 6.16877C69.2875 6.78527 69.8403 6.8183 69.949 6.8183L71.2467 6.81965V5.66977C71.2467 4.15305 69.3435 3.60296 68.0626 3.60296C65.3238 3.60296 63.3365 5.53589 63.3365 8.19764C63.3365 10.8583 65.3022 12.7885 68.0126 12.7885C70.364 12.7885 71.6429 11.2217 71.6548 11.206L71.7231 11.1212L70.6954 9.39308L70.5602 9.53911" fill="#499FDD"/>
</g>
<defs>
<clipPath id="clip0_53_9661">
<rect width="95" height="16" fill="white"/>
</clipPath>
</defs>
</svg>
