<svg width="36" height="36" viewBox="0 0 36 36" fill="none" xmlns="http://www.w3.org/2000/svg">
<g clip-path="url(#clip0_53_9691)">
<path d="M18 36.0024C27.9411 36.0024 36 27.9436 36 18.0024C36 8.06134 27.9411 0.00248337 18 0.00248337C8.05887 0.00248337 0 8.06134 0 18.0024C0 27.9436 8.05887 36.0024 18 36.0024Z" fill="#1977F3"/>
<path d="M25.0066 23.2069L25.804 18.0025H20.8123V14.6258C20.8123 13.2032 21.5084 11.8135 23.746 11.8135H26.0166V7.38377C26.0166 7.38377 23.9561 7.03193 21.9868 7.03193C17.876 7.03193 15.1877 9.52271 15.1877 14.036V18.0025H10.6162V23.2069H15.1877V35.7848C16.1041 35.9291 17.0432 36.0025 18 36.0025C18.9568 36.0025 19.8959 35.9266 20.8123 35.7848V23.2069H25.0066Z" fill="#F2F2F2"/>
</g>
<defs>
<clipPath id="clip0_53_9691">
<rect width="36" height="36" fill="white"/>
</clipPath>
</defs>
</svg>
