<svg width="36" height="36" viewBox="0 0 36 36" fill="none" xmlns="http://www.w3.org/2000/svg">
<g clip-path="url(#clip0_53_9678)">
<path d="M36 18.4133C36 17.1897 35.8987 15.9595 35.6828 14.7558H18.361V21.6873H28.2804C27.8688 23.9228 26.5462 25.9004 24.6095 27.157V31.6546H30.5274C34.0026 28.5195 36 23.8897 36 18.4133Z" fill="#4285F4"/>
<path d="M18.361 36C23.314 36 27.4909 34.406 30.5342 31.6546L24.6163 27.1571C22.9698 28.255 20.8442 28.8767 18.3678 28.8767C13.5768 28.8767 9.51452 25.7086 8.05698 21.4492H1.95013V26.0856C5.06766 32.1639 11.4174 36 18.361 36Z" fill="#34A853"/>
<path d="M8.04964 21.4492C7.28038 19.2137 7.28038 16.793 8.04964 14.5574V9.92101H1.94955C-0.655139 15.0072 -0.655139 20.9995 1.94955 26.0856L8.04964 21.4492Z" fill="#FBBC04"/>
<path d="M18.361 7.12306C20.9792 7.08337 23.5096 8.04902 25.4058 9.82157L30.6489 4.68249C27.329 1.62682 22.9226 -0.0531333 18.361 -0.000221327C11.4174 -0.000221327 5.06766 3.8359 1.95013 9.92078L8.05023 14.5572C9.50103 10.2912 13.57 7.12306 18.361 7.12306Z" fill="#EA4335"/>
</g>
<defs>
<clipPath id="clip0_53_9678">
<rect width="36" height="36" fill="white"/>
</clipPath>
</defs>
</svg>
