<svg width="80" height="16" viewBox="0 0 80 16" fill="none" xmlns="http://www.w3.org/2000/svg">
<path d="M8 2L9.41068 6.05836L13.7063 6.1459L10.2825 8.74164L11.5267 12.8541L8 10.4L4.47329 12.8541L5.71746 8.74164L2.29366 6.1459L6.58932 6.05836L8 2Z" fill="#292D32" stroke="#292D32" stroke-linecap="round" stroke-linejoin="round"/>
<path d="M24 2L25.4107 6.05836L29.7063 6.1459L26.2825 8.74164L27.5267 12.8541L24 10.4L20.4733 12.8541L21.7175 8.74164L18.2937 6.1459L22.5893 6.05836L24 2Z" fill="#292D32" stroke="#292D32" stroke-linecap="round" stroke-linejoin="round"/>
<path d="M40 2L41.4107 6.05836L45.7063 6.1459L42.2825 8.74164L43.5267 12.8541L40 10.4L36.4733 12.8541L37.7175 8.74164L34.2937 6.1459L38.5893 6.05836L40 2Z" fill="#292D32" stroke="#292D32" stroke-linecap="round" stroke-linejoin="round"/>
<path d="M56 2L57.4107 6.05836L61.7063 6.1459L58.2825 8.74164L59.5267 12.8541L56 10.4L52.4733 12.8541L53.7175 8.74164L50.2937 6.1459L54.5893 6.05836L56 2Z" fill="#292D32" stroke="#292D32" stroke-linecap="round" stroke-linejoin="round"/>
<path d="M72 2L73.4107 6.05836L77.7063 6.1459L74.2825 8.74164L75.5267 12.8541L72 10.4L68.4733 12.8541L69.7175 8.74164L66.2937 6.1459L70.5893 6.05836L72 2Z" fill="#292D32" stroke="#292D32" stroke-linecap="round" stroke-linejoin="round"/>
</svg>
