<svg width="46" height="25" viewBox="0 0 46 25" fill="none" xmlns="http://www.w3.org/2000/svg">
<path d="M0 10.2857C0 4.60507 4.63996 0 10.3636 0H35.6364C41.36 0 46 4.60507 46 10.2857C46 15.9664 41.36 20.5714 35.6364 20.5714H18.6136L13.7045 25V20.5714H10.3636C4.63996 20.5714 0 15.9664 0 10.2857Z" fill="#704EA6"/>
<path d="M14.4678 6.14746H16.1489L13.4795 14H11.6641L9 6.14746H10.6812L12.1582 10.8203C12.2406 11.096 12.3247 11.4183 12.4106 11.7871C12.5002 12.1523 12.5557 12.4066 12.5771 12.5498C12.6165 12.2204 12.7508 11.6439 12.98 10.8203L14.4678 6.14746ZM16.9438 6.44287C16.9438 5.90934 17.241 5.64258 17.8354 5.64258C18.4299 5.64258 18.7271 5.90934 18.7271 6.44287C18.7271 6.6971 18.6519 6.89583 18.5015 7.03906C18.3547 7.17871 18.1326 7.24854 17.8354 7.24854C17.241 7.24854 16.9438 6.97998 16.9438 6.44287ZM18.6519 14H17.0137V7.99512H18.6519V14ZM23.7168 7.88232C24.4258 7.88232 24.9808 8.15983 25.3818 8.71484C25.7829 9.26628 25.9834 10.0236 25.9834 10.9868C25.9834 11.9787 25.7757 12.7467 25.3604 13.291C24.9486 13.8353 24.3864 14.1074 23.6738 14.1074C22.9684 14.1074 22.4152 13.8514 22.0142 13.3394H21.9014L21.6274 14H20.376V5.64258H22.0142V7.58691C22.0142 7.83398 21.9927 8.22965 21.9497 8.77393H22.0142C22.3973 8.17952 22.9648 7.88232 23.7168 7.88232ZM23.1904 9.19287C22.7858 9.19287 22.4904 9.3182 22.3042 9.56885C22.118 9.81592 22.0213 10.2259 22.0142 10.7988V10.9761C22.0142 11.6206 22.109 12.0825 22.2988 12.3618C22.4922 12.6411 22.7965 12.7808 23.2119 12.7808C23.5485 12.7808 23.8153 12.6268 24.0122 12.3188C24.2127 12.0073 24.313 11.5562 24.313 10.9653C24.313 10.3745 24.2127 9.93229 24.0122 9.63867C23.8117 9.34147 23.5378 9.19287 23.1904 9.19287ZM29.8237 9.04785C29.4764 9.04785 29.2043 9.15885 29.0073 9.38086C28.8104 9.59928 28.6976 9.91081 28.6689 10.3154H30.9678C30.9606 9.91081 30.855 9.59928 30.6509 9.38086C30.4468 9.15885 30.1711 9.04785 29.8237 9.04785ZM30.0547 14.1074C29.0879 14.1074 28.3324 13.8407 27.7881 13.3071C27.2438 12.7736 26.9717 12.0181 26.9717 11.0405C26.9717 10.0343 27.2223 9.25732 27.7236 8.70947C28.2285 8.15804 28.925 7.88232 29.813 7.88232C30.6616 7.88232 31.3223 8.12402 31.7949 8.60742C32.2676 9.09082 32.5039 9.75863 32.5039 10.6108V11.4058H28.6313C28.6493 11.8713 28.7871 12.2347 29.0449 12.4961C29.3027 12.7575 29.6644 12.8882 30.1299 12.8882C30.4915 12.8882 30.8335 12.8506 31.1558 12.7754C31.478 12.7002 31.8146 12.5802 32.1655 12.4155V13.6831C31.8791 13.8263 31.5729 13.932 31.2471 14C30.9212 14.0716 30.5238 14.1074 30.0547 14.1074ZM37.1875 7.88232C37.4095 7.88232 37.5939 7.89844 37.7407 7.93066L37.6172 9.4668C37.4847 9.43099 37.3236 9.41309 37.1338 9.41309C36.611 9.41309 36.2028 9.54736 35.9092 9.81592C35.6191 10.0845 35.4741 10.4604 35.4741 10.9438V14H33.8359V7.99512H35.0767L35.3184 9.00488H35.3989C35.5851 8.66829 35.8358 8.39795 36.1509 8.19385C36.4696 7.98617 36.8151 7.88232 37.1875 7.88232Z" fill="white"/>
</svg>
